<svg xmlns="http://www.w3.org/2000/svg" viewBox="0 0 637.13 554.68"><defs><style>.cls-1{fill:#f9f5e8;}.cls-2,.cls-4{fill:#b5b5b5;}.cls-2{stroke:#4f4e4b;stroke-miterlimit:10;stroke-width:18px;}.cls-3{fill:#dbdbdb;}</style></defs><title>box</title><g id="Layer_2" data-name="Layer 2"><g id="Layer_6" data-name="Layer 6"><path class="cls-1" d="M623.69,34.75c2.33-7.38-9.25-10.54-11.57-3.19-25.29,80.07-23,165.18-14.45,247.75,2.43,23.52,5.36,47,8.32,70.44,1,7.56,13,7.65,12,0C607.69,268.27,597.13,185,608.43,103A414.36,414.36,0,0,1,623.69,34.75Z"/><path class="cls-2" d="M628,428.13c-.18-1.19-.35-2.39-.52-3.58a12.09,12.09,0,0,0,.25-5.66,270.77,270.77,0,0,1-2.39-68,9.08,9.08,0,0,0-.11-2.35,8,8,0,0,0-.06-3.07c-.33-1.56-.65-3.13-1-4.69l.09-1.49a4.34,4.34,0,0,0,0-.81l-.48.28a791.73,791.73,0,0,1-11.67-233q3.36-34.25,9.78-68.07c.79-4.18-2-10.17-7.23-9.49-24.37,3.16-48.78.19-73.06-2.29s-48.69-4.53-73.09-6.12c-49.65-3.25-99.29-4.17-149-4.29-26.53-.06-53.19-.65-79.32-5.61a7.35,7.35,0,0,0-5.88-.46,7,7,0,0,0-4.4,3L169.24,56.75a9.73,9.73,0,0,0-1.68,1.56c18.31,1.09,36.58,2.77,54.83,4.63l1.71,18-.64-.06c-2,58.87,2,118,5.39,176.74,1.14,19.85,2.46,39.69,4.1,59.5,2.43,3.32,2.71,9-.75,11.66a95.14,95.14,0,0,1-25,14A1158.93,1158.93,0,0,1,55.81,424.79c-15.17,6.82-31,13.68-41.64,27.06-2.52,3.17-3.05,7.4-.07,10.52q-2.22,36-4.43,72c24.06-3.8,48.66-4.29,72.92-6a8.07,8.07,0,0,1,5.12,1.22c2.44-.14,4.89-.27,7.34-.37,29-1.19,58-1,87-.73,59,.64,118,3.34,176.85,7.41q30,2.07,59.91,4.62l.39.12a9,9,0,0,0,4.59.3q13.23,1.13,26.46,2.32a7.86,7.86,0,0,0,2.8.43c.1.31.19.61.3.92,1.32-.21,2.63-.46,3.93-.72l.77.06a6.52,6.52,0,0,0,2.34-.18,7.87,7.87,0,0,0,6.4-1.55c.62-.45,1.24-.9,1.85-1.36l1.44-.45c.18-.14.36-.27.56-.4,25.11-15.9,48.2-34.8,73.65-50.15q39.41-29,81-54.94C627.75,433.36,628.44,430.87,628,428.13ZM126.79,406.91q4.44-2.32,8.85-4.7l-2.27,1.61ZM371,436c-.08.46-.13.92-.17,1.38l-2.14-.08ZM59.48,439.49c1-.43,1.9-.87,2.86-1.29-3.89,2.22-7.7,4.57-11.41,7.09l-4.47.37C50.71,443.45,55.1,441.45,59.48,439.49Z"/><path class="cls-3" d="M599.09,311.07a14.17,14.17,0,0,0-12.58-10.15q-5.85-73.71-14-147.19c-1.85-16.28-4.31-32-9.82-47.25C561.29,95.31,557,84.79,547.59,77.6c-12.82-9.74-31.94-10.42-43.06,1.17Q440.29,74.62,376,72.14c-4.8-5.25-13.61-5-19.26-.69q-10.6-.37-21.22-.69a15.48,15.48,0,0,0-12.85-2.67,13.23,13.23,0,0,0-2.94,1.22L297,65.78c-7.65-1.19-15.61-2.85-23.54-3.51-.66-2.48-1.32-5-2-7.43-2.74-9.88-14-12.37-21.28-7.73a13.29,13.29,0,0,0-2.9-.32,14.18,14.18,0,0,0-12.77,8.38,8.54,8.54,0,0,0-7.74,2.21,7.07,7.07,0,0,0-1-1.2,8,8,0,0,1-.48,1.19,8.28,8.28,0,0,1,.94,2A7.52,7.52,0,0,1,229,63.73c9,44.41,9.38,90.58,4.73,135.74,5.06,17.5,7,36.12,7.73,54.05.68,16.08.45,32.86-2,49.14.46,5.17.86,10.34,1.26,15.51.34,4.34-2.82,7.38-6.54,8.39l-.23.35c-.24.74-.46,1.48-.71,2.21a9.15,9.15,0,0,1-3.94,5.09c6.71,1.71,14.91-1.79,17.44-8.44.54,2.82,1.07,5.65,1.61,8.48a884.38,884.38,0,0,0-115.06,69.57l-46.16,21.7C70.05,433.58,53.45,442,38.9,454.37c-8.94,7.59-2,25,9.9,23.9a141.29,141.29,0,0,0,29.07-5.89,12.18,12.18,0,0,0,13-.38,344.78,344.78,0,0,1,41-23.07,15.59,15.59,0,0,0,1.42,4.36,14.39,14.39,0,0,0-.89,15.51c2.86,4.9,10.17,8.76,15.81,6.44q20.79-8.57,40.92-18.44,25-2.21,49.89-5.15c3.55,6.51,11.62,10.69,19.2,5.79l16-10.34c4-.56,7.94-1.12,11.91-1.71-.08,9.81,10.79,19.46,21,12.87l22-14.25c3.67,5.79,11.22,9.17,18.7,4.95L371,436a17.57,17.57,0,0,0,1,9.51c2.75,6.88,9.36,11.6,16.42,10,5.79,5.46,13.68,4.39,19.47-.3q4.47-3.6,9-7.12a15,15,0,0,0,2.17,13.62,15.69,15.69,0,0,0,7,4.83c4,5.6,12.54,7.87,18.57,4a534.92,534.92,0,0,0,81.78-64.35,12.59,12.59,0,0,0,3.71-12.8q12.21-9.06,24.53-18a14,14,0,0,0,21,3.74c6.15,2.93,15.5,1.62,18.6-5.28C603.24,354,605.43,332.13,599.09,311.07Z"/><path class="cls-3" d="M602.68,77.72a44,44,0,0,0,3.48-10.23,160,160,0,0,0,4.39-27.25c.53-6.77-10.21-8.11-11.78-1.6-.08.31-.15.62-.22.92a186.38,186.38,0,0,0-24.4,27.33c-1.82-4.29-9.67-3.86-11.45,1.19-1.15,3.25-2.2,6.53-3.19,9.82-3.55-1.33-8.36.45-8.28,5.36q.21,12.54,0,25.07c-.85,2.11-1.67,4.24-2.44,6.38a5.24,5.24,0,0,0,2.1,6.2c-.12,3.4-.25,6.79-.42,10.19-.2,4.17,3.21,6.08,6.45,5.74-.47,1.94-.93,3.88-1.34,5.83-.84,4,1.45,6.53,4.27,7.17.1,3.34.28,6.68.59,10a6.53,6.53,0,0,0,4.55,5.57,375,375,0,0,0,1.34,76.23,265.58,265.58,0,0,0,8.44,61.79,6,6,0,0,0,4,4.07c1.12,5,2.34,9.88,3.71,14.79A5.7,5.7,0,0,0,584,325a62.47,62.47,0,0,0,3.47,13.45,6.45,6.45,0,0,0,4.26,3.82c.91,2.39,1.84,4.77,2.82,7.14,2.52,6.07,11.39,5.55,11.79-1.6a95.49,95.49,0,0,0-2-25.63,657.58,657.58,0,0,0-6-70.22q.56-51.32-.5-102.64a5.71,5.71,0,0,0-5.16-5.72c2.6-22,5.83-43.93,10-65.71Z"/><path class="cls-1" d="M627.75,418.89a270.77,270.77,0,0,1-2.39-68,9.08,9.08,0,0,0-.11-2.35,8,8,0,0,0-.06-3.07,791,791,0,0,1-13.05-239.71q3.36-34.25,9.78-68.07c.79-4.18-2-10.17-7.23-9.49-24.37,3.16-48.78.19-73.06-2.29s-48.69-4.53-73.09-6.12c-49.65-3.25-99.29-4.17-149-4.29-26.53-.06-53.19-.65-79.32-5.61a7.35,7.35,0,0,0-5.88-.46,7,7,0,0,0-4.4,3L169.24,56.75a9.73,9.73,0,0,0-1.68,1.56c18.31,1.09,36.58,2.77,54.83,4.63l1.71,18-.64-.06c-2,58.87,2,118,5.39,176.74,1.14,19.85,2.46,39.69,4.1,59.5,2.43,3.32,2.71,9-.75,11.66a95.14,95.14,0,0,1-25,14A1158.93,1158.93,0,0,1,55.81,424.79c-15.17,6.82-31,13.68-41.64,27.06-2.52,3.17-3.05,7.4-.07,10.52q-2.22,36-4.43,72c24.06-3.8,48.66-4.29,72.92-6a8.07,8.07,0,0,1,5.12,1.22c2.44-.14,4.89-.27,7.34-.37,29-1.19,58-1,87-.73,59,.64,118,3.34,176.85,7.41q30,2.07,59.91,4.62l.39.12a9,9,0,0,0,4.59.3q13.23,1.13,26.46,2.32a7.83,7.83,0,0,0,3.83.34l4,.35a6.52,6.52,0,0,0,2.34-.18,7.87,7.87,0,0,0,6.4-1.55q77.49-57,156.36-112C627.17,427.39,628.54,423.62,627.75,418.89ZM184.23,437.25q-33.06,1.14-66.08,3.11-35.88,2.16-71.69,5.3c4.25-2.21,8.64-4.21,13-6.17,15.15-6.79,30.18-13.81,45-21.2q44.08-21.92,86.19-47.54,24.21-14.72,47.67-30.62a8.18,8.18,0,0,0,1.54-1.36,153.87,153.87,0,0,1,2.83,58c-7.88,3.21-14.63,9.05-21.47,13.94l-26.82,19.18Zm255.48.87a10.4,10.4,0,0,0-2.77,2.45q-109.26-6.68-218.83-4.3l9.51-6.79q6.49-4.65,13-9.3c3.33-2.38,6.61-5.09,10.58-6.24a11.58,11.58,0,0,0,1.6-.62l198.07,15.57,3.47.28C449.45,432.14,444.57,435.11,439.71,438.12ZM598,341.79a8.25,8.25,0,0,1-6.37.69c-4.93-1.61-9.91-3-14.9-4.46a7.67,7.67,0,0,1-7.27-.73l-.31-.24c-9.87.08-19.73.35-29.46.29q-37.15-.24-74.28-1.21-74.25-2-148.4-6.89-31-2.06-62-4.66a8.74,8.74,0,0,0-6.79-3.29C245,282.75,243,244.1,241,205.47c-2.11-40.13-3.78-80.33-2.66-120.51,0-.86.07-1.71.09-2.56L237,82.25a107.66,107.66,0,0,0-.69-17.86l2.47.27.38,0c0-.15,0-.3,0-.44a216.55,216.55,0,0,1,24.51,1.16c11.65,1.26,23.24,3.13,34.79,5.22,8,.68,16.08,1.3,24.13,1.78,28.19,1.7,56.45,2,84.65,3.55,51.26,2.84,102.49,6.92,153.84,7.7a8.52,8.52,0,0,1,4.34-2,35.07,35.07,0,0,1,5-3.42c1.45-1.42,2.92-2.82,4.45-4.16a10.06,10.06,0,0,1,2.2-1.45,110.66,110.66,0,0,1,9.26-8.57,11.38,11.38,0,0,1,1.49-1q2-4.23,4.26-8.35,6-4,12.09-7.82c-9,32.21-17,65.24-14.13,98.9a6.17,6.17,0,0,0,1.26,3.3q2.09,49.41,4.16,98.83,1.11,26.76,2.24,53.51C598.24,314.61,599.92,328.55,598,341.79Z"/><path class="cls-3" d="M624.31,339.28a4.34,4.34,0,0,0,0-.81C564.23,374,503.5,408.33,444.16,445a7.8,7.8,0,0,1-9.44-.43c10.93,13.35,10.43,33.71,11.21,50,.8,16.48,1.85,33.88,7.43,50a102.16,102.16,0,0,0,16.73-4.2c.18-.14.36-.27.56-.4,25.11-15.9,48.2-34.8,73.65-50.15q39.41-29,81-54.94c2.49-1.55,3.18-4,2.76-6.78A416.56,416.56,0,0,1,624.31,339.28Z"/><path class="cls-4" d="M348.61,182.21l-7.26-6.3a6.79,6.79,0,0,0-5.54-1.62c6.46-8.85,11.69-19.45,6.47-30.1-8.86-18.08-37.91-21.5-52.26-8.23-.66-1.21-1.35-2.41-2.08-3.6-4.06-6.55-14.44-.53-10.37,6.06,9.15,14.8,11.92,32.11,10.59,49.28a136.28,136.28,0,0,1-5.4,27.57c-1.22,4.2-2.59,8.36-4.06,12.49-.22.64-.47,1.27-.7,1.91a5.6,5.6,0,0,0-6.75,4.13c-1.25,4.55-3.43,11.87.47,15.74,4.2,4.15,10.2,1.38,12.6-3.13,3.11-5.83,5.07-12.76,7.19-19a190.71,190.71,0,0,0,5.83-20.72c.07-.32.13-.64.2-1a5.54,5.54,0,0,0,3.69-.63,108.15,108.15,0,0,0,29.91-24.86,5.19,5.19,0,0,0,1.73,4.16l7.25,6.3c2.37,2.06,6.19,2.51,8.49,0C350.68,188.44,351.14,184.41,348.61,182.21Zm-30.33-5.49A97.07,97.07,0,0,1,299.7,192c1.55-14.79.53-29.8-4.27-43.74l.33-.51c3.87-6.67,12.24-8.37,19.43-7.6,6.55.7,16.32,4.57,17.24,12.17C333.49,161,323.75,170.93,318.28,176.72Z"/><path class="cls-4" d="M349.92,211.93c-6-4.69-14.58,3.74-8.49,8.48,2,1.56-7.12,6.64-11.47,8.94,0-.22,0-.44.05-.66a45.65,45.65,0,0,1,1-5.59c.85-3.88,2-7.68,2.83-11.56,1.2-5.64,3-14.82-4.81-16.43-6.34-1.31-13.65,3.63-18,7.67-5.68,5.26,2.82,13.73,8.49,8.49.5-.46,1.49-1.35,2.62-2.2,0,.06,0,.12,0,.17-.53,2.39-1.18,4.74-1.77,7.11A72.8,72.8,0,0,0,318,228.69c-.53,7.42,3.34,15.42,12.14,13.52,7-1.51,14.86-6.85,19.64-12.19C354.28,225,355.91,216.59,349.92,211.93Z"/><path class="cls-4" d="M493,237.93c-5.77,6.1-16.17,7.1-22.63,1.35-5.46-4.87-6.51-12.72-6.2-20.16a24,24,0,0,0,.88-12,4.73,4.73,0,0,0-2-3.07,14.74,14.74,0,0,0-4.57-7.9c-5.5-5.11-13.6-4.77-20.08-1.9-12.31,5.44-22.07,19-22.6,32.55,0,.75,0,1.49,0,2.21h-.73l-7.8.16c.61-.71,1.21-1.42,1.79-2.16,3.88-4.92,8.22-10.87,8.74-17.33,1.3-15.85-20.6-16.85-31.65-15.7a6.1,6.1,0,0,0-4,2,9.16,9.16,0,0,0-1.85-1.55c-5.71-3.69-15.61-1.67-21.84-.66-7.6,1.24-4.37,12.8,3.19,11.57a53.12,53.12,0,0,1,7.33-.67c.9,0,1.8,0,2.7,0-.64,1.5-1.39,3.3-1.53,3.56q-1.55,3-3.28,5.8a94.47,94.47,0,0,1-17.15,20.46c-4.5,4.09.22,11.61,5.84,10A80.63,80.63,0,0,1,385.9,242a5.22,5.22,0,0,0,3.52-.76,6.31,6.31,0,0,0,1.84.24l20.87-.42a75.52,75.52,0,0,0,8.64-.33c5.33,5.58,14.12,7.32,22.45,3.07a37.69,37.69,0,0,0,10.9-9A27.88,27.88,0,0,0,464,249.54c11.11,8.43,27.86,7,37.41-3.13C506.76,240.8,498.29,232.3,493,237.93Zm-88.38-25.67c-3.61,7.25-9.76,13.47-16.35,18a3.4,3.4,0,0,0-.31.25,6.38,6.38,0,0,0-2-.55,88.37,88.37,0,0,0-15.34-.19,92.94,92.94,0,0,0,12.16-20,22.78,22.78,0,0,0,1.35-4,6,6,0,0,0,2.12.14,46.39,46.39,0,0,1,14.26.44c.83.17,4.25.63,4.89,1.3C406.55,209,405.32,210.8,404.59,212.26Zm38,17.22c-3.1,3-8.67,5.78-12,4.1a6,6,0,0,0-2.67-4.6c0-.27-.05-.55-.07-.85-.35-6.58,3.75-13.36,8.24-17.83,2.58-2.56,5.75-5,9.35-5.9,1.07-.25,7.47-.25,6.13,2.69a6.19,6.19,0,0,0,1.12,6.92c-.08.92-.14,1.85-.19,2.78C450.33,221.72,445.71,226.42,442.55,229.48Z"/><path class="cls-4" d="M541.12,170.88q-18.9-2.74-37.9-4.73c-10.13-1-23.84-4.63-33,1.35a6.18,6.18,0,0,0-2.76,6.77c1.68,6.75,7.3,9.06,12.37,12.91,5.54,4.2,9.33,10.24,12.67,16.22a175.25,175.25,0,0,1,16.85,42.93c1.11,4.42,6.88,5.77,10,2.65,6.72-6.69,6.25-17.42,8.11-26.12,2.34-10.91,6.29-21,10-31.4a14.3,14.3,0,0,0,.86-6.48,11.18,11.18,0,0,0,6.92-6.72C546.44,175.51,544.06,171.3,541.12,170.88Zm-17.84,24a167.29,167.29,0,0,0-7.17,23.88c-.39,1.78-.74,3.56-1.07,5.34a186.33,186.33,0,0,0-10.5-23.66A96.34,96.34,0,0,0,496,186.71l18.76,1.19c1,.07,7.3.7,11,.91,0,.11-.08.23-.14.34C524.88,191.08,524,193,523.28,194.88Z"/></g></g></svg>