<svg xmlns="http://www.w3.org/2000/svg" viewBox="0 0 476.39 286.84"><defs><style>.cls-1,.cls-4,.cls-5{fill:#f753aa;}.cls-1{stroke:#4f4e4b;stroke-width:18px;}.cls-1,.cls-4{stroke-miterlimit:10;}.cls-2{fill:#4f4e4b;}.cls-3{fill:#fff;}.cls-4{stroke:#f753aa;}</style></defs><title>eater</title><g id="Layer_2" data-name="Layer 2"><g id="Layer_6" data-name="Layer 6"><path class="cls-1" d="M456.56,76.09a111.59,111.59,0,0,1-26.27-4.55c-1.05-.3-2.1-.62-3.16-.94A86.77,86.77,0,0,1,405,63.81c-14-6.33-26.6-15.14-39.26-23.66C340.82,23.41,312.42,6.68,281.2,9.27a75.71,75.71,0,0,0-24.38,6c-6.76,2.92-13,6.8-19.44,10.3-5.39,2.93-11.53,5.46-17,5.37-4.51-.08-7.23-2.81-11.89-6.56-24.87-20-57.71-16.17-84-.83-11.82,6.9-22.47,16-33.29,24.68-1.91,2.29-3.94,4.48-6,6.55a136.89,136.89,0,0,1-31.7,22.92,101.79,101.79,0,0,1-36.53,6.38C9.21,84,5.76,95.29,12.9,99q14.21,7.41,28.23,15.16c12,9.61,22.3,22.64,32,34.81,12,15.15,24.27,30.14,36.84,44.84,12.18,14.25,24.44,28.56,37.51,42C160,248.71,174,260,191,266.34c1.23.46,2.47.88,3.72,1.27,14.25,7.52,31.39,10.21,47.6,10.23,22.13,0,48.16-2,65.25-17.52a101.53,101.53,0,0,0,21.62-14.85,273.91,273.91,0,0,0,29.9-30.65,310,310,0,0,0,31.65-45.15l19.78-26.79q9-9.84,18.55-19.08a231.82,231.82,0,0,1,20-14.64,15.28,15.28,0,0,0,5.54-6.39l1.48-.81a12.5,12.5,0,0,0,5.62-6.24,9.14,9.14,0,0,0,3.47-6.48C471,83.16,464.22,71.9,456.56,76.09ZM141.36,120.5c-.56-.86-1.09-1.73-1.64-2.59l.92.15C140.88,118.88,141.11,119.69,141.36,120.5Zm170,6.3,1.46-.18.42,5C312.62,130.05,312,128.42,311.37,126.8Z"/><path class="cls-2" d="M400.63,104.28l-5.37,4.64a7.56,7.56,0,0,0-4,.93,52.25,52.25,0,0,0-11.73,9.07c-2.27-4.38-8.74-6.24-12.45-2.88-2.42-6.43-12.56-6.22-15.19,1-1.15,3.11-2.22,6.24-3.25,9.38-.31-2.16-.63-4.32-.94-6.48-1.23-8.46-13-6.85-15.32,0a9.57,9.57,0,0,0-5,1.53c-4.13-5.68-15.27-4-14.58,4.4l.48,5.82c-.72-1.85-1.44-3.7-2.14-5.56-1.4-3.72-4.62-6.35-8.78-5.73A8.65,8.65,0,0,0,299,121.7l-2.3-6.63c-3-8.79-14.19-6.54-15.44,1.17-5.15-2.57-12.38,1.66-11.35,9.19.13,1,.27,1.95.41,2.93L266.88,121c-3-6.59-11-4.41-13.83.75-.84-2.3-1.67-4.61-2.47-6.94-1.28-3.75-4.7-6.34-8.77-5.73-2.89.44-6,2.72-6.78,5.7-.5-1-1-2-1.49-3-3.45-6.79-15.8-3.91-14.91,4,.4,3.55.89,7.09,1.42,10.61-3.19-7.09-6.28-14.23-9.37-21.36-1.56-3.61-6.73-4.71-10-3.28-3.88,1.71-5.3,5.39-4.63,9.44,0,.25.09.5.13.75l-2.35-4.27c-4.42-8-16.93-2.55-14.62,6.16l2.48,9.39L171,105.77c-3.67-6-12-4.27-14.33,1L152,99.31c-4.82-7.87-16.55-2.66-14.62,6.16,1.11,5.08,2.44,10.08,3.94,15-5.42-8.44-10.7-17-16-25.5-4.49-7.28-17.72-2.72-14.72,5.86-2.29-2.87-4.57-5.76-6.87-8.63-3.72-4.62-10-2.32-12.56,2-6.32-5.66-17.82,1.77-12.41,9.67a204.28,204.28,0,0,0,43.4,46.32c2.43,1.88,5.35,2.83,8.1,1.93q9,11.94,17.88,24a8.6,8.6,0,0,0,13.8.1c1.94,2.3,3.89,4.58,5.9,6.82,5.31,5.93,13,.69,13.35-5.69,4.22,4.55,11,2.06,13-2.88l2.24,3.66c4.6,7.5,16.39,2.95,14.76-5.55l5.9,10.72c3.11,5.64,11.4,4.28,14.23-.18q1.44,2.29,2.92,4.59c4.85,7.43,17.06,2.86,14.63-6.17l-.06-.22c4.06,3,10.16,1.69,12.15-2.63q2.13,4,4.35,7.95c3.5,6.22,11.21,4.41,13.88-.63.66,1.42,1.31,2.84,2,4.27,4,8.61,16.12,2.29,14.64-6a8.61,8.61,0,0,0,5.75-.21,7.93,7.93,0,0,0,3.36-2.68,8.09,8.09,0,0,0,11-4c.74,1.52,1.47,3,2.23,4.55,2.19,4.4,7.87,4.75,11.56,2.41a8.41,8.41,0,0,0,6.35,1c4.55-1.25,6.28-5.56,5.59-9.84-.09-.61-.17-1.21-.26-1.82,4.16,2.93,11.79,1.4,12.81-4.27.14-.77.29-1.54.44-2.31,3.34,2.3,8.36,2.26,10.94-.91,3.58,0,6.33-2.51,7.74-5.88.34-.81.69-1.63,1-2.45a6.65,6.65,0,0,0,7.06-.54,82.83,82.83,0,0,0,27.5-32.38,8.68,8.68,0,0,0,.46-6.13c.85-1.06,1.69-2.12,2.55-3.17C418.43,107.67,408.52,97.47,400.63,104.28Z"/><path class="cls-3" d="M323.72,185.72l-3.65-1.32a7.63,7.63,0,0,0-3.23-.48l-2.64-.66,1.19,0c8.93.26,11-13.68,2.13-15.71a341.14,341.14,0,0,0-152.58,0c-9.68,2.23-6.07,16.66,3.21,15.6-4.32,4.86,0,14.88,8.3,13.18a306.89,306.89,0,0,1,143,4.76C329.53,203.91,333.3,189.16,323.72,185.72Z"/><path class="cls-3" d="M378,92.34c-52,.61-104,1.73-156.08,2-30.86-3.63-61.72-7.38-92.82-5a8,8,0,0,0-1.77.35c-1.88-.42-3.77-.88-5.65-1.38-5.67-1.51-9.19,2.21-9.64,6.49-2.73-1-5.44-2.06-8.1-3.25-3.94-1.77-8.6-1.14-11,2.87-2,3.42-1.09,9.16,2.87,10.94,18,8.06,36.94,11.85,56.36,14.45q28.28,3.8,56.71,6.56c37.59,3.62,75.61,5,113-1A234.48,234.48,0,0,0,382,107.25C389.43,103.87,385.45,92.26,378,92.34Z"/><path class="cls-3" d="M402,102.5c-2-3.48-5.75-4.42-9.26-3.48a7.63,7.63,0,0,0-10.24-2.32,75.74,75.74,0,0,1-49.28,8.77c-4.26-.72-8.62,1.12-9.84,5.59a5.55,5.55,0,0,0-.16.73c-2.51-.16-5-.36-7.51-.64-4.3-.48-8,4-8,8,0,4.73,3.69,7.52,8,8a158.78,158.78,0,0,0,83.42-13.71C403.09,111.65,404.05,106,402,102.5Z"/><path class="cls-4" d="M456.56,76.09a111.59,111.59,0,0,1-26.27-4.55c-1.05-.3-2.1-.62-3.16-.94A86.77,86.77,0,0,1,405,63.81c-14-6.33-26.6-15.14-39.26-23.66C340.82,23.41,312.42,6.68,281.2,9.27a75.71,75.71,0,0,0-24.38,6c-6.76,2.92-13,6.8-19.44,10.3-5.39,2.93-11.53,5.46-17,5.37-4.51-.08-7.23-2.81-11.89-6.56-24.87-20-57.71-16.17-84-.83-11.82,6.9-22.47,16-33.29,24.68-1.91,2.29-3.94,4.48-6,6.55a136.89,136.89,0,0,1-31.7,22.92,101.79,101.79,0,0,1-36.53,6.38C9.21,84,5.76,95.29,12.9,99q14.21,7.41,28.23,15.16c12,9.61,22.3,22.64,32,34.81,12,15.15,24.27,30.14,36.84,44.84,12.18,14.25,24.44,28.56,37.51,42C160,248.71,174,260,191,266.34c1.23.46,2.47.88,3.72,1.27,14.25,7.52,31.39,10.21,47.6,10.23,22.13,0,48.16-2,65.25-17.52a101.53,101.53,0,0,0,21.62-14.85,273.91,273.91,0,0,0,29.9-30.65,310,310,0,0,0,31.65-45.15l19.78-26.79q9-9.84,18.55-19.08a231.82,231.82,0,0,1,20-14.64,15.28,15.28,0,0,0,5.54-6.39l1.48-.81a12.5,12.5,0,0,0,5.62-6.24,9.14,9.14,0,0,0,3.47-6.48C471,83.16,464.22,71.9,456.56,76.09ZM405,122.92a32.1,32.1,0,0,1-10.1,10.41,10.81,10.81,0,0,1-.95,1.77,7.88,7.88,0,0,1-4,4l-1.85.92c-32.63,22-71,31.69-109.93,34.4A210.91,210.91,0,0,1,149,154.9a216.39,216.39,0,0,1-44-29.2,52.77,52.77,0,0,1-13.11-9.26c-5.92-5.73-1.07-13.84,5.18-15,1.9-4.44,7.11-7.76,12.67-4.89,18.66,9.64,40.92,9.34,61.34,7.87s40.42-4.84,60.69-6.75a189.07,189.07,0,0,1,53.72,2.64c18.66,3.51,37.09,8.44,55.94,10.88,16.21,2.09,34.23,2.9,49-5.18,6.2-3.39,12,1.16,13.14,6.43A8,8,0,0,1,405,122.92Z"/><path class="cls-5" d="M147,90.35a175.07,175.07,0,0,1-56.51,3.24c-7-.72-7,10.28,0,11A184.37,184.37,0,0,0,149.92,101C156.83,99.4,153.91,88.79,147,90.35Z"/><path class="cls-5" d="M422.11,102.37c-16.72,2.48-33.32-4.12-50.09-3.19-7,.39-7.09,11.4,0,11,17.87-1,35.09,5.45,53,2.8C432,112,429,101.35,422.11,102.37Z"/><path class="cls-5" d="M409.24,118a432.16,432.16,0,0,0-61.09,64.65c-4.31,5.61,5.24,11.09,9.5,5.55A419.49,419.49,0,0,1,417,125.77C422.4,121.16,414.59,113.41,409.24,118Z"/></g></g></svg>