<svg xmlns="http://www.w3.org/2000/svg" viewBox="0 0 552.34 362.62"><defs><style>.cls-1,.cls-6{fill:#55cec5;}.cls-1{stroke:#4f4e4b;stroke-miterlimit:10;stroke-width:18px;}.cls-2{fill:#f5dddb;}.cls-3{fill:#fdc3b8;}.cls-4{fill:#f753aa;}.cls-5{fill:#f4eacb;}</style></defs><title>pizza_1</title><g id="Layer_2" data-name="Layer 2"><g id="Layer_6" data-name="Layer 6"><path class="cls-1" d="M530.14,73.23C486.44,52.3,440.81,35,393.84,22.93,344.75,10.36,294.76,5,244.46,12.34,230.25,14.42,221.2,33.13,225.36,46a27.73,27.73,0,0,0,9.88,14.26q-18.87,12.69-37.29,26a17.64,17.64,0,0,0-2.62-.77,11,11,0,0,0-7.25-.85,78.54,78.54,0,0,0-43.48,25.43c-5.29,6.18-11.34,14-13.37,22.08a14.37,14.37,0,0,0-.24,6.32l-3.45,2.9a10.86,10.86,0,0,0-2.43-2.4,21.7,21.7,0,0,0-27.17,2.07c-7.07,6.8-7.85,17.72-3.37,26.08a7,7,0,0,0,1.35,1.78q-17,15.35-33.49,31.31C58.58,204,54.78,207.73,51,211.51l-1.77.49a8.81,8.81,0,0,0-3.33-.77,31.63,31.63,0,0,0-21.63,7.28c-5.75,4.8-10.49,13.05-4.87,19.81a13.13,13.13,0,0,0,3,2.69c-3.55,3.78-7.08,7.56-10.58,11.39a10.37,10.37,0,0,0-2,11.26,8,8,0,0,0-.43,3.64q2.64,21.42,3.23,43a265.57,265.57,0,0,0-.23,32.66c.78,14.2,21.51,14.29,22.13,0q.69-15.93.25-31.85a248.7,248.7,0,0,1,9.9-53.86q22.74-12.69,46-24.4.42,15,1.77,29.9c.54,5.95,4.7,11.07,11.06,11.07,5.57,0,11.61-5.08,11.07-11.07q-1.83-20.27-2-40.59,4.92-2.31,9.85-4.57v18.08c0,14.24,22.13,14.26,22.13,0V207.77c22.46-9.59,45.3-18.27,68.59-25.74a640.26,640.26,0,0,1,100.08-23.79c32.49-4.9,65.11-5.05,97.81-7.29,4.1-.28,8.22-.61,12.34-1,7.77,9,11.15,20.51,9.55,33-.47,3.71,1.85,7.11,5,9.13l.93,30c.44,14.21,22.57,14.27,22.13,0l-1.58-50.88L458.73,147c0-1-.05-1.9-.08-2.85,17.31-4.29,33.84-11,48.36-22,12.15,3.77,26.47.68,32.94-11.56S543.91,79.83,530.14,73.23Z"/><path class="cls-2" d="M505.48,102.45q-80-24.49-160.8-45.92Q324.31,51.15,303.9,46c-9.33-2.37-18.37-5.08-27.3-3.51a9.14,9.14,0,0,0-12.05-1.36A1246.4,1246.4,0,0,0,62.43,200.22Q36.35,225.56,11.81,252.4a10.37,10.37,0,0,0-2,11.26,8,8,0,0,0-.43,3.64q2.64,21.42,3.23,43a265.57,265.57,0,0,0-.23,32.66c.78,14.2,21.51,14.29,22.13,0,.47-10.62.53-21.24.25-31.85a248.7,248.7,0,0,1,9.9-53.86q22.74-12.69,46-24.4.44,15,1.78,29.9c.54,5.95,4.7,11.07,11.06,11.07,5.57,0,11.61-5.08,11.07-11.07q-1.83-20.27-2-40.59,4.92-2.31,9.85-4.57v18.08c0,14.24,22.13,14.26,22.13,0V207.77c22.46-9.59,45.3-18.27,68.59-25.74a640.26,640.26,0,0,1,100.08-23.79c32.49-4.9,65.11-5.05,97.81-7.29,4.1-.28,8.22-.61,12.34-1,7.77,9,11.15,20.51,9.55,33-.47,3.71,1.85,7.11,5,9.13l.93,30c.44,14.21,22.57,14.27,22.13,0l-1.58-50.88L458.73,147c0-1-.05-1.9-.08-2.85,17.69-4.38,34.57-11.34,49.32-22.68C514.87,116.17,514.74,105.28,505.48,102.45Z"/><path class="cls-3" d="M530.14,73.23C486.44,52.3,440.81,35,393.84,22.93,344.75,10.36,294.76,5,244.46,12.34,230.25,14.42,221.2,33.13,225.36,46c5,15.53,18.41,21.33,33.63,19.1l.39-.06c1.5-.17,3-.34,4.5-.49q3.64-.37,7.31-.64c5.68-.41,11.39-.63,17.09-.68A309,309,0,0,1,320,64.61c3.26.3,6.51.67,9.76,1l1.11.13,1.36.22c5.68.89,11.34,1.81,17,2.89,10.89,2.08,21.7,4.58,32.43,7.37C403,81.83,424.1,88.5,444.81,96.08q14.64,5.36,29,11.35l4.2,1.8q4.5,2,9,4,7.8,3.54,15.53,7.25c12.88,6.17,30.13,4,37.41-9.81C546.4,98.43,543.91,79.83,530.14,73.23Z"/><path class="cls-4" d="M200.41,87.39a16.6,16.6,0,0,0-2-1,18.72,18.72,0,0,0-3.09-.93,11,11,0,0,0-7.25-.85,78.54,78.54,0,0,0-43.48,25.43c-5.29,6.18-11.34,14-13.37,22.08-2.88,11.38,7.57,19.38,18.09,17.24,9-1.83,18.27-7.35,26.48-11.38q14.16-6.95,27.67-15.12c8-4.81,17.72-10.36,17.53-21C220.8,90.8,209.82,87.05,200.41,87.39Z"/><path class="cls-4" d="M407.24,116.54c-.64-6.77-5.85-12.06-11.49-15.27a121.23,121.23,0,0,0-22.42-9.64,56.61,56.61,0,0,0-22.57-5.81c-.15,0-.29-.06-.44-.09a11.46,11.46,0,0,0-5.17.1,59.09,59.09,0,0,0-26.24,7.52c-5.72,3.25-7.81,12.84-2.24,17.39a101.37,101.37,0,0,0,37.27,19.71c12.78,3.51,28.7,5.55,41.76,2.11C403,130.62,408,124.12,407.24,116.54Z"/><path class="cls-5" d="M277.88,68.89,243.08,78c-10.52,2.76-6.06,19.09,4.5,16.32l34.8-9.1C292.9,82.45,288.44,66.12,277.88,68.89Z"/><path class="cls-5" d="M298.64,112.06a69.64,69.64,0,0,1-24-10.85c-8.95-6.25-17.42,8.42-8.54,14.62a83,83,0,0,0,28,12.55C304.72,130.93,309.24,114.62,298.64,112.06Z"/><path class="cls-5" d="M455.3,104c-3.57-2.09-9.77-1.19-11.58,3a34.23,34.23,0,0,1-16.21,17.57c-9.69,5-1.14,19.6,8.54,14.62a48.5,48.5,0,0,0,22.28-23.65C460.14,111.33,459.58,106.45,455.3,104Z"/><path class="cls-5" d="M126.85,181l-40.32,9.22c-10.61,2.42-6.12,18.75,4.5,16.32l40.32-9.22C142,194.86,137.47,178.54,126.85,181Z"/><path class="cls-5" d="M208.38,135.08l-11.09,12.54c-2.45,2.78-4.81,5.88-7.4,8.66a10.55,10.55,0,0,0-5.34,4,8.36,8.36,0,0,0-1,7.47c1.25,3.27,4.26,6.54,8.16,6.21,7.07-.59,10.71-6.65,15.08-11.59l13.55-15.33C227.54,138.92,215.62,126.9,208.38,135.08Z"/><path class="cls-6" d="M267,130.77a31.83,31.83,0,0,0-5.91-.59,22.05,22.05,0,0,0-12.45.19c-8.09,2.52-13.69,8.75-16.68,16.49-2.09,5.43,3.18,10.45,8.17,10.71.79,0,1.57.05,2.36,0a23.33,23.33,0,0,0,17.14,0c5.79-2.3,10.92-7.43,11.65-13.37C274.53,139.72,273.24,132,267,130.77Z"/><path class="cls-6" d="M132,153.57l-3.63-3.47c2.1-4.13.31-8.54-3.28-11.12a21.7,21.7,0,0,0-27.17,2.07c-7.07,6.8-7.85,17.72-3.37,26.08,2.19,4.08,7.71,5.21,11.58,3a35.11,35.11,0,0,0,4-2.68,18.51,18.51,0,0,0,21.85-2C135.48,162.65,135.1,156.52,132,153.57Z"/><path class="cls-6" d="M51,211.51l-1.78.49a8.81,8.81,0,0,0-3.33-.77,31.68,31.68,0,0,0-21.64,7.28c-5.74,4.8-10.48,13.05-4.86,19.81,10.91,13.13,31.08-5.88,39.84-12.67C66.21,220.24,58.54,209.44,51,211.51Z"/><path class="cls-6" d="M326.74,60.37c-8.33-12.25-24.88-11.47-33.28-1.6l-.89-.38c-6.61-2.59-16.29-4.26-21.83,1.4s-4.25,14.72.94,19.95c5.77,5.81,13.51,4.86,20.5,2.42a8,8,0,0,0,4.36,1.26l15.13-.37c4.12-.1,9.09.38,12.84-1.76C332.26,76.87,331.09,66.78,326.74,60.37Z"/><path class="cls-6" d="M404.3,77.48c-7.06-1.48-12.52,8.11-7.79,13.93,1.45,3.26,4.77,5.69,8.2,5.52a123.46,123.46,0,0,0,19.62,8.74c5.42,1.88,10.52-3,10.71-8.16C435.69,80.7,417.77,70.76,404.3,77.48Z"/></g></g></svg>