<svg xmlns="http://www.w3.org/2000/svg" viewBox="0 0 628.84 599.9"><defs><style>.cls-1{fill:none;stroke:#4f4e4b;stroke-miterlimit:10;stroke-width:35px;}.cls-2{fill:#f753aa;}.cls-3{fill:#f5dddb;}.cls-4{fill:#fdadba;}.cls-5{fill:#4f4e4b;}.cls-6{fill:#f4eacb;}</style></defs><title>a1</title><g id="Layer_2" data-name="Layer 2"><g id="assets"><path class="cls-1" d="M593.19,329.4l-.28-.22a40.47,40.47,0,0,0-32-11.27c14-17.84,26.58-36.41,28.25-59.91,1.62-22.83-9.58-45.64-25.15-61.73a112.8,112.8,0,0,0-29.44-21.35c.54-1.65,1.08-3.3,1.66-4.94a32.23,32.23,0,0,0-4.61-4.37q7.43-29.54,12.26-59.62c1.68-10.59,3.26-21.07-3.68-30.21-5.92-7.78-15-13.52-23.55-18.07C498.5,48,478.16,41.71,458.44,36a476.37,476.37,0,0,0-63.06-13.67C314.18,10.5,230.89,20,156.25,54.89a359,359,0,0,0-104.67,74,8.8,8.8,0,0,0-1.87,10.16,19,19,0,0,0-.47,9.3c1.25,6.48,4.18,13,6.47,19.18,2.54,6.84,5.25,13.62,8.08,20.35a494.52,494.52,0,0,0,37.09,71.3,217.43,217.43,0,0,0-18.11,23.66,53.59,53.59,0,0,0-30.36,8.45c-29.86,19.5-38.6,57-33.58,90.42,4.61,30.7,22.86,58,47.94,75.87,13.13,9.34,29.81,16.16,46.14,14.59,27.92,43.75,73.56,77.63,122.85,95.14,83.93,29.81,181.49,15,251.47-40.21a182.81,182.81,0,0,0,35.18-36.56,115.8,115.8,0,0,0,29.5-10.41c24.77-12.61,43.26-35.06,52.55-61a112.06,112.06,0,0,0,6.14-33.78C613.31,365.1,608.86,343.13,593.19,329.4Z"/><path class="cls-2" d="M593.19,329.4l-.28-.22a40.47,40.47,0,0,0-32-11.27c14-17.84,26.58-36.41,28.25-59.91,1.62-22.83-9.58-45.64-25.15-61.73a112.8,112.8,0,0,0-29.44-21.35c.54-1.65,1.08-3.3,1.66-4.94a32.23,32.23,0,0,0-4.61-4.37q7.43-29.54,12.26-59.62c1.68-10.59,3.26-21.07-3.68-30.21-5.92-7.78-15-13.52-23.55-18.07C498.5,48,478.16,41.71,458.44,36a476.37,476.37,0,0,0-63.06-13.67C314.18,10.5,230.89,20,156.25,54.89a359,359,0,0,0-104.67,74,8.8,8.8,0,0,0-1.87,10.16,19,19,0,0,0-.47,9.3c1.25,6.48,4.18,13,6.47,19.18,2.54,6.84,5.25,13.62,8.08,20.35a494.52,494.52,0,0,0,37.09,71.3,217.43,217.43,0,0,0-18.11,23.66,53.59,53.59,0,0,0-30.36,8.45c-29.86,19.5-38.6,57-33.58,90.42,4.61,30.7,22.86,58,47.94,75.87,13.13,9.34,29.81,16.16,46.14,14.59,27.92,43.75,73.56,77.63,122.85,95.14,83.93,29.81,181.49,15,251.47-40.21a182.81,182.81,0,0,0,35.18-36.56,115.8,115.8,0,0,0,29.5-10.41c24.77-12.61,43.26-35.06,52.55-61a112.06,112.06,0,0,0,6.14-33.78C613.31,365.1,608.86,343.13,593.19,329.4Z"/><path class="cls-3" d="M593.19,329.4l-.28-.22c-10.58-10.35-25.47-13.76-40.62-9.81a71.21,71.21,0,0,0-8.52,2.78,217,217,0,0,0-27.27-54.22c-29.91-43-73.39-75.22-124.45-88.19a224.81,224.81,0,0,0-98-2.7,32.69,32.69,0,0,0-11.52-.2l-.13,0c-8.22-6.2-18.12-8.37-29.64-6.37-12,2.07-22.34,8.89-32.5,15.21-20.81,13-41,27.28-59.4,43.53-19.67,17.36-37.42,38-50.81,61-17.32-9.78-40.27-10.24-57.63,1.09-29.86,19.5-38.6,57-33.58,90.42,4.61,30.7,22.86,58,47.94,75.87,13.13,9.34,29.81,16.16,46.14,14.59,27.92,43.75,73.56,77.63,122.85,95.14,83.93,29.81,181.49,15,251.47-40.21a182.81,182.81,0,0,0,35.18-36.56,115.8,115.8,0,0,0,29.5-10.41c24.77-12.61,43.26-35.06,52.55-61a112.06,112.06,0,0,0,6.14-33.78C613.31,365.1,608.86,343.13,593.19,329.4Z"/><path class="cls-4" d="M379.91,463.11c-.54-11-17.77-11.12-17.22,0,.93,19.06-20.87,41.47-40.46,39.67-18.84-1.73-39.05-22.88-38.82-41.69.14-11.09-17.09-11.13-17.22,0-.35,28.23,27.89,57.13,56,58.95C350.81,521.84,381.31,491.47,379.91,463.11Z"/><path class="cls-5" d="M564,196.27c-9.75-10.07-21.57-17.71-34.21-23.72.1-.29.2-.59.28-.91q8.48-32.47,13.8-65.65c1.68-10.59,3.26-21.07-3.68-30.21-5.92-7.78-15-13.52-23.55-18.07C498.5,48,478.16,41.71,458.44,36a476.37,476.37,0,0,0-63.06-13.67C314.18,10.5,230.89,20,156.25,54.89a359,359,0,0,0-104.67,74,8.8,8.8,0,0,0-1.87,10.16,19,19,0,0,0-.47,9.3c1.25,6.48,4.18,13,6.47,19.18,2.54,6.84,5.25,13.62,8.08,20.35a494.52,494.52,0,0,0,37.09,71.3,215.23,215.23,0,0,0-21.46,28.87c-5.37,8.69-2.15,21.85,7,26.68,9.54,5,21,2.28,26.68-7,2.33-3.78,4.77-7.48,7.36-11.09.39-.55.8-1.1,1.2-1.65a386.79,386.79,0,0,1,221.6-95.46,340.11,340.11,0,0,1,77.39,14.28,280.62,280.62,0,0,1,53.59,31.4,265.84,265.84,0,0,1,37.81,34.37,270.65,270.65,0,0,1,25.75,37.77,23.29,23.29,0,0,1,3,9.59c6.07,1.06,13.27-.39,17.14-5.23,15.21-19,29.48-38.54,31.27-63.72C590.79,235.17,579.59,212.36,564,196.27Z"/><path class="cls-6" d="M531.2,186.43q2.17-8.3,5-16.45c-9.7-11.31-26.46-14.29-40.16-17.91-16.42-4.33-33-8-49.76-10.9-33.91-5.88-68.39-8.85-102.81-7.61-61.1,2.18-121.9,17.61-174.82,48.7a297,297,0,0,0-75,62.2,11.15,11.15,0,0,0-.84,1.11q4.82,7.4,9.41,14.95a8,8,0,0,0,4.86-2.63c35.66-41.55,83.35-71.07,135.24-87.9,58.85-19.08,122.11-21.73,183.11-13,18.07,2.58,36,6.09,53.72,10.4q13.29,3.21,26.42,7c6.64,1.93,13.07,3.92,17.61,9.41A8.54,8.54,0,0,0,531.2,186.43Z"/><path d="M266.61,354.13a5.63,5.63,0,0,0-7.74-2.8c-12.64,6.39-23.46-7.05-28.42-17a67.58,67.58,0,0,1-6.69-23.49,89.57,89.57,0,0,0,.54-18.14c-.42-5.72-9.86-8-10.8-1.46-.07.49-.12,1-.18,1.46h0a.22.22,0,0,0,0,.08,87.21,87.21,0,0,0-.52,16.93,73.92,73.92,0,0,1-7.85,24.69c-5.3,10-16.78,24-29.38,16-3.91-2.47-7.61.71-8.07,4.27-1.55,3.06,0,8.16,4.64,8.76,15.07,1.94,22.43,14.42,27,27.55,5.33,15.52,8.85,31.58,12.37,47.59,1.52,6.95,11.94,4,10.6-2.92a66.91,66.91,0,0,1,6.09-43.15,58.15,58.15,0,0,1,7.56-11.29,62.82,62.82,0,0,1,8.83-10.5,81.36,81.36,0,0,1,19.49-14C264.85,355.82,265.71,355,266.61,354.13Z"/><path d="M367.91,354.13a5.64,5.64,0,0,1,7.74-2.8c12.65,6.39,23.47-7.05,28.43-17a67.35,67.35,0,0,0,6.68-23.49,89.57,89.57,0,0,1-.54-18.14c.42-5.72,9.87-8,10.81-1.46.07.49.12,1,.18,1.46h0v.08a88.82,88.82,0,0,1,.52,16.93,73.68,73.68,0,0,0,7.84,24.69c5.31,10,16.78,24,29.38,16,3.91-2.47,7.62.71,8.07,4.27,1.56,3.06,0,8.16-4.64,8.76C447.33,365.4,440,377.88,435.45,391c-5.33,15.52-8.86,31.58-12.37,47.59-1.53,6.95-11.94,4-10.61-2.92a66.91,66.91,0,0,0-6.08-43.15,58.6,58.6,0,0,0-7.56-11.29,63.35,63.35,0,0,0-8.84-10.5,81.3,81.3,0,0,0-19.48-14C369.67,355.82,368.81,355,367.91,354.13Z"/><path class="cls-2" d="M361,430.25c-.92-20.59-16.7-38-38-38-19.88,0-38.92,17.48-38,38s16.7,38,38,38C342.87,468.25,361.91,450.77,361,430.25Z"/></g></g></svg>