<svg xmlns="http://www.w3.org/2000/svg" viewBox="0 0 628.84 723.06"><defs><style>.cls-1,.cls-6{fill:#f753aa;}.cls-1{stroke:#4f4e4b;stroke-width:35px;}.cls-1,.cls-3{stroke-miterlimit:10;}.cls-2{fill:#f5dddb;}.cls-3{fill:none;stroke:#fff;stroke-width:80px;}.cls-4{fill:#fdadba;}.cls-5{fill:#f4eacb;}</style></defs><title>a2</title><g id="Layer_2" data-name="Layer 2"><g id="assets"><path class="cls-1" d="M593.19,452.56l-.28-.23a40.41,40.41,0,0,0-3.82-3.28c3.84-11.56,2.43-24.92-6.74-33.82a29.12,29.12,0,0,0-5.15-4c6.19-6.68,10.64-14.73,11.39-24.16,1.29-16.23-10.73-30-26-34a38.74,38.74,0,0,0-4.15-.86,110.5,110.5,0,0,0-17.36-58.87A115.18,115.18,0,0,0,506.75,259a58.63,58.63,0,0,0-6.54-3.66c-8.53-10.12-19.47-18.65-31-25.74.16-.3.3-.6.46-.9,1.58-3.07,3.28-6.08,5-9,4-6.69,8.25-13.18,12.48-19.7l.89-1.4q12.15.24,24.23,1.62l2.48.29q-2.64-.37.45.06c2.2.34,4.4.67,6.59,1.05,4.39.76,8.75,1.65,13.1,2.62,8.33,1.88,16.68-1.85,20.06-9.84,3.47-8.23,0-16.24-7-21.23a146.56,146.56,0,0,0-37.82-19.3c.79-7.81-5.06-15.87-12.53-17.84-9.22-2.43-18.58-4.47-28-6q5-1.47,10.09-2.65,5.82-1.35,11.7-2.32l2.9-.45c2-.22,3.93-.43,5.91-.61,8.51-.79,15.5-5.88,16.69-14.74,1.16-8.59-4.05-16-12.17-18.66-31.45-10.43-66.3-8.5-96.72,4.34a131.9,131.9,0,0,0-13.6,6.7c1.92-2.19,3.87-4.35,5.89-6.46a227.26,227.26,0,0,1,19.38-18q2.3-1.89,4.62-3.72c.27-.19,3.36-2.54,3.72-2.8Q433.46,66.66,439,63c7.37-4.91,15-9.48,22.69-13.8,14.64-8.17,8.23-32-8.58-31.68-34.49.71-64.65,19.23-87.49,44.08a262,262,0,0,0-23.22,29.18c.51-2.68,1.06-5.45,1.65-8.34C347,68.18,350.38,54.06,353.88,40c4.17-16.85-15.9-27.88-28.41-16.54C305.35,41.64,293,65.17,287.21,90.52c-.74-1.46-1.48-2.92-2.23-4.36-3.17-6.06-6.61-12-9.77-18-1.27-2.43-3.57-7.13-4.07-8.38-.63-1.55-2.29-6.71-3-9.68C266,41.45,255.79,35.43,247.2,38.21,238.26,41.1,233,49.87,235.33,59.12c3.59,14.42,11.17,27.28,18.18,40.24l.29.55a217.26,217.26,0,0,0-60.18-25.32,204.63,204.63,0,0,0-59.14-6.07C124,69,114.44,79.06,118.09,90c7.13,21.47,28.16,25.8,48,28,.88.09,1.76.21,2.65.31h.1c1.93.34,3.86.61,5.78,1q6.5,1.17,12.88,2.78A198.14,198.14,0,0,1,211.91,130c.8.31,1.59.64,2.39,1l.3.13c1.79.8,3.57,1.59,5.34,2.43,1.05.49,2.08,1,3.12,1.54-20.63.16-41.25,3.63-61.24,8.9-8.47,2.23-14.87,12.28-11.88,20.91,5.35,15.46,13.52,29.39,22.37,43.06,4.22,6.52,8.51,13,12.48,19.7q2.37,4,4.55,8.14c-2,1.55-4,3.12-5.93,4.74a17.2,17.2,0,0,0-18.57-1.11c-20.33,11.05-37.67,29.08-47.12,50.28-4.79,10.74-8.26,22.75-8.7,34.53a75.07,75.07,0,0,0-6.93,3.38c-11.42,6.34-23.31,16.8-27.73,29.39-4,11.34.45,20.76,7.72,28.27q-3,1.45-5.91,3.07c-7.5,4.18-9.46,12.05-7.4,19.18a51.61,51.61,0,0,0-16.36,7c-29.86,19.5-38.6,57-33.58,90.42,4.61,30.71,22.86,58,47.94,75.87,13.13,9.34,29.81,16.16,46.14,14.59,27.92,43.75,73.56,77.63,122.85,95.15,83.93,29.81,181.49,15,251.47-40.22a182.5,182.5,0,0,0,35.18-36.55,116.2,116.2,0,0,0,29.5-10.42c24.77-12.6,43.26-35,52.55-61a112.11,112.11,0,0,0,6.14-33.78C613.31,488.26,608.86,466.28,593.19,452.56Z"/><path class="cls-2" d="M593.19,452.56l-.28-.23c-10.58-10.34-25.47-13.75-40.62-9.81a75,75,0,0,0-8.52,2.78,216.81,216.81,0,0,0-27.27-54.21c-29.91-43-73.39-75.23-124.45-88.2a224.81,224.81,0,0,0-98-2.69,32.46,32.46,0,0,0-11.52-.2l-.13,0c-8.22-6.2-18.12-8.36-29.64-6.37-12,2.08-22.34,8.89-32.5,15.22-20.81,13-41,27.27-59.4,43.52-19.67,17.37-37.42,38-50.81,61-17.32-9.77-40.27-10.24-57.63,1.09-29.86,19.5-38.6,57-33.58,90.42,4.61,30.71,22.86,58,47.94,75.87,13.13,9.34,29.81,16.16,46.14,14.59,27.92,43.75,73.56,77.63,122.85,95.14,83.93,29.82,181.49,15,251.47-40.21a182.5,182.5,0,0,0,35.18-36.55,116.2,116.2,0,0,0,29.5-10.42c24.77-12.6,43.26-35,52.55-61a112.11,112.11,0,0,0,6.14-33.78C613.31,488.26,608.86,466.28,593.19,452.56Z"/><path d="M243.1,492.06c0-11-5.41-21.33-18-24.71a28.72,28.72,0,0,0-11.21-.7,28.15,28.15,0,0,0-7.47,1.41,13.37,13.37,0,0,0-1.55,0,18.3,18.3,0,0,0-8,2.09c-.68.52-1.36,1-2,1.58l-.41.52c-.3.38-.62.75-.94,1.13-1.72,2.28-3.38,4.61-4.92,7-.15.47-.29.95-.41,1.44a31.57,31.57,0,0,0-4.44,25.56,28.79,28.79,0,0,0,3,7.22,25.2,25.2,0,0,0,10.35,11,22.39,22.39,0,0,0,12.51,5.69c19.14,2.6,34.32-15.6,34-33.73A32.91,32.91,0,0,0,243.1,492.06Z"/><path d="M395.27,497.06c0-11,5.41-21.33,18-24.71a28.78,28.78,0,0,1,11.22-.7,28.15,28.15,0,0,1,7.47,1.41,13.37,13.37,0,0,1,1.55,0,18.33,18.33,0,0,1,7.95,2.09c.68.52,1.35,1,2,1.58l.4.52.94,1.13c1.73,2.28,3.39,4.61,4.93,7,.15.47.29.95.41,1.44a31.57,31.57,0,0,1,4.44,25.56,28.79,28.79,0,0,1-3,7.22,25.16,25.16,0,0,1-10.36,11,22.33,22.33,0,0,1-12.5,5.69c-19.14,2.6-34.33-15.6-34-33.73A34,34,0,0,1,395.27,497.06Z"/><path class="cls-3" d="M379.91,586.27c-.54-11-17.77-11.13-17.22,0,.93,19.06-20.87,41.47-40.46,39.67-18.84-1.72-39.05-22.87-38.82-41.69.14-11.09-17.09-11.12-17.22,0-.35,28.23,27.89,57.14,56,58.95C350.81,645,381.31,614.62,379.91,586.27Z"/><path class="cls-4" d="M379.91,586.27c-.54-11-17.77-11.13-17.22,0,.93,19.06-20.87,41.47-40.46,39.67-18.84-1.72-39.05-22.87-38.82-41.69.14-11.09-17.09-11.12-17.22,0-.35,28.23,27.89,57.14,56,58.95C350.81,645,381.31,614.62,379.91,586.27Z"/><path class="cls-5" d="M150.53,80.12l-.24-.3a.56.56,0,0,0,0,.12Z"/><path class="cls-5" d="M582.35,415.23a29.12,29.12,0,0,0-5.15-4c6.19-6.68,10.64-14.73,11.39-24.16,1.29-16.23-10.73-30-26-34a38.74,38.74,0,0,0-4.15-.86,110.5,110.5,0,0,0-17.36-58.87A115.18,115.18,0,0,0,506.75,259a58.63,58.63,0,0,0-6.54-3.66c-14.74-17.5-36.69-30.27-56.34-39a243.25,243.25,0,0,0-24.65-9.42q10.47-2.81,21.13-4.76,2.88-.53,5.76-1c.46-.07,4.39-.62,4.69-.68q5.74-.72,11.52-1.18,12.49-1,25-.78t25,1.64l2.48.29q-2.64-.37.45.06c2.2.34,4.4.67,6.59,1.05,4.39.76,8.75,1.65,13.1,2.62,8.33,1.88,16.68-1.85,20.06-9.84,3.47-8.23,0-16.24-7-21.23-34-24.22-77.19-32.26-118.1-25.9q5.21-3.06,10.57-5.79c3.21-1.63,6.48-3.15,9.77-4.61l2.48-1c1.85-.74,3.71-1.44,5.58-2.12a188,188,0,0,1,21.43-6.33q5.82-1.35,11.7-2.32l2.9-.45c2-.22,3.93-.43,5.91-.61,8.51-.79,15.5-5.88,16.69-14.74,1.16-8.59-4.05-16-12.17-18.66-31.45-10.43-66.3-8.5-96.72,4.34a131.9,131.9,0,0,0-13.6,6.7c1.92-2.19,3.87-4.35,5.89-6.46a227.26,227.26,0,0,1,19.38-18q2.3-1.89,4.62-3.72c.27-.19,3.36-2.54,3.72-2.8Q433.46,66.66,439,63c7.37-4.91,15-9.48,22.69-13.8,14.64-8.17,8.23-32-8.58-31.68-34.49.71-64.65,19.23-87.49,44.08a262,262,0,0,0-23.22,29.18c.51-2.68,1.06-5.45,1.65-8.34C347,68.18,350.38,54.06,353.88,40c4.17-16.85-15.9-27.88-28.41-16.54C305.35,41.64,293,65.17,287.21,90.52c-.74-1.46-1.48-2.92-2.23-4.36-3.17-6.06-6.61-12-9.77-18-1.27-2.43-3.57-7.13-4.07-8.38-.63-1.55-2.29-6.71-3-9.68C266,41.45,255.79,35.43,247.2,38.21,238.26,41.1,233,49.87,235.33,59.12c3.59,14.42,11.17,27.28,18.18,40.24l.29.55a217.26,217.26,0,0,0-60.18-25.32,204.63,204.63,0,0,0-59.14-6.07C124,69,114.44,79.06,118.09,90c7.13,21.47,28.16,25.8,48,28,.88.09,1.76.21,2.65.31h.1c1.93.34,3.86.61,5.78,1q6.5,1.17,12.88,2.78A198.14,198.14,0,0,1,211.91,130c.8.31,1.59.64,2.39,1l.3.13c1.79.8,3.57,1.59,5.34,2.43q6,2.82,11.73,6c4.38,2.42,8.65,5,12.84,7.75-3-.62-6-1.15-9-1.57a23.32,23.32,0,0,0-10.8,1c-19-2.68-37.05-.85-54.86,6.74-8.21,3.5-10.64,16.21-6.1,23.26,5.5,8.54,14.47,9.85,23.26,6.1-2.57,1.1,2.38-.73,2.39-.73q2.46-.78,5-1.38c1.4-.33,2.81-.6,4.22-.86l.62-.1c.57-.06,1.14-.13,1.71-.17a86.59,86.59,0,0,1,9.53-.26c1.73.05,3.47.15,5.2.3l3,.34,2.78.48q2.64.51,5.26,1.14c3.48.83,6.92,1.82,10.33,2.94,2.84.92,5.65,1.94,8.43,3,0,0,3.24,1.32,3.25,1.3,1.43.62,2.86,1.26,4.27,1.9,5.64,2.56,11.26,5.25,16.76,8.16a177.25,177.25,0,0,0-44.43,14.46,201.26,201.26,0,0,0-41.93,27.2,17.2,17.2,0,0,0-18.57-1.11c-20.33,11.05-37.67,29.08-47.12,50.28-4.79,10.74-8.26,22.75-8.7,34.53a75.07,75.07,0,0,0-6.93,3.38c-11.42,6.34-23.31,16.8-27.73,29.39-4,11.34.45,20.76,7.72,28.27q-3,1.45-5.91,3.07C65.84,394.06,66,406.82,72.73,415c.92,1.13,1.87,2.23,2.83,3.33a20.24,20.24,0,0,0,8,11.66c1.24.86,2.53,1.67,3.83,2.45-3.21,8.46-3,18.07,2.24,26a34.7,34.7,0,0,0,30.72,15c14-.79,24.91-9.31,35-18.19,9.62-8.51,4.46-23.1-5.85-27.76,0-.22,0-.44,0-.65,15.59-5.32,28.93-15.79,33.42-33a38.59,38.59,0,0,0,.37-17.46,30.33,30.33,0,0,0,5.92-1c10.7-3,17.46-11.56,19.5-21.53a52.4,52.4,0,0,0,19,15.68,26.2,26.2,0,0,0,2.82,1.24,48.58,48.58,0,0,0,25,3.12c15.12-2,29.86-10.9,36.84-24.85.17-.33.31-.67.47-1a34.14,34.14,0,0,0,10.9,1.74h.17l.62.35a45.94,45.94,0,0,0,.72,14.31c2.86,13.57,13.83,25.4,27.6,28.13,14.4,2.85,29.72-2.5,39.74-13.14a49.72,49.72,0,0,0,9.86-3.65,23.37,23.37,0,0,0,12,7.18c7.35,1.84,15.91.5,23.14-1a70.53,70.53,0,0,0,22.19-9c.95-.59,1.9-1.2,2.83-1.84A43,43,0,0,0,464,382.71a18.63,18.63,0,0,0,5.69,11.62,24.46,24.46,0,0,0,6,4.28,21.55,21.55,0,0,0-1.55,3.52,24,24,0,0,0,3,21.16,26.37,26.37,0,0,0,12.46,9.83,25,25,0,0,0-1.52,3.77,23,23,0,0,0,7.1,24.07,13.06,13.06,0,0,0,.52,2.44,18.24,18.24,0,0,0,3.05,5.76,22.43,22.43,0,0,0-2.87,10c-.43,9.6,7.5,18,16.49,20a31.91,31.91,0,0,0,9.47.65,26.22,26.22,0,0,0,10.38,6c8.57,2.59,17.1-.09,23.67-5.75,3.15-2.72,5-8,5-12a18,18,0,0,0-2.1-8.17c12-5.44,22.52-14.19,28.22-25.62C593.19,441.74,592.94,425.51,582.35,415.23ZM341.28,359.34l-.44.11-.69-.19c.47-.22,1.3-.42,1.59,0Z"/><path class="cls-6" d="M497.7,135.94c-31.95-8.42-65.51-12.25-98.12-5.33-23.05,4.9-45.7,15.92-62.78,32.46a21.92,21.92,0,0,0-14-4.29q-3.34-6.36-7.09-12.51a14.26,14.26,0,0,0-19.15-5,14,14,0,0,0-6.13,7.67,138.22,138.22,0,0,0-30.47-10.31c-32.61-6.92-66.18-3.09-98.12,5.33-8.47,2.23-14.87,12.28-11.88,20.91,5.35,15.46,13.52,29.39,22.37,43.06,4.22,6.52,8.51,13,12.48,19.7,1.75,3,3.45,6,5,9,.89,1.73,1.76,3.48,2.57,5.25.29.63.57,1.26.84,1.88.07.19.16.42.27.75a98.06,98.06,0,0,1,3.23,10.33c.4,1.65.72,3.3,1,5v.05c.09,1.09.17,2.19.27,3.29,1.11,12.06,7.68,25.55,21.82,25.45,10.78-.08,20.08-9.33,28.44-15.25L272.78,256l45.15-32a16.22,16.22,0,0,0,2.82,1.25,21.7,21.7,0,0,1,6,3.32c4.46,3.2,11.56,2.09,15.55-1.09a14.22,14.22,0,0,0,5-7.48l39.5,28,24.48,17.34c8.35,5.92,17.65,15.17,28.44,15.25,14.13.1,20.7-13.39,21.81-25.45.1-1.1.19-2.2.28-3.29v0c.3-1.67.62-3.32,1-5A98.06,98.06,0,0,1,466,236.54l.27-.75c.28-.62.55-1.25.84-1.88q1.23-2.66,2.58-5.25c1.58-3.07,3.28-6.08,5-9,4-6.69,8.25-13.18,12.48-19.7,8.84-13.67,17-27.6,22.36-43.06C512.56,148.22,506.16,138.17,497.7,135.94Z"/><path class="cls-6" d="M361,551.4c-.92-20.59-16.7-38-38-38-19.88,0-38.92,17.48-38,38s16.7,38,38,38C342.87,589.4,361.91,571.92,361,551.4Z"/><path class="cls-6" d="M504.8,348a7.15,7.15,0,0,0-2,3.35c-1,.56-2,1.08-2.8,1.58q-4,2.47-7.88,5-7.81,5.08-15.45,10.47c-10.21,7.21-20.15,14.82-29.83,22.73-8,6.52,3.41,17.78,11.32,11.31a476.63,476.63,0,0,1,42-30.69q5.48-3.57,11.05-7c3.34-2.05,7.29-4.09,8.42-8.19C522.2,347.44,511.52,341.82,504.8,348Z"/><path class="cls-6" d="M520.44,377.3a436.31,436.31,0,0,0-58.69,37.21c-3.45,2.59-5.23,6.91-2.87,10.94,2,3.4,7.47,5.48,10.94,2.87a435.25,435.25,0,0,1,58.69-37.2C537.63,386.32,529.55,372.5,520.44,377.3Z"/><path class="cls-6" d="M202.56,392.77q-23.55-23.1-45.33-47.89c-6.81-7.75-18.09,3.6-11.32,11.31q21.78,24.8,45.34,47.9C198.61,411.3,209.93,400,202.56,392.77Z"/><path class="cls-6" d="M183,413.69a499,499,0,0,0-45-52.41c-7.25-7.33-18.57,4-11.31,11.31a470,470,0,0,1,42.48,49.18c2.59,3.45,6.92,5.22,11,2.87C183.56,422.64,185.62,417.17,183,413.69Z"/></g></g></svg>