<svg xmlns="http://www.w3.org/2000/svg" viewBox="0 0 650.33 706.05"><defs><style>.cls-1{fill:none;stroke:#4f4e4b;stroke-miterlimit:10;stroke-width:35px;}.cls-2{fill:#f753aa;}.cls-3{fill:#f5dddb;}.cls-4{fill:#fff;}.cls-5{fill:#fdadba;}.cls-6{fill:#55cec5;}</style></defs><title>a3</title><g id="Layer_2" data-name="Layer 2"><g id="assets"><path class="cls-1" d="M627.09,259.22c-7.76-7.13-20.65-8.17-28.28,0a91.83,91.83,0,0,1-8.28,7.87c-.22.19-.48.45-.75.7a3.76,3.76,0,0,0-.58.32c-1.69,1.1-3.31,2.28-5,3.34a107.65,107.65,0,0,1-9.93,5.47c-1,.47-2,1-3,1.47l-1.34.51-2.87,1.1c-13.48,5-27.59,8.11-41.74,10.58a29.85,29.85,0,0,0,3.13-6.48c2.41-7.07,1.89-14.66,1.74-22L529.8,241c-.2-10-.44-20.77-8.44-28.08a26.82,26.82,0,0,0-7-4.66q-.95-55.08,3.06-110.11,2.25-30.48,6-60.84c.75-6-3.4-12.24-7.88-15.7-5.33-4.12-10.93-4.74-17.44-3.58-52,9.25-104,18.49-156.31,26.2q-9.25,1.37-18.51,2.67l-9.75,1.34c-4.06.55-1.4.19-.53.07l-6.83.9q-19.49,2.53-39,4.68c-26.35,2.88-52.77,5.17-79.24,6.67-29.41,1.67-58.87,2.33-88.32,1.8a20.07,20.07,0,0,0-17.27,9.91c-3.91,6.69-3,13.46,0,20.19q1.52,3.38,3,6.78c.2.47,1.8,4.19,2.06,4.78q2.64,6.31,5.16,12.69,5.45,13.79,10.29,27.81,9.69,28,17,56.81,2.44,9.7,4.6,19.48c-8.88,5.82-12.83,17.76-7,27.28.08.13.8,1.41,1.32,2.35-.33-.89-.53-1.75.18.33a7.33,7.33,0,0,1,.35.68s-.12-.08-.2-.23c0,.09.06.16.09.26.7,2.09,1.25,4.23,1.76,6.37,1.22,5.11,2.08,10.32,3.68,15.33a53.61,53.61,0,0,0,7.12,14.56c-1.56-.48-3.11-1-4.66-1.48q-14.16-4.62-28-10.16l-3.35-1.36-2.48-1.05c-1.74-.76-3.47-1.51-5.2-2.28q-7.42-3.34-14.72-7c-9.37-4.64-22.08-2.82-27.37,7.18C41,280.64,43,294,53,299q9.81,4.86,19.83,9.22c-2.69,1.63-5.29,3.38-7.77,5.23-13.71,10.26-26.58,25.29-24.77,43.67,1,10.38,8.47,20.52,20,20a20.09,20.09,0,0,0,3-.36A45.05,45.05,0,0,0,59.81,384a36.24,36.24,0,0,0-2.06,10.45,48.73,48.73,0,0,0-5.34,3c-29.86,19.5-38.6,57-33.58,90.41,4.61,30.71,22.86,58,47.94,75.87,13.13,9.34,29.81,16.17,46.14,14.6,27.92,43.75,73.56,77.63,122.85,95.14,83.93,29.81,181.49,15,251.47-40.22a182.5,182.5,0,0,0,35.18-36.55,115.82,115.82,0,0,0,29.5-10.42c24.77-12.6,43.26-35,52.55-61a112.06,112.06,0,0,0,6.14-33.78c2.71-20.23-1.74-42.21-17.41-55.93l-.28-.23a39.47,39.47,0,0,0-12.33-8.19,25.45,25.45,0,0,0,3-6.07c9.94-9.1,12.69-24.56,8.15-37.1a45.05,45.05,0,0,0-3.42-7.23,20.06,20.06,0,0,0,3,.36c11.53.52,19-9.62,20-20,1.74-17.77-10.23-32.41-23.42-42.63,14.57-6.36,28-14.95,39.22-27C634.24,279.86,635.24,266.69,627.09,259.22Z"/><path class="cls-2" d="M627.09,259.22c-7.76-7.13-20.65-8.17-28.28,0a91.83,91.83,0,0,1-8.28,7.87c-.22.19-.48.45-.75.7a3.76,3.76,0,0,0-.58.32c-1.69,1.1-3.31,2.28-5,3.34a107.65,107.65,0,0,1-9.93,5.47c-1,.47-2,1-3,1.47l-1.34.51-2.87,1.1c-13.48,5-27.59,8.11-41.74,10.58a29.85,29.85,0,0,0,3.13-6.48c2.41-7.07,1.89-14.66,1.74-22L529.8,241c-.2-10-.44-20.77-8.44-28.08a26.82,26.82,0,0,0-7-4.66q-.95-55.08,3.06-110.11,2.25-30.48,6-60.84c.75-6-3.4-12.24-7.88-15.7-5.33-4.12-10.93-4.74-17.44-3.58-52,9.25-104,18.49-156.31,26.2q-9.25,1.37-18.51,2.67l-9.75,1.34c-4.06.55-1.4.19-.53.07l-6.83.9q-19.49,2.53-39,4.68c-26.35,2.88-52.77,5.17-79.24,6.67-29.41,1.67-58.87,2.33-88.32,1.8a20.07,20.07,0,0,0-17.27,9.91c-3.91,6.69-3,13.46,0,20.19q1.52,3.38,3,6.78c.2.47,1.8,4.19,2.06,4.78q2.64,6.31,5.16,12.69,5.45,13.79,10.29,27.81,9.69,28,17,56.81,2.44,9.7,4.6,19.48c-8.88,5.82-12.83,17.76-7,27.28.08.13.8,1.41,1.32,2.35-.33-.89-.53-1.75.18.33a7.33,7.33,0,0,1,.35.68s-.12-.08-.2-.23c0,.09.06.16.09.26.7,2.09,1.25,4.23,1.76,6.37,1.22,5.11,2.08,10.32,3.68,15.33a53.61,53.61,0,0,0,7.12,14.56c-1.56-.48-3.11-1-4.66-1.48q-14.16-4.62-28-10.16l-3.35-1.36-2.48-1.05c-1.74-.76-3.47-1.51-5.2-2.28q-7.42-3.34-14.72-7c-9.37-4.64-22.08-2.82-27.37,7.18C41,280.64,43,294,53,299q9.81,4.86,19.83,9.22c-2.69,1.63-5.29,3.38-7.77,5.23-13.71,10.26-26.58,25.29-24.77,43.67,1,10.38,8.47,20.52,20,20a20.09,20.09,0,0,0,3-.36A45.05,45.05,0,0,0,59.81,384a36.24,36.24,0,0,0-2.06,10.45,48.73,48.73,0,0,0-5.34,3c-29.86,19.5-38.6,57-33.58,90.41,4.61,30.71,22.86,58,47.94,75.87,13.13,9.34,29.81,16.17,46.14,14.6,27.92,43.75,73.56,77.63,122.85,95.14,83.93,29.81,181.49,15,251.47-40.22a182.5,182.5,0,0,0,35.18-36.55,115.82,115.82,0,0,0,29.5-10.42c24.77-12.6,43.26-35,52.55-61a112.06,112.06,0,0,0,6.14-33.78c2.71-20.23-1.74-42.21-17.41-55.93l-.28-.23a39.47,39.47,0,0,0-12.33-8.19,25.45,25.45,0,0,0,3-6.07c9.94-9.1,12.69-24.56,8.15-37.1a45.05,45.05,0,0,0-3.42-7.23,20.06,20.06,0,0,0,3,.36c11.53.52,19-9.62,20-20,1.74-17.77-10.23-32.41-23.42-42.63,14.57-6.36,28-14.95,39.22-27C634.24,279.86,635.24,266.69,627.09,259.22Z"/><path class="cls-1" d="M118.61,250.43a7.05,7.05,0,0,0,.33.78c0-.15-.11-.32-.15-.45S118.67,250.55,118.61,250.43Z"/><path class="cls-2" d="M118.61,250.43a7.05,7.05,0,0,0,.33.78c0-.15-.11-.32-.15-.45S118.67,250.55,118.61,250.43Z"/><path class="cls-3" d="M593.19,435.55l-.28-.23c-10.58-10.34-25.47-13.75-40.62-9.8a73,73,0,0,0-8.52,2.77,216.81,216.81,0,0,0-27.27-54.21c-29.91-43-73.39-75.22-124.45-88.2a225,225,0,0,0-98-2.69,32.69,32.69,0,0,0-11.52-.2l-.13,0c-8.22-6.19-18.12-8.36-29.64-6.36-12,2.07-22.34,8.88-32.5,15.21-20.81,13-41,27.27-59.4,43.53-19.67,17.36-37.42,38-50.81,61-17.32-9.78-40.27-10.24-57.63,1.09-29.86,19.5-38.6,57-33.58,90.41,4.61,30.71,22.86,58,47.94,75.87,13.13,9.34,29.81,16.17,46.14,14.6,27.92,43.75,73.56,77.63,122.85,95.14,83.93,29.81,181.49,15,251.47-40.22a182.5,182.5,0,0,0,35.18-36.55,115.82,115.82,0,0,0,29.5-10.42c24.77-12.6,43.26-35,52.55-61a112.06,112.06,0,0,0,6.14-33.78C613.31,471.25,608.86,449.27,593.19,435.55Z"/><path class="cls-4" d="M280.11,479.24a37.72,37.72,0,0,0-4.17-8.61c-4.9-7.89-9.86-15.74-14.8-23.61q-14.79-23.62-29.59-47.23c-3.58-5.71-10.78-4.22-13.75-.05a8.16,8.16,0,0,0-2.42,1.73,534.7,534.7,0,0,0-63,79.25,7.33,7.33,0,0,0-1.29,4.78c-1.43,5.25,1.37,9.4,4.91,13.15a373.84,373.84,0,0,0,62.83,69.8,10.19,10.19,0,0,0,1.9,1.3c1.68,5.43,10.58,8.37,15,2.06A861.26,861.26,0,0,0,285.57,491C288.53,485.55,284.7,480.45,280.11,479.24Zm-32.43-4.82c-.12.16-.23.32-.35.47,0-.22-.06-.44-.09-.66s0-.36,0-.54Z"/><path class="cls-4" d="M495.23,485.5a7.37,7.37,0,0,0-1.28-4.78,535.42,535.42,0,0,0-63-79.25,8.16,8.16,0,0,0-2.42-1.73c-3-4.17-10.16-5.66-13.74.05Q399.95,423.4,385.15,447c-4.93,7.87-9.9,15.72-14.8,23.61a37.68,37.68,0,0,0-4.16,8.61c-4.6,1.21-8.43,6.31-5.47,11.76a863.36,863.36,0,0,0,49.9,80.81c4.39,6.31,13.29,3.37,15-2.06a10.19,10.19,0,0,0,1.9-1.3,374.24,374.24,0,0,0,62.84-69.8C493.86,494.9,496.66,490.75,495.23,485.5Z"/><path d="M243.1,475.05c0-11-5.41-21.33-18-24.71a28.53,28.53,0,0,0-11.21-.69,27.37,27.37,0,0,0-7.47,1.41,13.37,13.37,0,0,0-1.55,0,18,18,0,0,0-9.25,2.86,12.67,12.67,0,0,1-7.4-7.39c-2.43-6.11-12.44-3.46-10,2.73A25.37,25.37,0,0,0,189.1,462a20.48,20.48,0,0,0-.92,2.84,31.58,31.58,0,0,0-4.44,25.56,28.79,28.79,0,0,0,3,7.22,25.14,25.14,0,0,0,10.35,11,22.39,22.39,0,0,0,12.51,5.69c19.14,2.61,34.32-15.6,34-33.73A33,33,0,0,0,243.1,475.05Z"/><path d="M395.41,480.46c0-11,5.47-21.32,18.11-24.66a28.77,28.77,0,0,1,11.22-.66,27.88,27.88,0,0,1,7.47,1.43,13.19,13.19,0,0,1,1.54,0,18,18,0,0,1,9.25,2.88,12.69,12.69,0,0,0,7.42-7.37c2.45-6.1,12.44-3.42,10,2.76a25.37,25.37,0,0,1-10.93,12.71,20.16,20.16,0,0,1,.91,2.85A31.54,31.54,0,0,1,454.72,496a28.9,28.9,0,0,1-3,7.21A25.21,25.21,0,0,1,441.3,514.1a22.39,22.39,0,0,1-12.52,5.65c-19.15,2.54-34.28-15.71-33.94-33.84A32.8,32.8,0,0,1,395.41,480.46Z"/><path class="cls-5" d="M379.91,569.26c-.54-11-17.77-11.13-17.22,0,.93,19.07-20.87,41.47-40.46,39.68-18.84-1.73-39.05-22.88-38.82-41.7.14-11.09-17.09-11.12-17.22,0-.35,28.23,27.89,57.13,56,58.95C350.81,628,381.31,597.61,379.91,569.26Z"/><path class="cls-2" d="M157.07,307.15c-12.51-15.35-31.52-16.66-49.63-12.74a111.14,111.14,0,0,0-42.4,19c-13.71,10.26-26.58,25.29-24.77,43.67,1,10.38,8.47,20.52,20,20a20.09,20.09,0,0,0,3-.36A45.05,45.05,0,0,0,59.81,384C55.27,396.5,58,412,68,421.06a25.14,25.14,0,0,0,5.41,9.08,27.82,27.82,0,0,0-4.66,11.61c-1,7.19.37,13.73,4.51,18.5-4.36,6.49-6.08,15-1.51,22.05a20.9,20.9,0,0,0,6,6.17c-.93,6.21.81,12.94,5.49,17.24a22.4,22.4,0,0,0,3.42,2.58A24.26,24.26,0,0,0,100.66,527l1.86,3.07a20.55,20.55,0,0,0,22.58,9.19c12.57-2.93,20.76-14.64,21.51-27.1a29.07,29.07,0,0,0-6.33-19.74,30.62,30.62,0,0,0-2.81-9.93c5.89-9,10.28-19.84,6.55-29.79a31.39,31.39,0,0,0,1.76-12.46c.26-.3.53-.58.78-.89,9.1-11.05,13.77-24.77,10.32-39a42.12,42.12,0,0,0-3.29-8.92,40.8,40.8,0,0,0-.25-5.53,56.49,56.49,0,0,0,3.84-10.76c6.95-3.11,11.44-9.81,12-18.13C170.26,339.08,168.81,321.56,157.07,307.15Z"/><path class="cls-2" d="M494.48,307.15C507,291.8,526,290.49,544.11,294.41a111.14,111.14,0,0,1,42.4,19c13.71,10.26,26.58,25.29,24.78,43.67-1,10.38-8.47,20.52-20,20a20.06,20.06,0,0,1-3-.36,45.05,45.05,0,0,1,3.42,7.23c4.54,12.54,1.79,28-8.15,37.1a25,25,0,0,1-5.41,9.08,27.69,27.69,0,0,1,4.66,11.61c1,7.19-.37,13.73-4.51,18.5,4.36,6.49,6.08,15,1.51,22.05a20.9,20.9,0,0,1-6,6.17c.93,6.21-.81,12.94-5.49,17.24a22.4,22.4,0,0,1-3.42,2.58A24.24,24.24,0,0,1,550.89,527L549,530.08a20.57,20.57,0,0,1-22.59,9.19c-12.57-2.93-20.76-14.64-21.51-27.1a29.07,29.07,0,0,1,6.33-19.74,30.62,30.62,0,0,1,2.81-9.93c-5.89-9-10.28-19.84-6.55-29.79a31.39,31.39,0,0,1-1.76-12.46c-.25-.3-.53-.58-.78-.89-9.1-11.05-13.76-24.77-10.32-39A42.12,42.12,0,0,1,498,391.4a40.8,40.8,0,0,1,.25-5.53,56.49,56.49,0,0,1-3.84-10.76c-6.95-3.11-11.44-9.81-12-18.13C481.29,339.08,482.74,321.56,494.48,307.15Z"/><path class="cls-6" d="M627.09,259.22c-7.76-7.13-20.65-8.17-28.28,0a91.83,91.83,0,0,1-8.28,7.87c-.22.19-.48.45-.75.7a3.76,3.76,0,0,0-.58.32c-1.69,1.1-3.31,2.28-5,3.34a107.65,107.65,0,0,1-9.93,5.47c-1,.47-2,1-3,1.47l-1.34.51-2.87,1.1c-14.9,5.54-30.56,8.75-46.2,11.34l-2.28.36a1223.89,1223.89,0,0,1-1.22-193.56q2.25-30.48,6-60.84c.75-6-3.4-12.24-7.88-15.7-5.33-4.12-10.93-4.74-17.44-3.58-52,9.25-104,18.49-156.31,26.2q-9.25,1.37-18.51,2.67l-9.75,1.34c-4.06.55-1.4.19-.53.07l-6.83.9q-19.49,2.53-39,4.68c-26.35,2.88-52.77,5.17-79.24,6.67-29.41,1.67-58.87,2.33-88.32,1.8a20.07,20.07,0,0,0-17.27,9.91c-3.91,6.69-3,13.46,0,20.19q1.52,3.38,3,6.78c.2.47,1.8,4.19,2.06,4.78q2.64,6.31,5.16,12.69,5.45,13.79,10.29,27.81,9.69,28,17,56.81t12,58.05c.8,4.88,1.51,9.77,2.22,14.66.1.66.16,1.12.2,1.43.11.81.21,1.62.32,2.43q.47,3.69.89,7.36c.15,1.26.28,2.52.42,3.77-3-.9-5.92-1.81-8.86-2.77q-14.16-4.62-28-10.16l-3.35-1.36-2.48-1.05c-1.74-.76-3.47-1.51-5.2-2.28q-7.42-3.34-14.72-7c-9.37-4.64-22.08-2.82-27.37,7.18C41,280.64,43,294,53,299c69.82,34.56,147.11,49.79,224.6,52.58,74.29,2.68,148.5-5.88,221.93-16.74.42,0,.84,0,1.26,0a21,21,0,0,0,5.36-1q8.48-1.26,16.93-2.57c37.46-5.75,77.13-14.95,104-43.75C634.24,279.86,635.24,266.69,627.09,259.22Z"/><path class="cls-2" d="M530.21,262.09,529.8,241c-.2-10-.44-20.77-8.44-28.08-6.73-6.16-15-7.77-23.82-7.53l-23.91.72-43.83,1.32-89.65,2.7-199.22,6a21.15,21.15,0,0,0-8,1.86,17.48,17.48,0,0,0-8.47,2.73c-9,5.79-13,17.8-7.17,27.37.08.13.8,1.41,1.32,2.35-.33-.89-.53-1.75.18.33a7.33,7.33,0,0,1,.35.68s-.12-.08-.2-.23c0,.09.06.16.09.26.7,2.09,1.25,4.23,1.76,6.37,1.22,5.11,2.08,10.32,3.68,15.33,4.73,14.74,14.21,25.94,29.27,30.74,7.24,2.31,15.25,2.54,22.77,3.22q10.86,1,21.75,1.76,22.25,1.59,44.54,2.4c59.19,2.18,118.44.63,177.58-2q21.83-1,43.65-2.11l20.82-1.08c7.42-.39,15.29-.32,22.48-2.36a30.94,30.94,0,0,0,21.14-19.63C530.88,277,530.36,269.44,530.21,262.09ZM164,264.63l-.13-.23a14.39,14.39,0,0,0-.62-1.73A2.21,2.21,0,0,1,164,264.63Z"/><path class="cls-2" d="M118.61,250.43a7.05,7.05,0,0,0,.33.78c0-.15-.11-.32-.15-.45S118.67,250.55,118.61,250.43Z"/><path class="cls-2" d="M361,539.39c-.92-20.58-16.7-38-38-38-19.88,0-38.92,17.48-38,38s16.7,38,38,38C342.87,577.39,361.91,559.92,361,539.39Z"/></g></g></svg>