<svg xmlns="http://www.w3.org/2000/svg" viewBox="0 0 628.84 694.96"><defs><style>.cls-1,.cls-8{fill:#fff;}.cls-1{stroke:#4f4e4b;stroke-width:35px;}.cls-1,.cls-3,.cls-5{stroke-miterlimit:10;}.cls-2{fill:#f5dddb;}.cls-3,.cls-5{fill:none;stroke:#fff;}.cls-3{stroke-width:30px;}.cls-4{fill:#fdadba;}.cls-5{stroke-width:80px;}.cls-6{fill:#55cec5;}.cls-7{fill:#f753aa;}</style></defs><title>a4</title><g id="Layer_2" data-name="Layer 2"><g id="assets"><path class="cls-1" d="M593.19,424.46l-.28-.23a40,40,0,0,0-27.44-11.37,51.39,51.39,0,0,0,14.47-38c8.9-15.06,17.6-30.95,20.39-48.33,2.62-16.29.78-31.82-6.72-45.77,6.69-16.34,12.07-34.35,5.57-51.44-4.62-12.16-13.66-22-25-26.46.93-31.22-22.86-61.7-53.45-68.35-6.23-25-25.62-46.54-51.23-52.95-19.5-4.88-40.13-.68-56.57,10.08-7.86-19.81-24.86-36.49-45.73-41.32a64.11,64.11,0,0,0-40.34,3.87,51,51,0,0,0-10,5.83c-21.64-10.32-49.38-9.16-68.62,5-6.47,4.76-12.43,12.36-18.17,16.59l-1.44-.32a29.35,29.35,0,0,0-17.37-5.78c-10-.1-19.5,3.88-27.91,9.25A34.14,34.14,0,0,0,187,73.65q.32-6.2.64-12.4a45.79,45.79,0,0,0-8.31-22.4l-8.22-9a49.69,49.69,0,0,0-22.73-10.83l-2.75-.53a37.71,37.71,0,0,0-19,.37,36.54,36.54,0,0,0-17.07,6.44A34.49,34.49,0,0,0,96.87,38.08a33.58,33.58,0,0,0-7.46,16.7q-.33,6.21-.65,12.4a45.87,45.87,0,0,0,8.32,22.4l8.22,9a49.45,49.45,0,0,0,19.46,10.08c-.34,6.78-.52,13.58-.58,20.38,0,1.26,0,2.53,0,3.8-11.56,6.15-20.72,16.43-23.83,29.87A45.46,45.46,0,0,0,103.89,193c-12,11.16-22.06,24.38-28.51,39.71-9.42,22.42-10.25,49.44.39,71.54-16,17.17-23.38,41.64-17.25,65a65.29,65.29,0,0,0,4.4,11.87,51,51,0,0,0-10.51,5.22c-29.86,19.51-38.6,57-33.58,90.42,4.61,30.71,22.86,58,47.94,75.87,13.13,9.34,29.81,16.17,46.14,14.6,27.92,43.75,73.56,77.62,122.85,95.14,83.93,29.81,181.49,15,251.47-40.22a182.5,182.5,0,0,0,35.18-36.55,115.82,115.82,0,0,0,29.5-10.42c24.77-12.6,43.26-35,52.55-61a112.06,112.06,0,0,0,6.14-33.78C613.31,460.16,608.86,438.18,593.19,424.46Z"/><path class="cls-2" d="M593.19,424.46l-.28-.23c-10.58-10.34-25.47-13.75-40.62-9.81a75,75,0,0,0-8.52,2.78A216.81,216.81,0,0,0,516.5,363c-29.91-43-73.39-75.22-124.45-88.2a225,225,0,0,0-98-2.69,32.46,32.46,0,0,0-11.52-.2l-.13,0c-8.22-6.2-18.12-8.36-29.64-6.37-12,2.08-22.34,8.89-32.5,15.22-20.81,13-41,27.27-59.4,43.52-19.67,17.37-37.42,38-50.81,61-17.32-9.78-40.27-10.25-57.63,1.08-29.86,19.51-38.6,57-33.58,90.42,4.61,30.71,22.86,58,47.94,75.87,13.13,9.34,29.81,16.17,46.14,14.6,27.92,43.75,73.56,77.62,122.85,95.14,83.93,29.81,181.49,15,251.47-40.22a182.5,182.5,0,0,0,35.18-36.55,115.82,115.82,0,0,0,29.5-10.42c24.77-12.6,43.26-35,52.55-61a112.06,112.06,0,0,0,6.14-33.78C613.31,460.16,608.86,438.18,593.19,424.46Z"/><path class="cls-3" d="M243.1,464c0-11-5.41-21.33-18-24.71a28.72,28.72,0,0,0-11.21-.7,28.15,28.15,0,0,0-7.47,1.41,13.37,13.37,0,0,0-1.55,0,18.06,18.06,0,0,0-9.25,2.85,12.63,12.63,0,0,1-7.4-7.38c-2.43-6.11-12.44-3.46-10,2.73a25.37,25.37,0,0,0,10.89,12.74,20.48,20.48,0,0,0-.92,2.84,31.58,31.58,0,0,0-4.44,25.56,28.79,28.79,0,0,0,3,7.22,25.2,25.2,0,0,0,10.35,11,22.39,22.39,0,0,0,12.51,5.69c19.14,2.6,34.32-15.6,34-33.73A32.91,32.91,0,0,0,243.1,464Z"/><path d="M243.1,464c0-11-5.41-21.33-18-24.71a28.72,28.72,0,0,0-11.21-.7,28.15,28.15,0,0,0-7.47,1.41,13.37,13.37,0,0,0-1.55,0,18.06,18.06,0,0,0-9.25,2.85,12.63,12.63,0,0,1-7.4-7.38c-2.43-6.11-12.44-3.46-10,2.73a25.37,25.37,0,0,0,10.89,12.74,20.48,20.48,0,0,0-.92,2.84,31.58,31.58,0,0,0-4.44,25.56,28.79,28.79,0,0,0,3,7.22,25.2,25.2,0,0,0,10.35,11,22.39,22.39,0,0,0,12.51,5.69c19.14,2.6,34.32-15.6,34-33.73A32.91,32.91,0,0,0,243.1,464Z"/><path class="cls-3" d="M406.41,469.36c0-11,5.47-21.31,18.11-24.65a28.77,28.77,0,0,1,11.22-.66,27.88,27.88,0,0,1,7.47,1.43,13.19,13.19,0,0,1,1.54,0,18,18,0,0,1,9.25,2.89,12.69,12.69,0,0,0,7.42-7.37c2.45-6.1,12.44-3.42,10,2.76a25.37,25.37,0,0,1-10.93,12.71,20.16,20.16,0,0,1,.91,2.85,31.54,31.54,0,0,1,4.36,25.57,28.9,28.9,0,0,1-3,7.21A25.21,25.21,0,0,1,452.3,503a22.39,22.39,0,0,1-12.52,5.65c-19.15,2.54-34.28-15.71-33.94-33.84A33,33,0,0,1,406.41,469.36Z"/><path d="M406.41,469.36c0-11,5.47-21.31,18.11-24.65a28.77,28.77,0,0,1,11.22-.66,27.88,27.88,0,0,1,7.47,1.43,13.19,13.19,0,0,1,1.54,0,18,18,0,0,1,9.25,2.89,12.69,12.69,0,0,0,7.42-7.37c2.45-6.1,12.44-3.42,10,2.76a25.37,25.37,0,0,1-10.93,12.71,20.16,20.16,0,0,1,.91,2.85,31.54,31.54,0,0,1,4.36,25.57,28.9,28.9,0,0,1-3,7.21A25.21,25.21,0,0,1,452.3,503a22.39,22.39,0,0,1-12.52,5.65c-19.15,2.54-34.28-15.71-33.94-33.84A33,33,0,0,1,406.41,469.36Z"/><path class="cls-4" d="M379.91,558.17c-.54-11-17.77-11.13-17.22,0,.93,19.06-20.87,41.47-40.46,39.68-18.84-1.73-39.05-22.88-38.82-41.7.14-11.09-17.09-11.12-17.22,0-.35,28.24,27.89,57.14,56,58.95C350.81,616.89,381.31,586.52,379.91,558.17Z"/><path class="cls-5" d="M379.91,558.17c-.54-11-17.77-11.13-17.22,0,.93,19.06-20.87,41.47-40.46,39.68-18.84-1.73-39.05-22.88-38.82-41.7.14-11.09-17.09-11.12-17.22,0-.35,28.24,27.89,57.14,56,58.95C350.81,616.89,381.31,586.52,379.91,558.17Z"/><path class="cls-4" d="M379.91,558.17c-.54-11-17.77-11.13-17.22,0,.93,19.06-20.87,41.47-40.46,39.68-18.84-1.73-39.05-22.88-38.82-41.7.14-11.09-17.09-11.12-17.22,0-.35,28.24,27.89,57.14,56,58.95C350.81,616.89,381.31,586.52,379.91,558.17Z"/><path class="cls-6" d="M599.18,229.29c-4.62-12.16-13.66-22-25-26.46.93-31.22-22.86-61.7-53.45-68.35-6.23-25-25.62-46.54-51.23-52.95-19.5-4.88-40.13-.68-56.57,10.08-7.86-19.81-24.86-36.49-45.73-41.32a64.11,64.11,0,0,0-40.34,3.87,51,51,0,0,0-10,5.83c-21.64-10.32-49.38-9.16-68.62,5-6.47,4.76-12.43,12.36-18.17,16.59l-1.44-.32a29.35,29.35,0,0,0-17.37-5.78c-13.27-.13-25.81,7-35.92,15-9.28,7.37-17.18,17.08-21.45,28.2a30,30,0,0,0-1.82,7.67c-22.74-.78-46.31,13.05-51.69,36.35A45.46,45.46,0,0,0,103.89,193c-12,11.16-22.06,24.38-28.51,39.71-9.42,22.42-10.25,49.44.39,71.54-16,17.17-23.38,41.64-17.25,65,4.57,17.44,16,31.59,30.81,40.59-8.25,10.42-9,25.73.88,35.64a27.57,27.57,0,0,0,5.29,4.12c.27.64.55,1.27.87,1.89-4.68,5.37-8,11.71-8,19.12,0,12.69,10.15,24.14,23.36,23.16,11.6-.86,22.8-8.08,30.78-16.18,5.05-5.14,5.12-13.42,1.6-19.17a16,16,0,0,0,1.3-6.09c0-4.74-2.06-8.19-5.21-11.1,6.81-6.32,11.49-14.51,11.93-23.22a12.86,12.86,0,0,0-1.16-5.84c1.69-.61,3.37-1.27,5-2a60.21,60.21,0,0,0,27.67-26.36c10.68,3.4,21.84,1.15,31.81-4.1a92.45,92.45,0,0,0,25.73-20.78,39.42,39.42,0,0,0,18.59,9.46c17.61,3.33,32.89-4.68,46.36-14.95,15.77,8,35.84,4.94,49.58-6a59.71,59.71,0,0,0,48.68,12.07c5.17,11.12,13.59,20.55,25.13,26a57.94,57.94,0,0,0,43.3,2.57,56.27,56.27,0,0,0,26.55,19.08,36,36,0,0,0,11.57,6.3,21.81,21.81,0,0,0-6.75,20.37,17.45,17.45,0,0,0,7.62,11.76c-2.47,4.41-3.15,9.73.18,14.23.28.39.58.76.88,1.14a20.09,20.09,0,0,0-5.93,13.85c-.36,8,4.46,15.86,11.44,19.64,14.1,7.61,31.65-.11,39.6-12.92a32.19,32.19,0,0,0,3.67-25.88c4.25-9,3.52-19.12-.74-27.72a23.16,23.16,0,0,0,.46-11.22,51.62,51.62,0,0,0,18.58-41.87c8.9-15.06,17.6-30.95,20.39-48.33,2.62-16.29.78-31.82-6.72-45.77C600.3,264.39,605.68,246.38,599.18,229.29Z"/><path class="cls-7" d="M361,515.3c-.92-20.58-16.7-38-38-38-19.88,0-38.92,17.48-38,38s16.7,38,38,38C342.87,553.3,361.91,535.83,361,515.3Z"/><path class="cls-7" d="M125.32,99.47c-.18,2.7-.37,5.4-.51,8.11-.38,7.13-.57,14.27-.63,21.42-.12,13.77.26,27.54.8,41.3q1.74,44.26,3.66,88.53.66,14.58,1.46,29.17c10.75-6.49,21.92-12.31,33.22-17.79a403,403,0,0,1,71.45-26.39c21.09-5.66,43.5-10.6,66.13-13.13q-14.06-17.79-28.78-35l-.88-1c-3.76-4.11-1.58-1.76,0,0l.7.77c-.93-1-1.83-2.09-2.74-3.13q-3.43-3.9-6.91-7.77-6.62-7.34-13.37-14.54-13.81-14.68-28.37-28.66a565.67,565.67,0,0,0-61.71-51.73c-1.59-1.14-3.2-2.25-4.8-3.39l-.1-.07c-2.08-1.38-4.16-2.77-6.26-4.13q-8.06-5.18-16.36-10c-.52-.3-1-.58-1.56-.87-1.55,7-2.82,14-3.69,21.29C125.79,94.8,125.57,97.13,125.32,99.47Z"/><path class="cls-8" d="M187,73.65q.32-6.2.64-12.4a45.79,45.79,0,0,0-8.31-22.4l-8.22-9a49.69,49.69,0,0,0-22.73-10.83l-2.75-.53a37.6,37.6,0,0,0-19,.38,36.42,36.42,0,0,0-17.07,6.43A34.49,34.49,0,0,0,96.87,38.08a33.58,33.58,0,0,0-7.46,16.7l-.65,12.4a45.87,45.87,0,0,0,8.32,22.4l8.22,9A49.64,49.64,0,0,0,128,109.37l2.75.53a37.67,37.67,0,0,0,19-.38,36.33,36.33,0,0,0,17.07-6.44A34.54,34.54,0,0,0,179.5,90.36,33.58,33.58,0,0,0,187,73.65Z"/><path class="cls-8" d="M332.12,237.51c2.17-14.68-6.55-28.34-21.29-31.51-37.79-8.13-76.59,8-111.4,21.18-33.64,12.7-67,28.23-95.37,50.55-11,8.69-16.29,25.09-7.23,37.35,8.16,11,25.54,16.51,37.35,7.22,12.72-10,26.37-18.35,40.57-26.06l.83-.46.22-.1c1.73-.83,3.45-1.69,5.19-2.51q5.74-2.71,11.57-5.25c7.44-3.24,15-6.27,22.53-9.16C230,273.09,245,267.68,260.22,263c4.18-1.3,8.4-2.44,12.64-3.54l.92-.24.38-.05c1.94-.25,3.87-.67,5.82-.92,3.87-.49,7.74-.68,11.64-.79l1.05,0,1,.18c2.31.37,4.61.73,6.91,1.23C314.37,261.77,330,251.69,332.12,237.51Z"/></g></g></svg>