<svg xmlns="http://www.w3.org/2000/svg" viewBox="0 0 349 349"><defs><style>.cls-1{fill:#4f4e4b;}.cls-2{fill:none;stroke:#fff;stroke-miterlimit:10;stroke-width:9.09px;}.cls-3{fill:#fff;}</style></defs><title>avt1</title><g id="Layer_2" data-name="Layer 2"><g id="Layer_4" data-name="Layer 4"><circle class="cls-1" cx="174.5" cy="174.5" r="174.5"/><path class="cls-2" d="M289.6,163.1C283,146.66,276.35,130,265.48,115.8c-6.94-9-15.48-16.91-25.47-22.22a64.77,64.77,0,0,1,10.31-3.66c6-1.58,5.85-10.38,0-12a118.31,118.31,0,0,0-30.92-4.57C203,73.11,186,76.33,174,88.2c-12-11.86-29-15.09-45.42-14.89a118.31,118.31,0,0,0-30.92,4.57c-5.85,1.67-6,10.47,0,12a64.77,64.77,0,0,1,10.31,3.66c-10,5.31-18.53,13.19-25.47,22.22C71.59,130,64.94,146.66,58.35,163.1c-2.16,5.39,4.82,9.4,9.18,7.05a70.39,70.39,0,0,1,11.79-5,120.65,120.65,0,0,0-11.37,64.54c.46,4.38,5.05,8.21,9.4,5.39a149.43,149.43,0,0,1,25.47-13.25c-1.51,8.44-2.09,17-.57,25.55a42,42,0,0,0,16.06,26.52c2.72,2,7,.4,8.55-2.24a45.89,45.89,0,0,1,10.9-12.52c2.68,7,7.27,13.14,12.41,19,6.59,7.51,14.37,14.83,17.45,24a6.43,6.43,0,0,0,6,4.59l.33,0,.33,0a6.43,6.43,0,0,0,6-4.59c3.09-9.14,10.86-16.47,17.45-24,5.13-5.84,9.73-12,12.41-19a45.89,45.89,0,0,1,10.9,12.52c1.57,2.64,5.83,4.28,8.55,2.24a42,42,0,0,0,16.06-26.52c1.52-8.55.95-17.11-.57-25.55A149.43,149.43,0,0,1,270.61,235c4.34,2.81,8.94-1,9.4-5.39a120.65,120.65,0,0,0-11.37-64.54,70.39,70.39,0,0,1,11.79,5C284.77,172.5,291.76,168.49,289.6,163.1Z"/><circle class="cls-3" cx="140.77" cy="166.99" r="9.94"/><circle class="cls-3" cx="208.34" cy="166.99" r="9.94"/><path class="cls-2" d="M209.05,116.38c-11.51,0-21.76,6.33-28.45,16.17a56.4,56.4,0,0,1-14.19-1c-6.73-9.21-16.68-15-27.78-15-20.23,0-36.59,19.49-36.54,43.43,0,15.38,6.83,28.87,17.05,36.54q.92,1.35,1.75,2.75l1.62,3.22a92.07,92.07,0,0,0,9.36,19.71l.3.58.07.13a24.76,24.76,0,0,0,12.48,13.94,23.23,23.23,0,0,0,11.32,2,25.9,25.9,0,0,0,14.22-4.23,22.73,22.73,0,0,0,2.74-1.48,22.22,22.22,0,0,0,8.85,4.79,21.23,21.23,0,0,0,6.76,1.34,13.52,13.52,0,0,0,9.86-.87,17.24,17.24,0,0,0,3.23-.9c5.14-2,8.35-6,10.59-10.89,4-8.85,7.87-17.86,11.23-27,13.1-6.62,22.27-22,22.23-39.92C245.72,135.71,229.28,116.34,209.05,116.38Z"/><path class="cls-3" d="M200.75,235.39a1.76,1.76,0,0,1-.51.24c-.85,6-2.72,11.78-6.86,16.25-5.71,6.17-14.6,7.2-22.59,6.33-7.66-.83-15-4.39-19.46-10.84a26.65,26.65,0,0,1-4.75-14.67l-.48-.21a12,12,0,0,1-5.67-2c-.63,12.1,5.61,24.26,16.6,30,13.32,6.94,33.1,6.13,42.67-6.53,5.14-6.81,6.81-15.28,7.31-23.64A40.15,40.15,0,0,1,200.75,235.39Z"/><path class="cls-3" d="M188.14,202.22c-.37-4.18-3.33-7.69-7.43-7.69a7.43,7.43,0,0,0-6.81,4.61,7.2,7.2,0,0,0-6.64-4.61c-4.1,0-7.06,3.51-7.43,7.69a7.65,7.65,0,0,0,.24,2.91,12.85,12.85,0,0,0,3.92,6.53l7,6.32a90.13,90.13,0,0,0,.07,15.86c.37,4,6.62,4,6.25,0a90.13,90.13,0,0,1,0-16.15l6.76-6a12.85,12.85,0,0,0,3.92-6.53A7.65,7.65,0,0,0,188.14,202.22Z"/></g></g></svg>