<svg xmlns="http://www.w3.org/2000/svg" viewBox="0 0 349 349"><defs><style>.cls-1{fill:#f4eacb;}.cls-2{fill:none;stroke:#fff;stroke-miterlimit:10;stroke-width:11.51px;}.cls-3{fill:#fff;}</style></defs><title>avt4</title><g id="Layer_2" data-name="Layer 2"><g id="Layer_4" data-name="Layer 4"><circle class="cls-1" cx="174.5" cy="174.5" r="174.5"/><path class="cls-2" d="M291,133.39a39.73,39.73,0,0,0-72.84-22,108.75,108.75,0,0,0-86.23-1.24,39.73,39.73,0,1,0-53,56.29,79.39,79.39,0,0,0-3.5,23.31c0,48.55,44,87.91,98.19,87.91s98.19-39.36,98.19-87.91A79.38,79.38,0,0,0,269,168.94,39.73,39.73,0,0,0,291,133.39Z"/><path class="cls-3" d="M84.66,153.9c7.76-14.14,20.68-26.1,36.9-34.39a26,26,0,1,0-36.9,34.39Z"/><path class="cls-3" d="M265.55,155.14A26,26,0,1,0,228.95,120C245.18,128.52,258,140.74,265.55,155.14Z"/><ellipse class="cls-2" cx="175" cy="221.42" rx="51.15" ry="38.48"/><circle class="cls-3" cx="126.36" cy="164.22" r="13.02"/><circle class="cls-3" cx="219.53" cy="164.22" r="13.02"/><path class="cls-3" d="M167,235.24c-4.88,0-8.39-4.17-8.83-9.14a9.1,9.1,0,0,1,.29-3.46,15.28,15.28,0,0,1,4.66-7.77l11.78-10.69,12,10.69a15.28,15.28,0,0,1,4.66,7.77,9.1,9.1,0,0,1,.29,3.46c-.44,5-4,9.14-8.83,9.14a8.83,8.83,0,0,1-8.09-5.49A8.55,8.55,0,0,1,167,235.24Z"/><rect class="cls-3" x="171.36" y="219.71" width="7.27" height="40.19"/></g></g></svg>