<svg xmlns="http://www.w3.org/2000/svg" xmlns:xlink="http://www.w3.org/1999/xlink" viewBox="0 0 504.18 554.87"><defs><style>.cls-1{fill:none;}.cls-2{clip-path:url(#clip-path);}.cls-10,.cls-3,.cls-9{fill:#f4eacb;}.cls-11,.cls-12,.cls-3{stroke:#4f4e4b;}.cls-10,.cls-11,.cls-12,.cls-3,.cls-9{stroke-miterlimit:10;}.cls-3{stroke-width:16px;}.cls-11,.cls-4{fill:#55cec5;}.cls-5{fill:#4f4e4b;}.cls-6{fill:#f5dddb;}.cls-12,.cls-7{fill:#f753aa;}.cls-8{fill:#fdadba;}.cls-10,.cls-9{stroke:#b5b5b5;}.cls-9{stroke-width:4.16px;}.cls-10{stroke-width:2.77px;}.cls-11,.cls-12{stroke-width:8px;}</style><clipPath id="clip-path" transform="translate(-21.71 -16.91)"><rect class="cls-1" width="543" height="385"/></clipPath></defs><title>clown_half</title><g id="Layer_2" data-name="Layer 2"><g id="chat_room" data-name="chat room"><g class="cls-2"><path class="cls-3" d="M496.45,283.27c-5.68-2.92-12-2.35-18.13-2.07a41.06,41.06,0,0,1-18.61-3.25,15.67,15.67,0,0,0,2-2.4c4-6,3.07-15.4-4.05-18.58-8.82-3.94-11.37,6.71-16.48,11.11-3.06,2.64-5.7,4.7-7.51,8.44q-1.13,2.34-2.06,4.77c-.48-.2-1-.39-1.45-.58-5.58-2.07-11.43,2.33-13.07,7.42-1.32,4.09.33,8,3.25,10.56a46.79,46.79,0,0,1-9.1,5.77A52.81,52.81,0,0,1,382,309.39a54.63,54.63,0,0,1-13.94-4.09,116.08,116.08,0,0,1-14.86-9.08c-1.95-1.34-3.9-2.69-5.88-4,3.05-.92,6.07-1.94,9-3a6.93,6.93,0,0,0,4.9-6.44c0-2.67-2.05-6-4.9-6.44q-14.81-2.19-29.59-4.6c2.13-1.4,4.21-2.88,6.22-4.47a64.41,64.41,0,0,0,12.38-12.91,40.83,40.83,0,0,0,10.39-3.69,38.62,38.62,0,0,0,18.49-21.54,39.4,39.4,0,0,0,2.15-11.91c.94-7.13-.64-14.88-6.17-19.71l-.1-.08a13.93,13.93,0,0,0-4.28-2.85c.86-4.64,0-9.58-3.71-12.09a14,14,0,0,0-2.25-10.25c-.19-.28-.38-.56-.59-.82.62-.4,1.23-.82,1.83-1.27,7.51-5.63,12.4-14.89,11.59-24.42a21.33,21.33,0,0,0-17.6-19.42,30.94,30.94,0,0,0-13.09.51l-7.19-4.41-1.32-24.92-3.85,3.29a79.81,79.81,0,0,1,8.27-22.13c2-3.53-.48-8.37-4.74-8.25L208.71,73.9c-5.89.17-6.87,7.87-2.9,10.26A102.44,102.44,0,0,1,222.94,117a8.76,8.76,0,0,0-5.43,3.87,7.73,7.73,0,0,0-.19,7.66c-5.7-2.22-11.35-4.34-17.49-4.93-9.87-.95-21.34,4.08-24.06,14.38-2.85,10.79,5.06,19.69,13.82,24.67a24.3,24.3,0,0,0,.27,4.64,11.86,11.86,0,0,0-6.45,4.9,14,14,0,0,0-2.25,10.25,8.27,8.27,0,0,0-2.31,2.39c-9.91,7-12.79,19.88-11,31.38A40.74,40.74,0,0,0,184.74,243c4.63,3.29,10.52,5.68,16.27,5.12a81.26,81.26,0,0,0,22.69,23q-16.79,2.77-33.62,5.26c-2.85.42-4.9,3.77-4.9,6.44a6.93,6.93,0,0,0,4.9,6.44c4.09,1.48,8.27,2.86,12.51,4A105.15,105.15,0,0,1,189.53,301a54.63,54.63,0,0,1-13.94,4.09,52.81,52.81,0,0,1-29.23-4.92,46.79,46.79,0,0,1-9.1-5.77c2.92-2.6,4.57-6.47,3.25-10.56-1.65-5.09-7.49-9.5-13.07-7.42a53.35,53.35,0,0,0-7.15,3.29q-.68-1.64-1.45-3.24c-1.81-3.74-4.45-5.8-7.51-8.44-5.11-4.4-7.66-15.05-16.48-11.11-7.12,3.18-8,12.62-4.05,18.58a15.67,15.67,0,0,0,2,2.4,41.06,41.06,0,0,1-18.61,3.25c-6.16-.28-12.46-.85-18.13,2.07s-7.7,9.19-4,14.65a13.6,13.6,0,0,0,4.68,4.28,7,7,0,0,0,.82,7.36c1.87,2.58,5.39,3.93,9.05,4.69a4.5,4.5,0,0,0,1.88,5.16,18.38,18.38,0,0,0,10.3,3.11,8.09,8.09,0,0,0,6.11,3.08,33,33,0,0,0,6.81-.29A47.17,47.17,0,0,0,92,332.1c.68,5.5,4.4,10.91,10.63,10.63a12.52,12.52,0,0,0,8.61-4.3,58.55,58.55,0,0,0,11.21,9.38c18.44,12,42.3,16.1,63.26,9.6a254.11,254.11,0,0,0-9.23,31.32q-1.78,7.88-3,15.86c-.6,3.83-1.44,7.85-1.7,11.82l-.64-.33c-5.72-3.11-13.83-1.6-17,4.47-3.07,5.81-1.64,13.71,4.47,17,8.29,4.51,17.32,6.91,26.54,8.41,1,11.26,3.28,22.33,7.69,32.84A80,80,0,0,0,208.34,503a10.34,10.34,0,0,0-6.25,1.07c-3,1.51-4,5.5-2.74,8.45-7.92-3.49-15.45-8-24.09-9.55a42.71,42.71,0,0,0-27.08,3.77c-15.36,8-23,29.38-12.56,44.26,5.8,8.27,15.43,12.08,25.24,12.7,10.5.66,20.83-2.74,31-4.84A216.33,216.33,0,0,1,219.33,555a8.29,8.29,0,0,0,1.24,3.52c1.68,2.64,4.37,3.51,7.29,3.87a55.2,55.2,0,0,0,14.71-.23c7.43-1.06,23.26-4.82,20.4-14.75a4.61,4.61,0,0,0,.43-.48c4.81-6.21,3-15.71,1.8-23a77.12,77.12,0,0,0-6.44-20.2l.23-.25c3.63-3.75,1.34-12.15-4.72-11.4a87.57,87.57,0,0,0-9.13,1.65,192.42,192.42,0,0,1-15.59-21.88,98.15,98.15,0,0,1-4.43-12.63c-.91-3.29-1.7-6.74-2.31-10.26,7,.08,14-.07,21-.39,25.92-1.19,51.65-4.65,77.47-7.06A101.52,101.52,0,0,1,318,459.23a98.15,98.15,0,0,1-4.43,12.63A192.42,192.42,0,0,1,298,493.74a87.57,87.57,0,0,0-9.13-1.65c-6.07-.75-8.35,7.65-4.72,11.4l.23.25a77.12,77.12,0,0,0-6.44,20.2c-1.19,7.28-3,16.79,1.8,23a4.61,4.61,0,0,0,.43.48c-2.86,9.94,13,13.69,20.4,14.75a55.2,55.2,0,0,0,14.71.23c2.92-.36,5.61-1.23,7.29-3.87a8.29,8.29,0,0,0,1.24-3.52,216.33,216.33,0,0,1,27.47,3.84c10.16,2.1,20.5,5.5,31,4.84,9.82-.62,19.45-4.42,25.24-12.7,10.43-14.88,2.79-36.31-12.56-44.26A42.71,42.71,0,0,0,367.88,503c-8.64,1.5-16.17,6.06-24.09,9.55,1.25-3,.24-6.94-2.74-8.45A10.34,10.34,0,0,0,334.8,503a80,80,0,0,0,15.54-24.15c5.31-12.64,7.47-26.1,8.19-39.7,6.13-.15,12.26-.17,18.39,0,6.52.18,12.75-5.86,12.45-12.45a12.7,12.7,0,0,0-12.45-12.45l-.82,0c-.31-8.26-2.36-16.65-4.08-24.46a309.27,309.27,0,0,0-8.73-31.44c22.76,10.84,50.82,7.39,71.83-6.26a58.55,58.55,0,0,0,11.21-9.38,12.52,12.52,0,0,0,8.61,4.3c6.23.28,10-5.13,10.63-10.63a47.4,47.4,0,0,0,.09-10.68q1,0,2-.07a8.09,8.09,0,0,0,6.11-3.08,18.38,18.38,0,0,0,10.3-3.11,4.5,4.5,0,0,0,1.88-5.16c3.67-.77,7.18-2.12,9.05-4.69a7,7,0,0,0,.82-7.36,13.6,13.6,0,0,0,4.68-4.28C504.16,292.46,502.21,286.23,496.45,283.27Z" transform="translate(-21.71 -16.91)"/><path class="cls-4" d="M252.41,504.6l-.29-.28a8.25,8.25,0,0,0-1.88-4.26c-7.23-8.94-14.75-18.16-20.68-28.2a98.15,98.15,0,0,1-4.43-12.63c-4.61-16.71-6.2-37.18,3.65-52.34,2.86-4.4-.93-9.92-5.77-10.05a56.85,56.85,0,0,0-14,1.36,48.74,48.74,0,0,1-4.88-1.19,8.43,8.43,0,0,0-1-.66c2.24-8.25-10.59-11.76-12.9-3.49q-1.51,5.42-2.57,11a6.31,6.31,0,0,0-3,5.33c-.83,23.35-1.09,47.76,8.12,69.68,6.94,16.52,19,31,35.37,38.35,5.6,4.71,13,4.74,18.87.69a14,14,0,0,0,5.37-3.83C254.75,511.4,255.16,507.2,252.41,504.6Z" transform="translate(-21.71 -16.91)"/><path class="cls-5" d="M265.21,523.95a77.12,77.12,0,0,0-6.44-20.2l.23-.25c3.63-3.75,1.34-12.15-4.72-11.4a114.59,114.59,0,0,0-21.9,5.31C225.75,499.59,219,502,212,502.9a9.66,9.66,0,0,0-1.94.44,10.54,10.54,0,0,0-8,.71c-3,1.51-4,5.5-2.74,8.45-7.92-3.49-15.45-8-24.09-9.55a42.71,42.71,0,0,0-27.08,3.77c-15.36,8-23,29.38-12.56,44.26,5.8,8.27,15.43,12.08,25.24,12.7,10.5.66,20.83-2.74,31-4.84A216.33,216.33,0,0,1,219.33,555a8.29,8.29,0,0,0,1.24,3.52c1.68,2.64,4.37,3.51,7.29,3.87a55.2,55.2,0,0,0,14.71-.23c7.43-1.06,23.26-4.82,20.4-14.75a4.61,4.61,0,0,0,.43-.48C268.22,540.73,266.4,531.23,265.21,523.95Z" transform="translate(-21.71 -16.91)"/><path class="cls-4" d="M290.73,504.6l.29-.28a8.25,8.25,0,0,1,1.88-4.26c7.23-8.94,14.75-18.16,20.68-28.2A98.15,98.15,0,0,0,318,459.23c4.61-16.71,6.2-37.18-3.65-52.34-2.86-4.4.93-9.92,5.77-10.05a56.85,56.85,0,0,1,14,1.36A48.74,48.74,0,0,0,339,397a8.43,8.43,0,0,1,1-.66c-2.24-8.25,10.59-11.76,12.9-3.49q1.51,5.42,2.57,11a6.31,6.31,0,0,1,3,5.33c.83,23.35,1.09,47.76-8.12,69.68-6.94,16.52-19,31-35.37,38.35-5.6,4.71-13,4.74-18.87.69a14,14,0,0,1-5.37-3.83C288.39,511.4,288,507.2,290.73,504.6Z" transform="translate(-21.71 -16.91)"/><path class="cls-5" d="M277.93,523.95a77.12,77.12,0,0,1,6.44-20.2l-.23-.25c-3.63-3.75-1.34-12.15,4.72-11.4a114.59,114.59,0,0,1,21.9,5.31c6.64,2.18,13.41,4.64,20.38,5.5a9.66,9.66,0,0,1,1.94.44,10.54,10.54,0,0,1,8,.71c3,1.51,4,5.5,2.74,8.45,7.92-3.49,15.45-8,24.09-9.55A42.71,42.71,0,0,1,395,506.73c15.36,8,23,29.38,12.56,44.26-5.8,8.27-15.43,12.08-25.24,12.7-10.5.66-20.83-2.74-31-4.84A216.33,216.33,0,0,0,323.81,555a8.29,8.29,0,0,1-1.24,3.52c-1.68,2.64-4.37,3.51-7.29,3.87a55.2,55.2,0,0,1-14.71-.23c-7.43-1.06-23.26-4.82-20.4-14.75a4.61,4.61,0,0,1-.43-.48C274.92,540.73,276.74,531.23,277.93,523.95Z" transform="translate(-21.71 -16.91)"/><path class="cls-6" d="M123.22,288.49a65.66,65.66,0,0,0-4.38-12c-1.81-3.74-4.45-5.8-7.51-8.44-5.11-4.4-7.66-15.05-16.48-11.11-7.12,3.18-8,12.62-4.05,18.58a15.67,15.67,0,0,0,2,2.4,41.06,41.06,0,0,1-18.61,3.25c-6.16-.28-12.46-.85-18.13,2.07s-7.7,9.19-4,14.65a13.6,13.6,0,0,0,4.68,4.28,7,7,0,0,0,.82,7.36c1.87,2.58,5.39,3.93,9.05,4.69a4.5,4.5,0,0,0,1.88,5.16,18.38,18.38,0,0,0,10.3,3.11,8.09,8.09,0,0,0,6.11,3.08,40.91,40.91,0,0,0,15.72-2.48,4.43,4.43,0,0,0,2.46-6.21,3.66,3.66,0,0,0,2.72-3,35.58,35.58,0,0,1,11.94-19.33,4.44,4.44,0,0,0,.79-.86C121.16,294,124.1,291.84,123.22,288.49Z" transform="translate(-21.71 -16.91)"/><path class="cls-6" d="M429.3,288.49a65.66,65.66,0,0,1,4.38-12c1.81-3.74,4.45-5.8,7.51-8.44,5.11-4.4,7.66-15.05,16.48-11.11,7.12,3.18,8,12.62,4.05,18.58a15.67,15.67,0,0,1-2,2.4,41.06,41.06,0,0,0,18.61,3.25c6.16-.28,12.46-.85,18.13,2.07s7.7,9.19,4,14.65a13.6,13.6,0,0,1-4.68,4.28,7,7,0,0,1-.82,7.36c-1.87,2.58-5.39,3.93-9.05,4.69a4.5,4.5,0,0,1-1.88,5.16,18.38,18.38,0,0,1-10.3,3.11,8.09,8.09,0,0,1-6.11,3.08,40.91,40.91,0,0,1-15.72-2.48,4.43,4.43,0,0,1-2.46-6.21,3.66,3.66,0,0,1-2.72-3,35.58,35.58,0,0,0-11.94-19.33,4.44,4.44,0,0,1-.79-.86C431.36,294,428.42,291.84,429.3,288.49Z" transform="translate(-21.71 -16.91)"/><path class="cls-7" d="M372,389.77a309.61,309.61,0,0,0-10.36-36.19,329.16,329.16,0,0,0-15-35.65c-5.54-11.26-11.41-23.13-19.35-32.92-7.37-9.07-18.33-12.67-29.75-12.22-10.82.43-19.17,3.16-29.37,3-1.11,0-2.2-.09-3.31-.16l-.29,0c-.66-.11-1.32-.23-2-.38-1.06-.24-2.1-.57-3.13-.91l-.65-.26c-.87-.4-1.73-.83-2.61-1.21a15.75,15.75,0,0,0-8.82-1.3c-3.13-2.13-7.86-2-10.5.89a260.25,260.25,0,0,0-60.39,116.26q-1.78,7.88-3,15.86c-.83,5.27-2.11,10.92-1.7,16.27.5,6.66,4,13.06,10.83,14.93,6,1.63,12.74.13,18.79-.32q38.73-2.89,77.61-3.09,43.66-.23,87.25,2.94c3.72.27,6.8-2.76,7.91-6C378.46,416.61,374.81,402.42,372,389.77Z" transform="translate(-21.71 -16.91)"/><path class="cls-7" d="M246.32,286.28l-.07-.16a8.31,8.31,0,0,0,.16-4.67c-1.25-4.53-5.73-6.59-10.09-5.73-12,2.38-22.05,9.46-31.93,16.25A116.08,116.08,0,0,1,189.53,301a54.63,54.63,0,0,1-13.94,4.09,52.81,52.81,0,0,1-29.23-4.92,44.65,44.65,0,0,1-12-8.39c-2.22-2.16-4.27-4.52-7-6.08a13.74,13.74,0,0,0-13.29-.27c-11.58,6.14-14.93,21.24-13,33.14,2.06,12.48,11.1,22.51,21.4,29.2,22.29,14.48,52.51,17.49,75.92,4.13,11.55-6.59,21-16.32,29.18-26.71,4.3-5.49,8.36-11.15,12.28-16.92C244.22,301.94,249.45,294.35,246.32,286.28Z" transform="translate(-21.71 -16.91)"/><path class="cls-8" d="M140.51,283.89c-1.65-5.09-7.49-9.5-13.07-7.42C105.21,284.73,89.07,308,92,332.1c.68,5.5,4.4,10.91,10.63,10.63,5.18-.23,11.36-4.72,10.63-10.63a41.1,41.1,0,0,1-.3-6.81c0-.44.3-2.81.21-2.43.14-.78.28-1.55.46-2.32a55,55,0,0,1,1.75-5.71l0,0c.2-.45.41-.89.63-1.33q.76-1.53,1.64-3c.58-1,1.25-1.91,1.86-2.87l.4-.54.56-.68a44.17,44.17,0,0,1,4.18-4.27q.6-.53,1.22-1c.92-.63,1.83-1.27,2.79-1.84s2-1.13,3-1.63l.77-.36.62-.24C138.29,295,142.39,289.68,140.51,283.89Z" transform="translate(-21.71 -16.91)"/><path class="cls-7" d="M311.28,290.53l.07-.16a8.31,8.31,0,0,1-.16-4.67c1.25-4.53,5.73-6.59,10.09-5.73,12,2.38,22.05,9.46,31.93,16.25a116.08,116.08,0,0,0,14.86,9.08A54.63,54.63,0,0,0,382,309.39a52.81,52.81,0,0,0,29.23-4.92,44.65,44.65,0,0,0,12-8.39c2.22-2.16,4.27-4.52,7-6.08a13.74,13.74,0,0,1,13.29-.27c11.58,6.14,14.93,21.24,13,33.14-2.06,12.48-11.1,22.51-21.4,29.2-22.29,14.48-52.51,17.49-75.92,4.13-11.55-6.59-21-16.32-29.18-26.71-4.3-5.49-8.36-11.15-12.28-16.92C313.38,306.19,308.15,298.6,311.28,290.53Z" transform="translate(-21.71 -16.91)"/><path class="cls-8" d="M417.09,288.14c1.65-5.09,7.49-9.5,13.07-7.42,22.23,8.26,38.36,31.5,35.39,55.63-.68,5.5-4.4,10.91-10.63,10.63-5.18-.23-11.36-4.72-10.63-10.63a41.1,41.1,0,0,0,.3-6.81c0-.44-.3-2.81-.21-2.43-.14-.78-.28-1.55-.46-2.32a55,55,0,0,0-1.75-5.71l0,0c-.2-.45-.41-.89-.63-1.33q-.76-1.53-1.64-3c-.58-1-1.25-1.91-1.86-2.87l-.4-.54-.56-.68a44.17,44.17,0,0,0-4.18-4.27q-.6-.53-1.22-1c-.92-.63-1.83-1.27-2.79-1.84s-2-1.13-3-1.63l-.77-.36-.62-.24C419.31,299.28,415.21,293.93,417.09,288.14Z" transform="translate(-21.71 -16.91)"/><path class="cls-8" d="M356.37,276.32q-22-3.25-44-7c-3.57-.61-7.18.9-8.22,4.67a6.41,6.41,0,0,0-.16,2.43c-2.32-.85-5.17.41-6.76,2.26-.18.11-.35.22-.52.34a32.32,32.32,0,0,1-8.1.32,6,6,0,0,0-4.3,1.59,5.68,5.68,0,0,0-.71-.5c-3.39-2-7-.47-9.14,2.4a17.66,17.66,0,0,0-1.24,1.85,17.67,17.67,0,0,0-1.24-1.85c-2.19-2.86-5.75-4.38-9.14-2.4a5.68,5.68,0,0,0-.71.5,6,6,0,0,0-4.3-1.59,32.32,32.32,0,0,1-8.1-.32c-.17-.12-.35-.23-.52-.34-1.58-1.85-4.44-3.11-6.76-2.26a6.41,6.41,0,0,0-.16-2.43c-1-3.77-4.65-5.28-8.22-4.67q-22,3.75-44,7c-2.85.42-4.9,3.77-4.9,6.44a6.93,6.93,0,0,0,4.9,6.44c10.28,3.72,21.17,6.81,32,7.06q-11.26,11-23.43,21.05c-2.25,1.86-2.43,5.72-1,8.1,1.62,2.77,4.57,3.49,7.54,3.07a82.27,82.27,0,0,0,41.24-18.64c-2.81,8.91-6.45,17.6-10,26.15-1.11,2.68.75,6.19,3.07,7.54a6.81,6.81,0,0,0,8.1-1A134.81,134.81,0,0,0,269.28,314a61.45,61.45,0,0,0,4-8.28,61.45,61.45,0,0,0,4,8.28,134.81,134.81,0,0,0,21.75,28.52,6.81,6.81,0,0,0,8.1,1c2.32-1.36,4.18-4.86,3.07-7.54-3.55-8.55-7.19-17.24-10-26.15a82.27,82.27,0,0,0,41.24,18.64c3,.42,5.92-.3,7.54-3.07,1.39-2.38,1.21-6.24-1-8.1q-12.17-10-23.43-21.05c10.79-.25,21.67-3.34,32-7.06a6.93,6.93,0,0,0,4.9-6.44C361.27,280.09,359.22,276.74,356.37,276.32Z" transform="translate(-21.71 -16.91)"/><path class="cls-8" d="M389.36,426.69a12.7,12.7,0,0,0-12.45-12.45c-55.78-1.56-110.84,12.51-166.64,9.43q-5.78-.32-11.54-.9c-1.93-.2-3.84-.44-5.77-.66h-.1c-1-.17-2.1-.31-3.14-.48a91.62,91.62,0,0,1-10.36-2.24c-1.7-.48-3.33-1.13-5-1.66h0c-1.07-.54-2.15-1-3.2-1.62-5.72-3.11-13.83-1.6-17,4.47-3.07,5.81-1.64,13.71,4.47,17,13.21,7.18,28.29,9,43,10.36a312.54,312.54,0,0,0,42.21.64c28.37-1.31,56.52-5.32,84.8-7.72a429.52,429.52,0,0,1,48.29-1.72C383.43,439.32,389.66,433.28,389.36,426.69Z" transform="translate(-21.71 -16.91)"/><path class="cls-8" d="M285.39,346.93l-.44-3.31a12.44,12.44,0,0,0-3.2-5.49l-2.52-1.95a12.39,12.39,0,0,0-6.28-1.7H272a12.8,12.8,0,0,0-12.45,12.45l.44,3.31a12.44,12.44,0,0,0,3.2,5.49l2.52,1.95a12.39,12.39,0,0,0,6.28,1.7h.9a12.8,12.8,0,0,0,12.45-12.45Z" transform="translate(-21.71 -16.91)"/><path class="cls-8" d="M284.49,397.58c-.3-6.75-5.47-12.45-12.45-12.45-6.51,0-12.75,5.73-12.45,12.45S265.06,410,272,410C278.55,410,284.79,404.3,284.49,397.58Z" transform="translate(-21.71 -16.91)"/><path class="cls-6" d="M370.24,197.49l-.1-.08A14.7,14.7,0,0,0,355.82,194a25.55,25.55,0,0,0-3,1,76.52,76.52,0,0,0-9.64-19.1c-10.57-15.13-25.91-26.48-43.92-31a79.27,79.27,0,0,0-34.55-.9,11.47,11.47,0,0,0-4.06-.06h0a13,13,0,0,0-10.45-2.23c-4.23.74-7.87,3.14-11.45,5.38a156.68,156.68,0,0,0-20.92,15.38,88.63,88.63,0,0,0-17.88,21.52,19.89,19.89,0,0,0-20.31.42c-10.52,6.89-13.58,20.11-11.79,31.89A40.74,40.74,0,0,0,184.74,243c4.63,3.29,10.52,5.68,16.27,5.12,9.87,15.41,26,27.33,43.36,33.47,29.6,10.46,64,5.18,88.62-14.31a64.41,64.41,0,0,0,12.38-12.91,40.83,40.83,0,0,0,10.39-3.69,38.62,38.62,0,0,0,18.49-21.54,39.4,39.4,0,0,0,2.15-11.91C377.35,210.07,375.77,202.32,370.24,197.49Z" transform="translate(-21.71 -16.91)"/><path d="M246.86,211.61c0-3.87-1.92-7.52-6.37-8.7a10.13,10.13,0,0,0-4-.24,9.81,9.81,0,0,0-2.63.5,4.58,4.58,0,0,0-.54,0,6.35,6.35,0,0,0-3.26,1,4.46,4.46,0,0,1-2.61-2.6c-.86-2.15-4.39-1.21-3.51,1a9,9,0,0,0,3.85,4.49,7.61,7.61,0,0,0-.32,1,11.13,11.13,0,0,0-1.55,9,10.18,10.18,0,0,0,1.06,2.54,8.88,8.88,0,0,0,3.66,3.86,7.89,7.89,0,0,0,4.41,2c6.75.91,12.09-5.52,12-11.91A11.61,11.61,0,0,0,246.86,211.61Z" transform="translate(-21.71 -16.91)"/><path d="M300.55,213.43c0-3.87,1.92-7.52,6.37-8.7a10.13,10.13,0,0,1,4-.24,9.81,9.81,0,0,1,2.63.5,4.58,4.58,0,0,1,.54,0,6.35,6.35,0,0,1,3.26,1,4.46,4.46,0,0,0,2.61-2.6c.86-2.15,4.39-1.21,3.51,1a9,9,0,0,1-3.85,4.49,7.61,7.61,0,0,1,.32,1,11.13,11.13,0,0,1,1.55,9,10.18,10.18,0,0,1-1.06,2.54,8.88,8.88,0,0,1-3.66,3.86,7.89,7.89,0,0,1-4.41,2c-6.75.91-12.09-5.52-12-11.91A11.61,11.61,0,0,1,300.55,213.43Z" transform="translate(-21.71 -16.91)"/><path class="cls-7" d="M275.68,280c-.6,0-1.21,0-1.81-.06-8.5-.54-17.12-4.73-23.63-11.5-6.68-6.95-10.47-15.9-10.37-24.56a18,18,0,0,1,18.25-18,18.41,18.41,0,0,1,13,5.38,17.75,17.75,0,0,1,4.06,6.39,17.6,17.6,0,0,1,3.56-5.5A18.38,18.38,0,0,1,310.3,244c.44,8.68-3.15,17.7-9.85,24.75S284.59,280,275.68,280Z" transform="translate(-21.71 -16.91)"/><path class="cls-8" d="M295.13,244.74c-.2-3.89-6.27-3.91-6.07,0,.34,6.72-7.33,14.63-14.24,14-6.64-.6-13.78-8-13.7-14.68,0-3.91-6-3.91-6.07,0-.11,10,9.87,20.13,19.78,20.75C284.91,265.46,295.64,254.74,295.13,244.74Z" transform="translate(-21.71 -16.91)"/><circle class="cls-7" cx="253.31" cy="200.47" r="10.93"/><path class="cls-4" d="M262.12,149.93a8.26,8.26,0,0,0-1.1-2.78c2.12-9.36-3.1-19.73-13.84-21.52a17.43,17.43,0,0,0-16.5,5.75c-.2.24-.39.49-.57.74a16,16,0,0,0-13,1.08,16.84,16.84,0,0,0-7.74,9.34C204,142,198.45,144.69,195,148.7a23,23,0,0,0-5.11,18.62,11.86,11.86,0,0,0-6.45,4.9,14,14,0,0,0-2.25,10.25c-5.8,3.95-4.66,13.93-.7,19.27a10.78,10.78,0,0,0,12.38,3.81,16.46,16.46,0,0,0,5.45-2.91,11,11,0,0,0,2,.92c4.38,1.53,8.78-.1,12.78-1.94,3.69-1.69,7.39-3.91,8.9-7.89a10.57,10.57,0,0,0,.61-2.5c5.34-1,10.47-3.81,13.27-8.39a10,10,0,0,0,1.42-5.73c4.45-1.15,8.45-3.41,10.94-7.74a13.18,13.18,0,0,0,1.31-3.18C256.75,164,263.62,157.72,262.12,149.93Z" transform="translate(-21.71 -16.91)"/><path class="cls-4" d="M281.21,149.93a8.26,8.26,0,0,1,1.1-2.78c-2.12-9.36,3.1-19.73,13.84-21.52a17.43,17.43,0,0,1,16.5,5.75c.2.24.39.49.57.74a16,16,0,0,1,13,1.08,16.84,16.84,0,0,1,7.74,9.34c5.35-.59,10.91,2.15,14.38,6.16a23,23,0,0,1,5.11,18.62,11.86,11.86,0,0,1,6.45,4.9,14,14,0,0,1,2.25,10.25c5.8,3.95,4.66,13.93.7,19.27a10.78,10.78,0,0,1-12.38,3.81,16.46,16.46,0,0,1-5.45-2.91,11,11,0,0,1-2,.92c-4.38,1.53-8.78-.1-12.78-1.94-3.69-1.69-7.39-3.91-8.9-7.89a10.57,10.57,0,0,1-.61-2.5c-5.34-1-10.47-3.81-13.27-8.39a10,10,0,0,1-1.42-5.73c-4.45-1.15-8.45-3.41-10.94-7.74a13.18,13.18,0,0,1-1.31-3.18C286.58,164,279.7,157.72,281.21,149.93Z" transform="translate(-21.71 -16.91)"/><path class="cls-7" d="M372.74,145.72a21.33,21.33,0,0,0-17.6-19.42,31,31,0,0,0-14.1.78c-4.37,1.28-8.07,3.58-11.79,6a81.75,81.75,0,0,1,8.69-54.47c2-3.53-.48-8.37-4.74-8.25L208.71,73.9c-5.89.17-6.87,7.87-2.9,10.26a103.66,103.66,0,0,1,20.63,47.95l-8.93-3.48c-5.76-2.25-11.48-4.41-17.68-5-9.87-.95-21.34,4.08-24.06,14.38-3.05,11.55,6.23,20.93,15.67,25.67,10.4,5.21,22.06,9,33.82,8,5.84-.46,11.55-1.84,17.37-2.45a102.23,102.23,0,0,1,18-.16c11.65.85,23.11,3.31,34.58,5.42,11.8,2.17,23.78,4.13,35.81,4,10.45-.12,21.55-2,30.09-8.37C368.66,164.5,373.55,155.25,372.74,145.72Z" transform="translate(-21.71 -16.91)"/><path class="cls-8" d="M332.58,119.84a8.34,8.34,0,0,0-11.59,0,27.09,27.09,0,0,1-7.65,4.66,45.07,45.07,0,0,1-5.31,1.55q-1.37.31-2.75.56l-1.39.23-.16,0c-8.32,1-16.85.59-25.2.18q-14.36-.7-28.65-2.44c-7-.86-15-2.28-21.16-6.66-3.6-2.58-9.13-.63-11.22,2.94-2.41,4.12-.67,8.63,2.94,11.22,8,5.72,17.74,7.39,27.27,8.63q15.93,2.06,32,2.77c18.3.83,38.46,1.08,52.85-12.07C335.85,128.45,335.61,122.87,332.58,119.84Z" transform="translate(-21.71 -16.91)"/><polygon class="cls-9" points="311.82 80.57 292.84 96.78 268.73 90.33 278.28 113.39 264.7 134.34 289.58 132.38 305.3 151.76 311.13 127.49 334.42 118.53 313.14 105.49 311.82 80.57"/><polygon class="cls-10" points="191.76 289.99 187.06 305.92 171.28 311.08 184.98 320.47 185.02 337.08 198.18 326.95 213.98 332.05 208.42 316.4 218.15 302.94 201.55 303.4 191.76 289.99"/><circle class="cls-11" cx="28.6" cy="196.22" r="24.6"/><circle class="cls-12" cx="125.16" cy="28.6" r="24.6"/><circle class="cls-12" cx="475.58" cy="196.22" r="24.6"/><circle class="cls-11" cx="379.02" cy="28.6" r="24.6"/></g></g></g></svg>