<svg xmlns="http://www.w3.org/2000/svg" viewBox="0 0 1920 1080"><defs><style>.cls-1,.cls-10,.cls-11,.cls-12,.cls-13,.cls-9{fill:#f4eacb;}.cls-2{fill:#f9f5e8;}.cls-15,.cls-16,.cls-3,.cls-4,.cls-5,.cls-6{fill:none;}.cls-3,.cls-4,.cls-5,.cls-6{stroke:#f753aa;stroke-width:15.23px;}.cls-10,.cls-11,.cls-12,.cls-13,.cls-14,.cls-3,.cls-4,.cls-5,.cls-6,.cls-9{stroke-miterlimit:10;}.cls-4{stroke-dasharray:14.47 14.47;}.cls-5{stroke-dasharray:15.12 15.12;}.cls-6{stroke-dasharray:15.25 15.25;}.cls-7,.cls-8{fill:#55cec5;stroke:#4f4e4b;}.cls-7{stroke-width:13.1px;}.cls-8{stroke-width:5.82px;}.cls-10,.cls-11,.cls-12,.cls-13,.cls-9{stroke:#b5b5b5;}.cls-9{stroke-width:6.85px;}.cls-10{stroke-width:4.5px;}.cls-11{stroke-width:2.32px;}.cls-12{stroke-width:1.58px;}.cls-13{stroke-width:2.17px;}.cls-14{stroke:#000;stroke-width:1.42px;}.cls-15{stroke:#fff;stroke-width:11.38px;}.cls-16{stroke:#231f20;stroke-width:5.69px;}.cls-17{fill:#fff;}</style></defs><title>m-bg</title><g id="Layer_2" data-name="Layer 2"><g id="Layer_4" data-name="Layer 4"><g id="bg"><g id="bg-2" data-name="bg"><g id="bg-3" data-name="bg"><polygon class="cls-1" points="0 0 0 2.89 4.97 0 0 0"/><polygon class="cls-1" points="0 444.92 0 666.02 958.5 642.45 0 444.92"/><polygon class="cls-1" points="958.5 642.45 1920 618.8 1920 390.74 958.5 642.45"/><polygon class="cls-2" points="1920 83.13 958.5 642.45 1920 390.74 1920 83.13"/><polygon class="cls-1" points="1920 0 1486.5 0 958.5 642.45 1920 83.13 1920 0"/><polygon class="cls-2" points="1095.74 0 958.5 642.45 1486.5 0 1095.74 0"/><polygon class="cls-1" points="742.13 0 958.5 642.45 1095.74 0 742.13 0"/><polygon class="cls-2" points="328.13 0 958.5 642.45 742.13 0 328.13 0"/><polygon class="cls-1" points="958.5 642.45 328.13 0 4.97 0 0 2.89 0 165.28 958.5 642.45"/><polygon class="cls-2" points="0 444.92 958.5 642.45 0 165.28 0 444.92"/></g><g id="bg-4" data-name="bg"><polygon class="cls-1" points="0 1080 0 1077.64 4.97 1080 0 1080"/><polygon class="cls-1" points="0 717.26 0 537 958.5 556.22 0 717.26"/><polygon class="cls-1" points="958.5 556.22 1920 575.49 1920 761.43 958.5 556.22"/><polygon class="cls-2" points="1920 1012.23 958.5 556.22 1920 761.43 1920 1012.23"/><polygon class="cls-1" points="1920 1080 1486.5 1080 958.5 556.22 1920 1012.23 1920 1080"/><polygon class="cls-2" points="1095.74 1080 958.5 556.22 1486.5 1080 1095.74 1080"/><polygon class="cls-1" points="742.13 1080 958.5 556.22 1095.74 1080 742.13 1080"/><polygon class="cls-2" points="328.13 1080 958.5 556.22 742.13 1080 328.13 1080"/><polygon class="cls-1" points="958.5 556.22 328.13 1080 4.97 1080 0 1077.64 0 945.24 958.5 556.22"/><polygon class="cls-2" points="0 717.26 958.5 556.22 0 945.24 0 717.26"/></g></g><path class="cls-2" d="M170.91,997V958.92a25.74,25.74,0,0,0-25.71-25.71H107.13V146.79h38.08a25.74,25.74,0,0,0,25.71-25.71V83H1757.09v38.08a25.74,25.74,0,0,0,25.71,25.71h38.08V933.21h-38.08a25.74,25.74,0,0,0-25.71,25.71V997Z"/><polyline class="cls-3" points="178.53 997 170.91 997 170.91 989.38"/><path class="cls-4" d="M170.91,974.91v-16a25.74,25.74,0,0,0-25.71-25.71H122"/><polyline class="cls-3" points="114.74 933.21 107.13 933.21 107.13 925.59"/><line class="cls-5" x1="107.13" y1="910.47" x2="107.13" y2="161.97"/><polyline class="cls-3" points="107.13 154.41 107.13 146.79 114.74 146.79"/><path class="cls-4" d="M129.21,146.79h16a25.74,25.74,0,0,0,25.71-25.71V97.85"/><polyline class="cls-3" points="170.91 90.62 170.91 83 178.53 83"/><line class="cls-6" x1="193.78" y1="83" x2="1741.84" y2="83"/><polyline class="cls-3" points="1749.47 83 1757.09 83 1757.09 90.62"/><path class="cls-4" d="M1757.09,105.09v16a25.74,25.74,0,0,0,25.71,25.71H1806"/><polyline class="cls-3" points="1813.26 146.79 1820.88 146.79 1820.88 154.41"/><line class="cls-5" x1="1820.88" y1="169.53" x2="1820.88" y2="918.03"/><polyline class="cls-3" points="1820.88 925.59 1820.88 933.21 1813.26 933.21"/><path class="cls-4" d="M1798.79,933.21h-16a25.74,25.74,0,0,0-25.71,25.71v23.23"/><polyline class="cls-3" points="1757.09 989.38 1757.09 997 1749.47 997"/><line class="cls-6" x1="1734.22" y1="997" x2="186.16" y2="997"/><path class="cls-3" d="M145.21,891.92V188.08a67,67,0,0,0,67-67H1715.79a67,67,0,0,0,67,67V891.92a67,67,0,0,0-67,67H212.21A67,67,0,0,0,145.21,891.92Z"/><g id="welcome"><path class="cls-7" d="M1460.11,296.58q-46.21-15.36-93.09-27.76l11.74-44.34q-26.71-7.07-53.58-13.21-22.06-5-44.23-9.45l12.93-65-1.68-.33q-27.27-5.4-54.67-9.89a1678,1678,0,0,0-542.29,0q-27.82,4.56-55.51,10.05l-.84.17,12.93,65q-22.16,4.41-44.23,9.45-26.88,6.14-53.58,13.21l11.74,44.34q-46.86,12.4-93.09,27.76,28.12,18.27,55,37.51-11.72,30.93-22,62,67.7-22.5,136.88-38.2l-10.16-44.72q45.39-10.32,91.21-17.79l-7-43.11a1550.57,1550.57,0,0,1,499.55,0l-7,43.11q45.8,7.48,91.21,17.79l-10.16,44.72q69.1,15.71,136.88,38.2-10.26-31-22-62Q1432,314.86,1460.11,296.58Z"/><path class="cls-8" d="M472.65,296.58q28.12,18.27,55,37.51-11.72,30.93-22,62,67.7-22.5,136.88-38.2L619.36,255.64Q545.3,272.47,472.65,296.58Z"/><path class="cls-8" d="M640.33,354.64q-29-14.29-59.13-27.41L554,224.49q26.7-7.07,53.58-13.21Z"/><path class="cls-8" d="M723.64,295.35q-71.92,11.74-142.81,30.48L554,224.49q75.73-20,152.75-32.6Z"/><path class="cls-8" d="M722.41,292.6q-28.7-16-58.66-30.79L638.89,136.86q28.11-5.59,56.35-10.22Z"/><path class="cls-8" d="M1460.11,296.58q-28.12,18.27-55,37.51,11.72,30.93,22,62-67.7-22.5-136.88-38.2l23.23-102.22Q1387.46,272.47,1460.11,296.58Z"/><path class="cls-8" d="M1292.43,354.64q29-14.29,59.13-27.41l27.2-102.75q-26.71-7.07-53.58-13.21Z"/><path class="cls-8" d="M1209.12,295.35q71.92,11.74,142.81,30.48l26.82-101.34q-75.73-20-152.75-32.6Z"/><path class="cls-8" d="M1210.35,292.6q28.7-16,58.66-30.79l24.87-124.95q-28.11-5.59-56.35-10.22Z"/><path class="cls-8" d="M1267.46,261.5a1550.52,1550.52,0,0,0-602.93.15l-24.8-125a1677.93,1677.93,0,0,1,652.47-.17Z"/><polygon class="cls-9" points="623.07 85.58 654.32 112.27 694.02 101.66 678.29 139.63 700.66 174.11 659.68 170.88 633.8 202.81 624.21 162.84 585.85 148.09 620.89 126.62 623.07 85.58"/><polygon class="cls-10" points="601.52 203.54 622.06 221.08 648.15 214.1 637.81 239.05 652.51 261.71 625.58 259.59 608.58 280.57 602.27 254.31 577.06 244.62 600.09 230.5 601.52 203.54"/><polygon class="cls-11" points="695.28 280.94 705.85 289.97 719.28 286.38 713.96 299.22 721.53 310.89 707.67 309.8 698.91 320.6 695.66 307.08 682.69 302.09 694.54 294.82 695.28 280.94"/><polygon class="cls-12" points="703.49 114.42 710.72 120.6 719.9 118.14 716.27 126.92 721.44 134.9 711.96 134.16 705.98 141.54 703.75 132.3 694.88 128.88 702.99 123.92 703.49 114.42"/><polygon class="cls-12" points="545.49 372.42 552.72 378.6 561.9 376.14 558.27 384.93 563.44 392.9 553.96 392.16 547.98 399.54 545.75 390.3 536.88 386.88 544.99 381.92 545.49 372.42"/><polygon class="cls-13" points="569.91 264.39 579.79 272.82 592.33 269.47 587.36 281.47 594.43 292.37 581.48 291.35 573.3 301.44 570.27 288.81 558.15 284.14 569.22 277.36 569.91 264.39"/><polygon class="cls-9" points="1305.34 85.58 1274.09 112.27 1234.39 101.66 1250.12 139.63 1227.76 174.11 1268.73 170.88 1294.61 202.81 1304.2 162.84 1342.56 148.09 1307.52 126.62 1305.34 85.58"/><polygon class="cls-10" points="1326.89 203.54 1306.35 221.08 1280.26 214.1 1290.6 239.05 1275.9 261.71 1302.83 259.59 1319.84 280.57 1326.14 254.31 1351.35 244.62 1328.32 230.5 1326.89 203.54"/><polygon class="cls-11" points="1233.13 280.94 1222.56 289.97 1209.13 286.38 1214.45 299.22 1206.88 310.89 1220.74 309.8 1229.5 320.6 1232.75 307.08 1245.72 302.09 1233.87 294.82 1233.13 280.94"/><polygon class="cls-12" points="1224.92 114.42 1217.69 120.6 1208.51 118.14 1212.14 126.92 1206.97 134.9 1216.45 134.16 1222.44 141.54 1224.66 132.3 1233.53 128.88 1225.42 123.92 1224.92 114.42"/><polygon class="cls-12" points="1382.92 372.42 1375.69 378.6 1366.51 376.14 1370.14 384.93 1364.97 392.9 1374.45 392.16 1380.44 399.54 1382.66 390.3 1391.53 386.88 1383.42 381.92 1382.92 372.42"/><polygon class="cls-13" points="1358.5 264.39 1348.63 272.82 1336.08 269.47 1341.05 281.47 1333.98 292.37 1346.93 291.35 1355.11 301.44 1358.14 288.81 1370.26 284.14 1359.19 277.36 1358.5 264.39"/><path class="cls-14" d="M841.16,217.61a1.85,1.85,0,0,1-1.36,1.45,1.88,1.88,0,0,1-1.56-.13,2,2,0,0,1-.9-1.17l-.56-2q-.53-1.9-1.51-5.11-1.25-4.06-2.64-8.66t-3-9.28Q828,188,826,183.51a63.06,63.06,0,0,0-4.51-8.43,41.36,41.36,0,0,0-5.58-7,23,23,0,0,0-6.93-4.8,22.1,22.1,0,0,0-8.48-1.85,27.93,27.93,0,0,0-10.14,1.85,29.42,29.42,0,0,0-9.21,5.2,24.57,24.57,0,0,0-5.85,7.11,19.06,19.06,0,0,0-2.27,8,17.88,17.88,0,0,0,1.43,8,15.94,15.94,0,0,0,4,5.65,17.39,17.39,0,0,0,5.66,3.46,19,19,0,0,0,6.63,1.18,19.43,19.43,0,0,0,6.9-1.26,18,18,0,0,0,4.43-2.35,25.2,25.2,0,0,0,3.14-2.69,16.37,16.37,0,0,0,1.86-2.21,8.11,8.11,0,0,1,.67-.95,2.29,2.29,0,0,1,2.78-1,1.64,1.64,0,0,1,1,1,1.69,1.69,0,0,1-.15,1.42c0,.09-.33.53-.86,1.32a20.27,20.27,0,0,1-2.32,2.79,29.46,29.46,0,0,1-3.82,3.26,22.07,22.07,0,0,1-5.37,2.81,24.54,24.54,0,0,1-8.55,1.6,23.17,23.17,0,0,1-8.13-1.39,21.5,21.5,0,0,1-7-4.19,19.34,19.34,0,0,1-4.89-6.82,20.48,20.48,0,0,1-1.71-9.54,23.1,23.1,0,0,1,2.72-9.53,28.66,28.66,0,0,1,6.85-8.34,37.14,37.14,0,0,1,24.76-8.23,26.09,26.09,0,0,1,11.16,3.5,29.43,29.43,0,0,1,8.42,7.62A59,59,0,0,1,828.82,179a96.7,96.7,0,0,1,4.53,11.26q1.92,5.77,3.45,10.9l.62,2.06q.33,1.1.63,2.21l.57,2.1q.27,1,.45,1.61a639.56,639.56,0,0,1,20.47-69.25,2,2,0,0,1,1.64-1.33,2.34,2.34,0,0,1,1.73.22,1.78,1.78,0,0,1,.9,1.16,15.76,15.76,0,0,1,.06,1.85q0,1.61.09,4.25t.29,6.1q.2,3.46.61,7.42t1,8.2q.63,4.24,1.58,8.39a90.53,90.53,0,0,0,3.61,12.19,33.84,33.84,0,0,0,4.59,8.56,14.21,14.21,0,0,0,5.83,4.66,13,13,0,0,0,7.41.54,18,18,0,0,0,6.89-2.84,25.78,25.78,0,0,0,5.67-5.33,41.77,41.77,0,0,0,4.57-7.23,64.55,64.55,0,0,0,3.55-8.57,88.37,88.37,0,0,0,2.55-9.31,95.35,95.35,0,0,0,1.57-9.43,83.29,83.29,0,0,0,.55-9,57.15,57.15,0,0,0-.46-7.91,38.79,38.79,0,0,0-3.36-11.66,19.53,19.53,0,0,0-6.9-8.1,1.59,1.59,0,0,1-.79-1.15,1.64,1.64,0,0,1,.48-1.43,2.48,2.48,0,0,1,1.51-.76,2.38,2.38,0,0,1,1.7.33,22.19,22.19,0,0,1,4.58,4.08,25.9,25.9,0,0,1,3.43,5.23,35.42,35.42,0,0,1,2.36,6.15,46.56,46.56,0,0,1,1.38,6.84,66.25,66.25,0,0,1,.32,12,89.84,89.84,0,0,1-1.79,13.31A96.24,96.24,0,0,1,913,180.58a58.25,58.25,0,0,1-5.71,11.69,37.62,37.62,0,0,1-7.73,8.81,21.65,21.65,0,0,1-9.92,4.63,17,17,0,0,1-9.3-.53,17.35,17.35,0,0,1-7.21-5.32,36.6,36.6,0,0,1-5.55-9.66,92.55,92.55,0,0,1-4.21-13.51q-.75-3.16-1.3-6.58t-1-6.71q-.4-3.29-.69-6.36t-.45-5.54A635.56,635.56,0,0,0,841.16,217.61Z"/><path class="cls-14" d="M933.82,191.84a8.32,8.32,0,0,0,3.06,2.05,10.51,10.51,0,0,0,8.9-1,15.78,15.78,0,0,0,3.63-3.33,25.69,25.69,0,0,0,2.85-4.43q1.24-2.43,2.23-4.83a1.83,1.83,0,0,1,.71-.86,2.14,2.14,0,0,1,1.06-.33,2,2,0,0,1,1.52.53,1.87,1.87,0,0,1,.63,1.27,1.48,1.48,0,0,1,0,.43,2.06,2.06,0,0,1-.14.38c-2.21,5.17-4.64,9.13-7.32,11.87a14.81,14.81,0,0,1-9.34,4.63,13.29,13.29,0,0,1-6-.75,12.83,12.83,0,0,1-4.45-2.88,14.06,14.06,0,0,1-2.91-4.3,17.24,17.24,0,0,1-1.36-5,15.54,15.54,0,0,1,.14-4.74,11.22,11.22,0,0,1,1.53-3.93,9,9,0,0,1,2.78-2.79,8.37,8.37,0,0,1,3.81-1.26,6.81,6.81,0,0,1,2.53.26,7.2,7.2,0,0,1,2.33,1.16,6.64,6.64,0,0,1,1.76,2,6.53,6.53,0,0,1,.83,2.8,9.88,9.88,0,0,1-.43,3.9,13,13,0,0,1-1.77,3.5,17.5,17.5,0,0,1-2.85,3.1A24.09,24.09,0,0,1,933.82,191.84Zm-1.91-3.08a13.53,13.53,0,0,0,2.83-1.93,12.39,12.39,0,0,0,2.11-2.4,10.12,10.12,0,0,0,1.27-2.65,7.06,7.06,0,0,0,.3-2.71,3,3,0,0,0-1-2.2,2.67,2.67,0,0,0-2-.61,4.09,4.09,0,0,0-2.42,1,5.67,5.67,0,0,0-1.48,2.1,9.43,9.43,0,0,0-.66,2.75,14.83,14.83,0,0,0,0,2.94,10.33,10.33,0,0,0,.39,1.87A19.33,19.33,0,0,0,931.91,188.76Z"/><path class="cls-14" d="M985.21,181.2q-.59,1.15-1.48,2.72t-2,3.27a41.28,41.28,0,0,1-2.47,3.38,22.48,22.48,0,0,1-2.94,3,15.63,15.63,0,0,1-3.37,2.2,9.27,9.27,0,0,1-3.82.91,8.37,8.37,0,0,1-5.45-1.68,16,16,0,0,1-4.06-4.69,32.49,32.49,0,0,1-2.93-6.7,70.51,70.51,0,0,1-2-7.71q-.78-3.94-1.21-7.68t-.61-6.63q-.27-4.19-.25-8.7t.43-8.84a71.29,71.29,0,0,1,1.26-8.23,34.29,34.29,0,0,1,2.18-6.86,14.8,14.8,0,0,1,3.22-4.74,6.53,6.53,0,0,1,4.4-1.86,8,8,0,0,1,3.6.67,6.53,6.53,0,0,1,2.75,2.47,14.47,14.47,0,0,1,1.81,4.52,33.54,33.54,0,0,1,.79,6.84,46.76,46.76,0,0,1-.92,10.35,84.12,84.12,0,0,1-2.9,10.79,117,117,0,0,1-4.33,10.91q-2.48,5.46-5.26,10.69a33.05,33.05,0,0,0,4,9.83c1.58,2.36,3.39,3.51,5.46,3.46a6.44,6.44,0,0,0,4-1.66,22.31,22.31,0,0,0,3.54-3.78,38.9,38.9,0,0,0,2.86-4.4q1.24-2.23,1.93-3.58a1.9,1.9,0,0,1,.75-.78,2.15,2.15,0,0,1,1.08-.27,2,2,0,0,1,1.49.61,1.92,1.92,0,0,1,.57,1.35A2.17,2.17,0,0,1,985.21,181.2Zm-28.06-19.54q.18,3.2.5,6.14t.74,5.63q2.08-4.15,4-8.8t3.36-9.37a80,80,0,0,0,2.29-9.37,41.47,41.47,0,0,0,.69-8.85q-.22-5.9-1.44-8.42c-.82-1.68-1.87-2.5-3.14-2.46a3.11,3.11,0,0,0-2.34,1.53,15.32,15.32,0,0,0-2,4,41.72,41.72,0,0,0-1.5,6q-.63,3.43-1,7.35t-.4,8.18Q956.92,157.46,957.15,161.66Z"/><path class="cls-14" d="M1016.83,182.36q-.36.53-1.22,1.92a31.11,31.11,0,0,1-2.28,3.14A41.56,41.56,0,0,1,1010,191a26.48,26.48,0,0,1-4.29,3.36,23.35,23.35,0,0,1-5.27,2.46,18.49,18.49,0,0,1-6.23.86,13.22,13.22,0,0,1-5.27-1.12,11.44,11.44,0,0,1-3.92-2.94,13.1,13.1,0,0,1-2.49-4.44,18,18,0,0,1-.88-5.65,16.79,16.79,0,0,1,.88-5.63,14.48,14.48,0,0,1,2.52-4.57,11.87,11.87,0,0,1,3.77-3,9.5,9.5,0,0,1,4.59-1,9,9,0,0,1,3.3.66,7.62,7.62,0,0,1,2.47,1.6,7.43,7.43,0,0,1,1.54,2.15,5.12,5.12,0,0,1,.51,2.32,6.77,6.77,0,0,1-.36,2,7.05,7.05,0,0,1-.81,1.65,4,4,0,0,1-1.09,1.11,2,2,0,0,1-1.2.39,2.06,2.06,0,0,1-1.47-.59,1.83,1.83,0,0,1-.54-1.37,1.28,1.28,0,0,1,.2-.7q.2-.29.45-.61a3.48,3.48,0,0,0,.45-.79,3.33,3.33,0,0,0,.22-1.22,2.44,2.44,0,0,0-1-1.93,4.23,4.23,0,0,0-2.7-.92,5.46,5.46,0,0,0-2.94.8A8.23,8.23,0,0,0,988,176.1a11.7,11.7,0,0,0-1.67,3.34,13.15,13.15,0,0,0-.63,4.07,14.16,14.16,0,0,0,.53,3.91,10.31,10.31,0,0,0,1.58,3.29,8,8,0,0,0,2.65,2.31,8.22,8.22,0,0,0,3.81.93,14.37,14.37,0,0,0,5.29-.82,20.43,20.43,0,0,0,4.53-2.3,23.19,23.19,0,0,0,3.7-3.11,41.47,41.47,0,0,0,2.81-3.21,27.52,27.52,0,0,0,1.86-2.65q.68-1.14.81-1.43a1.56,1.56,0,0,1,.77-.73,2.3,2.3,0,0,1,1.13-.21,2,2,0,0,1,1.46.7,1.92,1.92,0,0,1,.49,1.39A2.16,2.16,0,0,1,1016.83,182.36Z"/><path class="cls-14" d="M1037.19,192.53a12.69,12.69,0,0,1-2.32-.45,14.93,14.93,0,0,1-2.17,2.57,12.5,12.5,0,0,1-2.76,2,12.92,12.92,0,0,1-3.36,1.2,13.52,13.52,0,0,1-3.92.22,12.35,12.35,0,0,1-4.45-1.17,11.34,11.34,0,0,1-3.43-2.54,10.5,10.5,0,0,1-2.18-3.69A12.07,12.07,0,0,1,1012,186a11.75,11.75,0,0,1,1.53-5.5,14.86,14.86,0,0,1,3.1-3.76,12.12,12.12,0,0,1,3.43-2.12,6.48,6.48,0,0,1,2.52-.59,2,2,0,0,1,1.37.56,1.6,1.6,0,0,1,.38,1.23,1.47,1.47,0,0,1-.67,1.23,8.28,8.28,0,0,1-1.5.71,10.3,10.3,0,0,0-1.93,1,9,9,0,0,0-1.94,1.69,9.44,9.44,0,0,0-1.54,2.5,9.8,9.8,0,0,0-.74,3.31,8.76,8.76,0,0,0,.35,3.11,7,7,0,0,0,1.39,2.55,7.36,7.36,0,0,0,2.27,1.77,8.05,8.05,0,0,0,3,.81,9,9,0,0,0,5.1-.89,9.07,9.07,0,0,0,3.35-3.08,14.22,14.22,0,0,1-4.81-4.86,10.86,10.86,0,0,1-1.56-6.56,6.91,6.91,0,0,1,1.86-4.51,4.89,4.89,0,0,1,4.13-1.44,6.26,6.26,0,0,1,2.75.92,6.44,6.44,0,0,1,2.14,2.28,11,11,0,0,1,1.26,3.75,20,20,0,0,1,.07,5.29,14.05,14.05,0,0,1-.76,3.29,4,4,0,0,0,.64.12l.69.08a12.69,12.69,0,0,0,3.3,0,8.75,8.75,0,0,0,5.11-2.66,21.37,21.37,0,0,0,2.15-2.65,1.59,1.59,0,0,1,.77-.48,2.38,2.38,0,0,1,1.12-.13,2.06,2.06,0,0,1,1.26.7,1.72,1.72,0,0,1,.45,1.45,2.11,2.11,0,0,1-.33.84c-.18.29-.36.56-.54.81a21.2,21.2,0,0,1-2.48,2.57,13.07,13.07,0,0,1-3.12,2,15.09,15.09,0,0,1-3.83,1.17A15.37,15.37,0,0,1,1037.19,192.53Zm-8-13.47a8,8,0,0,0,.11,2,9,9,0,0,0,.66,2.15,10.7,10.7,0,0,0,1.23,2.08,8.2,8.2,0,0,0,1.82,1.76,13.36,13.36,0,0,0,.35-2,17.8,17.8,0,0,0,0-2.76,14.67,14.67,0,0,0-.39-2.63,6.08,6.08,0,0,0-.84-2,1.81,1.81,0,0,0-1.36-.86,1.55,1.55,0,0,0-.91.37C1029.48,177.43,1029.25,178.07,1029.17,179.06Z"/><path class="cls-14" d="M1059.14,196.46q1-1.36,2.59-3.37t3.3-4q1.71-2,3.35-3.76a28.24,28.24,0,0,1,2.74-2.63,9.71,9.71,0,0,1,3.68-1.89,7.82,7.82,0,0,1,3.24-.17,5.15,5.15,0,0,1,2.33,1,4.93,4.93,0,0,1,1.4,1.77,6.64,6.64,0,0,1,.59,2.3,10,10,0,0,1-.16,2.65c-.1.52-.25,1.21-.47,2s-.44,1.75-.68,2.72-.48,2-.73,3-.48,2-.69,2.92q1.07-1.32,2.42-2.92c.9-1.06,1.81-2.11,2.74-3.15s1.81-2,2.66-2.9a24,24,0,0,1,2.28-2.16,13.5,13.5,0,0,1,5.16-2.94,8.54,8.54,0,0,1,3.82-.17,6.81,6.81,0,0,1,2.91,1.31,5.21,5.21,0,0,1,1.52,2,6.1,6.1,0,0,1,.46,2.35,10.21,10.21,0,0,1-.25,2.31,24.31,24.31,0,0,1-1.06,3.4,30.63,30.63,0,0,0-1.25,4.23,20.74,20.74,0,0,0-.37,2.07,6.19,6.19,0,0,0,0,1.91,3,3,0,0,0,.78,1.52,3.68,3.68,0,0,0,1.87,1,6.12,6.12,0,0,0,2.82,0,12.31,12.31,0,0,0,2.94-1.09A19.91,19.91,0,0,0,1112,204c.95-.72,1.84-1.45,2.67-2.19s1.59-1.47,2.26-2.17,1.23-1.3,1.67-1.8a2,2,0,0,1,1-.62,2.1,2.1,0,0,1,1.14,0,2,2,0,0,1,1.3,1,1.94,1.94,0,0,1,.21,1.44,1.62,1.62,0,0,1-.34.63l-1.28,1.38a30.89,30.89,0,0,1-2.44,2.34c-1,.86-2.09,1.74-3.31,2.65A27.23,27.23,0,0,1,1111,209a17,17,0,0,1-4.2,1.5,9.44,9.44,0,0,1-4.28-.06,8.31,8.31,0,0,1-3.53-1.65,6.52,6.52,0,0,1-1.83-2.56,8,8,0,0,1-.52-3.2,19.22,19.22,0,0,1,.46-3.54,34.66,34.66,0,0,1,1.25-4.36,26.3,26.3,0,0,0,1-3.09,5.57,5.57,0,0,0,.17-1.91,2.08,2.08,0,0,0-.39-1,1.34,1.34,0,0,0-.61-.45l-.48-.14a4.22,4.22,0,0,0-3,.69,20.09,20.09,0,0,0-3.65,2.81q-1.95,1.83-4.07,4.25t-4.26,4.95l-2,2.3a9.44,9.44,0,0,1-1.46,1.39,3.68,3.68,0,0,1-1.23.63,2.73,2.73,0,0,1-1.19,0,2.54,2.54,0,0,1-1.9-1.28,3.69,3.69,0,0,1-.29-2.45q.13-.74.41-2t.59-2.69q.32-1.47.71-3t.7-3q.31-1.44.57-2.56t.36-1.71a2.86,2.86,0,0,0-.16-1.94,1.51,1.51,0,0,0-1-.78,2.87,2.87,0,0,0-1.4.15,6.59,6.59,0,0,0-2,1.22,30.41,30.41,0,0,0-2.35,2.25q-1.44,1.5-3.06,3.36t-3.21,3.83q-1.59,2-2.75,3.56a8.16,8.16,0,0,1-2.64,2.5,3.82,3.82,0,0,1-2.26.44,2.85,2.85,0,0,1-2.13-1.2,3.51,3.51,0,0,1-.41-2.41q0-.15.33-1.77t.74-4q.43-2.34.94-5t.94-5a11.53,11.53,0,0,0,.21-2.3,2.15,2.15,0,0,0-.27-1.3c-.3,0-1,.55-2,1.59a35,35,0,0,0-4,5.6,1.9,1.9,0,0,1-.92.73,2.31,2.31,0,0,1-1.17.15,1.94,1.94,0,0,1-1.38-.76,1.89,1.89,0,0,1-.38-1.39,2,2,0,0,1,.25-.72,30.92,30.92,0,0,1,5.66-7.2c1.71-1.47,3.3-2.09,4.73-1.88a4,4,0,0,1,2,.83,4,4,0,0,1,1.16,1.54,6,6,0,0,1,.44,2,9.9,9.9,0,0,1-.08,2.06q-.64,4.41-1.43,8T1059.14,196.46Z"/><path class="cls-14" d="M1122.33,209.17a8.48,8.48,0,0,0,2.18,3,11.08,11.08,0,0,0,8.89,2.36,16.13,16.13,0,0,0,4.69-1.75,25.61,25.61,0,0,0,4.35-3.06q2.07-1.8,3.9-3.67a1.85,1.85,0,0,1,1-.54,2.27,2.27,0,0,1,1.14.09,2.06,2.06,0,0,1,1.26,1.06,1.86,1.86,0,0,1,.15,1.42,1.4,1.4,0,0,1-.19.39,2.09,2.09,0,0,1-.28.3c-4,4-7.78,6.76-11.35,8.31a15.47,15.47,0,0,1-10.64.82,14.06,14.06,0,0,1-5.51-3,13.12,13.12,0,0,1-3.21-4.34,14,14,0,0,1-1.21-5.08,16.89,16.89,0,0,1,.51-5.15,15.2,15.2,0,0,1,1.86-4.37,11.1,11.1,0,0,1,2.89-3.1,9.15,9.15,0,0,1,3.67-1.57,8.78,8.78,0,0,1,4.1.24,7.19,7.19,0,0,1,2.33,1.18,7.45,7.45,0,0,1,1.81,2,6.72,6.72,0,0,1,1,2.51,6.38,6.38,0,0,1-.22,2.91,9.62,9.62,0,0,1-1.84,3.47,12.88,12.88,0,0,1-3,2.6,17.7,17.7,0,0,1-3.86,1.83A24.64,24.64,0,0,1,1122.33,209.17Zm-.71-3.58a14,14,0,0,0,3.41-.74,12.64,12.64,0,0,0,2.89-1.45,10,10,0,0,0,2.18-2,6.87,6.87,0,0,0,1.27-2.41,3,3,0,0,0-.17-2.43,2.8,2.8,0,0,0-1.66-1.3,4.25,4.25,0,0,0-2.67,0,5.69,5.69,0,0,0-2.18,1.41,9.25,9.25,0,0,0-1.64,2.32,14.43,14.43,0,0,0-1.06,2.74,10.18,10.18,0,0,0-.31,1.89A18.77,18.77,0,0,0,1121.63,205.59Z"/><path class="cls-15" d="M841.16,217.61a1.85,1.85,0,0,1-1.36,1.45,1.88,1.88,0,0,1-1.56-.13,2,2,0,0,1-.9-1.17l-.56-2q-.53-1.9-1.51-5.11-1.25-4.06-2.64-8.66t-3-9.28Q828,188,826,183.51a63.06,63.06,0,0,0-4.51-8.43,41.36,41.36,0,0,0-5.58-7,23,23,0,0,0-6.93-4.8,22.1,22.1,0,0,0-8.48-1.85,27.93,27.93,0,0,0-10.14,1.85,29.42,29.42,0,0,0-9.21,5.2,24.57,24.57,0,0,0-5.85,7.11,19.06,19.06,0,0,0-2.27,8,17.88,17.88,0,0,0,1.43,8,15.94,15.94,0,0,0,4,5.65,17.39,17.39,0,0,0,5.66,3.46,19,19,0,0,0,6.63,1.18,19.43,19.43,0,0,0,6.9-1.26,18,18,0,0,0,4.43-2.35,25.2,25.2,0,0,0,3.14-2.69,16.37,16.37,0,0,0,1.86-2.21,8.11,8.11,0,0,1,.67-.95,2.29,2.29,0,0,1,2.78-1,1.64,1.64,0,0,1,1,1,1.69,1.69,0,0,1-.15,1.42c0,.09-.33.53-.86,1.32a20.27,20.27,0,0,1-2.32,2.79,29.46,29.46,0,0,1-3.82,3.26,22.07,22.07,0,0,1-5.37,2.81,24.54,24.54,0,0,1-8.55,1.6,23.17,23.17,0,0,1-8.13-1.39,21.5,21.5,0,0,1-7-4.19,19.34,19.34,0,0,1-4.89-6.82,20.48,20.48,0,0,1-1.71-9.54,23.1,23.1,0,0,1,2.72-9.53,28.66,28.66,0,0,1,6.85-8.34,37.14,37.14,0,0,1,24.76-8.23,26.09,26.09,0,0,1,11.16,3.5,29.43,29.43,0,0,1,8.42,7.62A59,59,0,0,1,828.82,179a96.7,96.7,0,0,1,4.53,11.26q1.92,5.77,3.45,10.9l.62,2.06q.33,1.1.63,2.21l.57,2.1q.27,1,.45,1.61a639.56,639.56,0,0,1,20.47-69.25,2,2,0,0,1,1.64-1.33,2.34,2.34,0,0,1,1.73.22,1.78,1.78,0,0,1,.9,1.16,15.76,15.76,0,0,1,.06,1.85q0,1.61.09,4.25t.29,6.1q.2,3.46.61,7.42t1,8.2q.63,4.24,1.58,8.39a90.53,90.53,0,0,0,3.61,12.19,33.84,33.84,0,0,0,4.59,8.56,14.21,14.21,0,0,0,5.83,4.66,13,13,0,0,0,7.41.54,18,18,0,0,0,6.89-2.84,25.78,25.78,0,0,0,5.67-5.33,41.77,41.77,0,0,0,4.57-7.23,64.55,64.55,0,0,0,3.55-8.57,88.37,88.37,0,0,0,2.55-9.31,95.35,95.35,0,0,0,1.57-9.43,83.29,83.29,0,0,0,.55-9,57.15,57.15,0,0,0-.46-7.91,38.79,38.79,0,0,0-3.36-11.66,19.53,19.53,0,0,0-6.9-8.1,1.59,1.59,0,0,1-.79-1.15,1.64,1.64,0,0,1,.48-1.43,2.48,2.48,0,0,1,1.51-.76,2.38,2.38,0,0,1,1.7.33,22.19,22.19,0,0,1,4.58,4.08,25.9,25.9,0,0,1,3.43,5.23,35.42,35.42,0,0,1,2.36,6.15,46.56,46.56,0,0,1,1.38,6.84,66.25,66.25,0,0,1,.32,12,89.84,89.84,0,0,1-1.79,13.31A96.24,96.24,0,0,1,913,180.58a58.25,58.25,0,0,1-5.71,11.69,37.62,37.62,0,0,1-7.73,8.81,21.65,21.65,0,0,1-9.92,4.63,17,17,0,0,1-9.3-.53,17.35,17.35,0,0,1-7.21-5.32,36.6,36.6,0,0,1-5.55-9.66,92.55,92.55,0,0,1-4.21-13.51q-.75-3.16-1.3-6.58t-1-6.71q-.4-3.29-.69-6.36t-.45-5.54A635.56,635.56,0,0,0,841.16,217.61Z"/><path class="cls-15" d="M933.82,191.84a8.32,8.32,0,0,0,3.06,2.05,10.51,10.51,0,0,0,8.9-1,15.78,15.78,0,0,0,3.63-3.33,25.69,25.69,0,0,0,2.85-4.43q1.24-2.43,2.23-4.83a1.83,1.83,0,0,1,.71-.86,2.14,2.14,0,0,1,1.06-.33,2,2,0,0,1,1.52.53,1.87,1.87,0,0,1,.63,1.27,1.48,1.48,0,0,1,0,.43,2.06,2.06,0,0,1-.14.38c-2.21,5.17-4.64,9.13-7.32,11.87a14.81,14.81,0,0,1-9.34,4.63,13.29,13.29,0,0,1-6-.75,12.83,12.83,0,0,1-4.45-2.88,14.06,14.06,0,0,1-2.91-4.3,17.24,17.24,0,0,1-1.36-5,15.54,15.54,0,0,1,.14-4.74,11.22,11.22,0,0,1,1.53-3.93,9,9,0,0,1,2.78-2.79,8.37,8.37,0,0,1,3.81-1.26,6.81,6.81,0,0,1,2.53.26,7.2,7.2,0,0,1,2.33,1.16,6.64,6.64,0,0,1,1.76,2,6.53,6.53,0,0,1,.83,2.8,9.88,9.88,0,0,1-.43,3.9,13,13,0,0,1-1.77,3.5,17.5,17.5,0,0,1-2.85,3.1A24.09,24.09,0,0,1,933.82,191.84Zm-1.91-3.08a13.53,13.53,0,0,0,2.83-1.93,12.39,12.39,0,0,0,2.11-2.4,10.12,10.12,0,0,0,1.27-2.65,7.06,7.06,0,0,0,.3-2.71,3,3,0,0,0-1-2.2,2.67,2.67,0,0,0-2-.61,4.09,4.09,0,0,0-2.42,1,5.67,5.67,0,0,0-1.48,2.1,9.43,9.43,0,0,0-.66,2.75,14.83,14.83,0,0,0,0,2.94,10.33,10.33,0,0,0,.39,1.87A19.33,19.33,0,0,0,931.91,188.76Z"/><path class="cls-15" d="M985.21,181.2q-.59,1.15-1.48,2.72t-2,3.27a41.28,41.28,0,0,1-2.47,3.38,22.48,22.48,0,0,1-2.94,3,15.63,15.63,0,0,1-3.37,2.2,9.27,9.27,0,0,1-3.82.91,8.37,8.37,0,0,1-5.45-1.68,16,16,0,0,1-4.06-4.69,32.49,32.49,0,0,1-2.93-6.7,70.51,70.51,0,0,1-2-7.71q-.78-3.94-1.21-7.68t-.61-6.63q-.27-4.19-.25-8.7t.43-8.84a71.29,71.29,0,0,1,1.26-8.23,34.29,34.29,0,0,1,2.18-6.86,14.8,14.8,0,0,1,3.22-4.74,6.53,6.53,0,0,1,4.4-1.86,8,8,0,0,1,3.6.67,6.53,6.53,0,0,1,2.75,2.47,14.47,14.47,0,0,1,1.81,4.52,33.54,33.54,0,0,1,.79,6.84,46.76,46.76,0,0,1-.92,10.35,84.12,84.12,0,0,1-2.9,10.79,117,117,0,0,1-4.33,10.91q-2.48,5.46-5.26,10.69a33.05,33.05,0,0,0,4,9.83c1.58,2.36,3.39,3.51,5.46,3.46a6.44,6.44,0,0,0,4-1.66,22.31,22.31,0,0,0,3.54-3.78,38.9,38.9,0,0,0,2.86-4.4q1.24-2.23,1.93-3.58a1.9,1.9,0,0,1,.75-.78,2.15,2.15,0,0,1,1.08-.27,2,2,0,0,1,1.49.61,1.92,1.92,0,0,1,.57,1.35A2.17,2.17,0,0,1,985.21,181.2Zm-28.06-19.54q.18,3.2.5,6.14t.74,5.63q2.08-4.15,4-8.8t3.36-9.37a80,80,0,0,0,2.29-9.37,41.47,41.47,0,0,0,.69-8.85q-.22-5.9-1.44-8.42c-.82-1.68-1.87-2.5-3.14-2.46a3.11,3.11,0,0,0-2.34,1.53,15.32,15.32,0,0,0-2,4,41.72,41.72,0,0,0-1.5,6q-.63,3.43-1,7.35t-.4,8.18Q956.92,157.46,957.15,161.66Z"/><path class="cls-15" d="M1016.83,182.36q-.36.53-1.22,1.92a31.11,31.11,0,0,1-2.28,3.14A41.56,41.56,0,0,1,1010,191a26.48,26.48,0,0,1-4.29,3.36,23.35,23.35,0,0,1-5.27,2.46,18.49,18.49,0,0,1-6.23.86,13.22,13.22,0,0,1-5.27-1.12,11.44,11.44,0,0,1-3.92-2.94,13.1,13.1,0,0,1-2.49-4.44,18,18,0,0,1-.88-5.65,16.79,16.79,0,0,1,.88-5.63,14.48,14.48,0,0,1,2.52-4.57,11.87,11.87,0,0,1,3.77-3,9.5,9.5,0,0,1,4.59-1,9,9,0,0,1,3.3.66,7.62,7.62,0,0,1,2.47,1.6,7.43,7.43,0,0,1,1.54,2.15,5.12,5.12,0,0,1,.51,2.32,6.77,6.77,0,0,1-.36,2,7.05,7.05,0,0,1-.81,1.65,4,4,0,0,1-1.09,1.11,2,2,0,0,1-1.2.39,2.06,2.06,0,0,1-1.47-.59,1.83,1.83,0,0,1-.54-1.37,1.28,1.28,0,0,1,.2-.7q.2-.29.45-.61a3.48,3.48,0,0,0,.45-.79,3.33,3.33,0,0,0,.22-1.22,2.44,2.44,0,0,0-1-1.93,4.23,4.23,0,0,0-2.7-.92,5.46,5.46,0,0,0-2.94.8A8.23,8.23,0,0,0,988,176.1a11.7,11.7,0,0,0-1.67,3.34,13.15,13.15,0,0,0-.63,4.07,14.16,14.16,0,0,0,.53,3.91,10.31,10.31,0,0,0,1.58,3.29,8,8,0,0,0,2.65,2.31,8.22,8.22,0,0,0,3.81.93,14.37,14.37,0,0,0,5.29-.82,20.43,20.43,0,0,0,4.53-2.3,23.19,23.19,0,0,0,3.7-3.11,41.47,41.47,0,0,0,2.81-3.21,27.52,27.52,0,0,0,1.86-2.65q.68-1.14.81-1.43a1.56,1.56,0,0,1,.77-.73,2.3,2.3,0,0,1,1.13-.21,2,2,0,0,1,1.46.7,1.92,1.92,0,0,1,.49,1.39A2.16,2.16,0,0,1,1016.83,182.36Z"/><path class="cls-15" d="M1037.19,192.53a12.69,12.69,0,0,1-2.32-.45,14.93,14.93,0,0,1-2.17,2.57,12.5,12.5,0,0,1-2.76,2,12.92,12.92,0,0,1-3.36,1.2,13.52,13.52,0,0,1-3.92.22,12.35,12.35,0,0,1-4.45-1.17,11.34,11.34,0,0,1-3.43-2.54,10.5,10.5,0,0,1-2.18-3.69A12.07,12.07,0,0,1,1012,186a11.75,11.75,0,0,1,1.53-5.5,14.86,14.86,0,0,1,3.1-3.76,12.12,12.12,0,0,1,3.43-2.12,6.48,6.48,0,0,1,2.52-.59,2,2,0,0,1,1.37.56,1.6,1.6,0,0,1,.38,1.23,1.47,1.47,0,0,1-.67,1.23,8.28,8.28,0,0,1-1.5.71,10.3,10.3,0,0,0-1.93,1,9,9,0,0,0-1.94,1.69,9.44,9.44,0,0,0-1.54,2.5,9.8,9.8,0,0,0-.74,3.31,8.76,8.76,0,0,0,.35,3.11,7,7,0,0,0,1.39,2.55,7.36,7.36,0,0,0,2.27,1.77,8.05,8.05,0,0,0,3,.81,9,9,0,0,0,5.1-.89,9.07,9.07,0,0,0,3.35-3.08,14.22,14.22,0,0,1-4.81-4.86,10.86,10.86,0,0,1-1.56-6.56,6.91,6.91,0,0,1,1.86-4.51,4.89,4.89,0,0,1,4.13-1.44,6.26,6.26,0,0,1,2.75.92,6.44,6.44,0,0,1,2.14,2.28,11,11,0,0,1,1.26,3.75,20,20,0,0,1,.07,5.29,14.05,14.05,0,0,1-.76,3.29,4,4,0,0,0,.64.12l.69.08a12.69,12.69,0,0,0,3.3,0,8.75,8.75,0,0,0,5.11-2.66,21.37,21.37,0,0,0,2.15-2.65,1.59,1.59,0,0,1,.77-.48,2.38,2.38,0,0,1,1.12-.13,2.06,2.06,0,0,1,1.26.7,1.72,1.72,0,0,1,.45,1.45,2.11,2.11,0,0,1-.33.84c-.18.29-.36.56-.54.81a21.2,21.2,0,0,1-2.48,2.57,13.07,13.07,0,0,1-3.12,2,15.09,15.09,0,0,1-3.83,1.17A15.37,15.37,0,0,1,1037.19,192.53Zm-8-13.47a8,8,0,0,0,.11,2,9,9,0,0,0,.66,2.15,10.7,10.7,0,0,0,1.23,2.08,8.2,8.2,0,0,0,1.82,1.76,13.36,13.36,0,0,0,.35-2,17.8,17.8,0,0,0,0-2.76,14.67,14.67,0,0,0-.39-2.63,6.08,6.08,0,0,0-.84-2,1.81,1.81,0,0,0-1.36-.86,1.55,1.55,0,0,0-.91.37C1029.48,177.43,1029.25,178.07,1029.17,179.06Z"/><path class="cls-15" d="M1059.14,196.46q1-1.36,2.59-3.37t3.3-4q1.71-2,3.35-3.76a28.24,28.24,0,0,1,2.74-2.63,9.71,9.71,0,0,1,3.68-1.89,7.82,7.82,0,0,1,3.24-.17,5.15,5.15,0,0,1,2.33,1,4.93,4.93,0,0,1,1.4,1.77,6.64,6.64,0,0,1,.59,2.3,10,10,0,0,1-.16,2.65c-.1.52-.25,1.21-.47,2s-.44,1.75-.68,2.72-.48,2-.73,3-.48,2-.69,2.92q1.07-1.32,2.42-2.92c.9-1.06,1.81-2.11,2.74-3.15s1.81-2,2.66-2.9a24,24,0,0,1,2.28-2.16,13.5,13.5,0,0,1,5.16-2.94,8.54,8.54,0,0,1,3.82-.17,6.81,6.81,0,0,1,2.91,1.31,5.21,5.21,0,0,1,1.52,2,6.1,6.1,0,0,1,.46,2.35,10.21,10.21,0,0,1-.25,2.31,24.31,24.31,0,0,1-1.06,3.4,30.63,30.63,0,0,0-1.25,4.23,20.74,20.74,0,0,0-.37,2.07,6.19,6.19,0,0,0,0,1.91,3,3,0,0,0,.78,1.52,3.68,3.68,0,0,0,1.87,1,6.12,6.12,0,0,0,2.82,0,12.31,12.31,0,0,0,2.94-1.09A19.91,19.91,0,0,0,1112,204c.95-.72,1.84-1.45,2.67-2.19s1.59-1.47,2.26-2.17,1.23-1.3,1.67-1.8a2,2,0,0,1,1-.62,2.1,2.1,0,0,1,1.14,0,2,2,0,0,1,1.3,1,1.94,1.94,0,0,1,.21,1.44,1.62,1.62,0,0,1-.34.63l-1.28,1.38a30.89,30.89,0,0,1-2.44,2.34c-1,.86-2.09,1.74-3.31,2.65A27.23,27.23,0,0,1,1111,209a17,17,0,0,1-4.2,1.5,9.44,9.44,0,0,1-4.28-.06,8.31,8.31,0,0,1-3.53-1.65,6.52,6.52,0,0,1-1.83-2.56,8,8,0,0,1-.52-3.2,19.22,19.22,0,0,1,.46-3.54,34.66,34.66,0,0,1,1.25-4.36,26.3,26.3,0,0,0,1-3.09,5.57,5.57,0,0,0,.17-1.91,2.08,2.08,0,0,0-.39-1,1.34,1.34,0,0,0-.61-.45l-.48-.14a4.22,4.22,0,0,0-3,.69,20.09,20.09,0,0,0-3.65,2.81q-1.95,1.83-4.07,4.25t-4.26,4.95l-2,2.3a9.44,9.44,0,0,1-1.46,1.39,3.68,3.68,0,0,1-1.23.63,2.73,2.73,0,0,1-1.19,0,2.54,2.54,0,0,1-1.9-1.28,3.69,3.69,0,0,1-.29-2.45q.13-.74.41-2t.59-2.69q.32-1.47.71-3t.7-3q.31-1.44.57-2.56t.36-1.71a2.86,2.86,0,0,0-.16-1.94,1.51,1.51,0,0,0-1-.78,2.87,2.87,0,0,0-1.4.15,6.59,6.59,0,0,0-2,1.22,30.41,30.41,0,0,0-2.35,2.25q-1.44,1.5-3.06,3.36t-3.21,3.83q-1.59,2-2.75,3.56a8.16,8.16,0,0,1-2.64,2.5,3.82,3.82,0,0,1-2.26.44,2.85,2.85,0,0,1-2.13-1.2,3.51,3.51,0,0,1-.41-2.41q0-.15.33-1.77t.74-4q.43-2.34.94-5t.94-5a11.53,11.53,0,0,0,.21-2.3,2.15,2.15,0,0,0-.27-1.3c-.3,0-1,.55-2,1.59a35,35,0,0,0-4,5.6,1.9,1.9,0,0,1-.92.73,2.31,2.31,0,0,1-1.17.15,1.94,1.94,0,0,1-1.38-.76,1.89,1.89,0,0,1-.38-1.39,2,2,0,0,1,.25-.72,30.92,30.92,0,0,1,5.66-7.2c1.71-1.47,3.3-2.09,4.73-1.88a4,4,0,0,1,2,.83,4,4,0,0,1,1.16,1.54,6,6,0,0,1,.44,2,9.9,9.9,0,0,1-.08,2.06q-.64,4.41-1.43,8T1059.14,196.46Z"/><path class="cls-15" d="M1122.33,209.17a8.48,8.48,0,0,0,2.18,3,11.08,11.08,0,0,0,8.89,2.36,16.13,16.13,0,0,0,4.69-1.75,25.61,25.61,0,0,0,4.35-3.06q2.07-1.8,3.9-3.67a1.85,1.85,0,0,1,1-.54,2.27,2.27,0,0,1,1.14.09,2.06,2.06,0,0,1,1.26,1.06,1.86,1.86,0,0,1,.15,1.42,1.4,1.4,0,0,1-.19.39,2.09,2.09,0,0,1-.28.3c-4,4-7.78,6.76-11.35,8.31a15.47,15.47,0,0,1-10.64.82,14.06,14.06,0,0,1-5.51-3,13.12,13.12,0,0,1-3.21-4.34,14,14,0,0,1-1.21-5.08,16.89,16.89,0,0,1,.51-5.15,15.2,15.2,0,0,1,1.86-4.37,11.1,11.1,0,0,1,2.89-3.1,9.15,9.15,0,0,1,3.67-1.57,8.78,8.78,0,0,1,4.1.24,7.19,7.19,0,0,1,2.33,1.18,7.45,7.45,0,0,1,1.81,2,6.72,6.72,0,0,1,1,2.51,6.38,6.38,0,0,1-.22,2.91,9.62,9.62,0,0,1-1.84,3.47,12.88,12.88,0,0,1-3,2.6,17.7,17.7,0,0,1-3.86,1.83A24.64,24.64,0,0,1,1122.33,209.17Zm-.71-3.58a14,14,0,0,0,3.41-.74,12.64,12.64,0,0,0,2.89-1.45,10,10,0,0,0,2.18-2,6.87,6.87,0,0,0,1.27-2.41,3,3,0,0,0-.17-2.43,2.8,2.8,0,0,0-1.66-1.3,4.25,4.25,0,0,0-2.67,0,5.69,5.69,0,0,0-2.18,1.41,9.25,9.25,0,0,0-1.64,2.32,14.43,14.43,0,0,0-1.06,2.74,10.18,10.18,0,0,0-.31,1.89A18.77,18.77,0,0,0,1121.63,205.59Z"/><path class="cls-16" d="M841.16,217.61a1.85,1.85,0,0,1-1.36,1.45,1.88,1.88,0,0,1-1.56-.13,2,2,0,0,1-.9-1.17l-.56-2q-.53-1.9-1.51-5.11-1.25-4.06-2.64-8.66t-3-9.28Q828,188,826,183.51a63.06,63.06,0,0,0-4.51-8.43,41.36,41.36,0,0,0-5.58-7,23,23,0,0,0-6.93-4.8,22.1,22.1,0,0,0-8.48-1.85,27.93,27.93,0,0,0-10.14,1.85,29.42,29.42,0,0,0-9.21,5.2,24.57,24.57,0,0,0-5.85,7.11,19.06,19.06,0,0,0-2.27,8,17.88,17.88,0,0,0,1.43,8,15.94,15.94,0,0,0,4,5.65,17.39,17.39,0,0,0,5.66,3.46,19,19,0,0,0,6.63,1.18,19.43,19.43,0,0,0,6.9-1.26,18,18,0,0,0,4.43-2.35,25.2,25.2,0,0,0,3.14-2.69,16.37,16.37,0,0,0,1.86-2.21,8.11,8.11,0,0,1,.67-.95,2.29,2.29,0,0,1,2.78-1,1.64,1.64,0,0,1,1,1,1.69,1.69,0,0,1-.15,1.42c0,.09-.33.53-.86,1.32a20.27,20.27,0,0,1-2.32,2.79,29.46,29.46,0,0,1-3.82,3.26,22.07,22.07,0,0,1-5.37,2.81,24.54,24.54,0,0,1-8.55,1.6,23.17,23.17,0,0,1-8.13-1.39,21.5,21.5,0,0,1-7-4.19,19.34,19.34,0,0,1-4.89-6.82,20.48,20.48,0,0,1-1.71-9.54,23.1,23.1,0,0,1,2.72-9.53,28.66,28.66,0,0,1,6.85-8.34,37.14,37.14,0,0,1,24.76-8.23,26.09,26.09,0,0,1,11.16,3.5,29.43,29.43,0,0,1,8.42,7.62A59,59,0,0,1,828.82,179a96.7,96.7,0,0,1,4.53,11.26q1.92,5.77,3.45,10.9l.62,2.06q.33,1.1.63,2.21l.57,2.1q.27,1,.45,1.61a639.56,639.56,0,0,1,20.47-69.25,2,2,0,0,1,1.64-1.33,2.34,2.34,0,0,1,1.73.22,1.78,1.78,0,0,1,.9,1.16,15.76,15.76,0,0,1,.06,1.85q0,1.61.09,4.25t.29,6.1q.2,3.46.61,7.42t1,8.2q.63,4.24,1.58,8.39a90.53,90.53,0,0,0,3.61,12.19,33.84,33.84,0,0,0,4.59,8.56,14.21,14.21,0,0,0,5.83,4.66,13,13,0,0,0,7.41.54,18,18,0,0,0,6.89-2.84,25.78,25.78,0,0,0,5.67-5.33,41.77,41.77,0,0,0,4.57-7.23,64.55,64.55,0,0,0,3.55-8.57,88.37,88.37,0,0,0,2.55-9.31,95.35,95.35,0,0,0,1.57-9.43,83.29,83.29,0,0,0,.55-9,57.15,57.15,0,0,0-.46-7.91,38.79,38.79,0,0,0-3.36-11.66,19.53,19.53,0,0,0-6.9-8.1,1.59,1.59,0,0,1-.79-1.15,1.64,1.64,0,0,1,.48-1.43,2.48,2.48,0,0,1,1.51-.76,2.38,2.38,0,0,1,1.7.33,22.19,22.19,0,0,1,4.58,4.08,25.9,25.9,0,0,1,3.43,5.23,35.42,35.42,0,0,1,2.36,6.15,46.56,46.56,0,0,1,1.38,6.84,66.25,66.25,0,0,1,.32,12,89.84,89.84,0,0,1-1.79,13.31A96.24,96.24,0,0,1,913,180.58a58.25,58.25,0,0,1-5.71,11.69,37.62,37.62,0,0,1-7.73,8.81,21.65,21.65,0,0,1-9.92,4.63,17,17,0,0,1-9.3-.53,17.35,17.35,0,0,1-7.21-5.32,36.6,36.6,0,0,1-5.55-9.66,92.55,92.55,0,0,1-4.21-13.51q-.75-3.16-1.3-6.58t-1-6.71q-.4-3.29-.69-6.36t-.45-5.54A635.56,635.56,0,0,0,841.16,217.61Z"/><path class="cls-16" d="M933.82,191.84a8.32,8.32,0,0,0,3.06,2.05,10.51,10.51,0,0,0,8.9-1,15.78,15.78,0,0,0,3.63-3.33,25.69,25.69,0,0,0,2.85-4.43q1.24-2.43,2.23-4.83a1.83,1.83,0,0,1,.71-.86,2.14,2.14,0,0,1,1.06-.33,2,2,0,0,1,1.52.53,1.87,1.87,0,0,1,.63,1.27,1.48,1.48,0,0,1,0,.43,2.06,2.06,0,0,1-.14.38c-2.21,5.17-4.64,9.13-7.32,11.87a14.81,14.81,0,0,1-9.34,4.63,13.29,13.29,0,0,1-6-.75,12.83,12.83,0,0,1-4.45-2.88,14.06,14.06,0,0,1-2.91-4.3,17.24,17.24,0,0,1-1.36-5,15.54,15.54,0,0,1,.14-4.74,11.22,11.22,0,0,1,1.53-3.93,9,9,0,0,1,2.78-2.79,8.37,8.37,0,0,1,3.81-1.26,6.81,6.81,0,0,1,2.53.26,7.2,7.2,0,0,1,2.33,1.16,6.64,6.64,0,0,1,1.76,2,6.53,6.53,0,0,1,.83,2.8,9.88,9.88,0,0,1-.43,3.9,13,13,0,0,1-1.77,3.5,17.5,17.5,0,0,1-2.85,3.1A24.09,24.09,0,0,1,933.82,191.84Zm-1.91-3.08a13.53,13.53,0,0,0,2.83-1.93,12.39,12.39,0,0,0,2.11-2.4,10.12,10.12,0,0,0,1.27-2.65,7.06,7.06,0,0,0,.3-2.71,3,3,0,0,0-1-2.2,2.67,2.67,0,0,0-2-.61,4.09,4.09,0,0,0-2.42,1,5.67,5.67,0,0,0-1.48,2.1,9.43,9.43,0,0,0-.66,2.75,14.83,14.83,0,0,0,0,2.94,10.33,10.33,0,0,0,.39,1.87A19.33,19.33,0,0,0,931.91,188.76Z"/><path class="cls-16" d="M985.21,181.2q-.59,1.15-1.48,2.72t-2,3.27a41.28,41.28,0,0,1-2.47,3.38,22.48,22.48,0,0,1-2.94,3,15.63,15.63,0,0,1-3.37,2.2,9.27,9.27,0,0,1-3.82.91,8.37,8.37,0,0,1-5.45-1.68,16,16,0,0,1-4.06-4.69,32.49,32.49,0,0,1-2.93-6.7,70.51,70.51,0,0,1-2-7.71q-.78-3.94-1.21-7.68t-.61-6.63q-.27-4.19-.25-8.7t.43-8.84a71.29,71.29,0,0,1,1.26-8.23,34.29,34.29,0,0,1,2.18-6.86,14.8,14.8,0,0,1,3.22-4.74,6.53,6.53,0,0,1,4.4-1.86,8,8,0,0,1,3.6.67,6.53,6.53,0,0,1,2.75,2.47,14.47,14.47,0,0,1,1.81,4.52,33.54,33.54,0,0,1,.79,6.84,46.76,46.76,0,0,1-.92,10.35,84.12,84.12,0,0,1-2.9,10.79,117,117,0,0,1-4.33,10.91q-2.48,5.46-5.26,10.69a33.05,33.05,0,0,0,4,9.83c1.58,2.36,3.39,3.51,5.46,3.46a6.44,6.44,0,0,0,4-1.66,22.31,22.31,0,0,0,3.54-3.78,38.9,38.9,0,0,0,2.86-4.4q1.24-2.23,1.93-3.58a1.9,1.9,0,0,1,.75-.78,2.15,2.15,0,0,1,1.08-.27,2,2,0,0,1,1.49.61,1.92,1.92,0,0,1,.57,1.35A2.17,2.17,0,0,1,985.21,181.2Zm-28.06-19.54q.18,3.2.5,6.14t.74,5.63q2.08-4.15,4-8.8t3.36-9.37a80,80,0,0,0,2.29-9.37,41.47,41.47,0,0,0,.69-8.85q-.22-5.9-1.44-8.42c-.82-1.68-1.87-2.5-3.14-2.46a3.11,3.11,0,0,0-2.34,1.53,15.32,15.32,0,0,0-2,4,41.72,41.72,0,0,0-1.5,6q-.63,3.43-1,7.35t-.4,8.18Q956.92,157.46,957.15,161.66Z"/><path class="cls-16" d="M1016.83,182.36q-.36.53-1.22,1.92a31.11,31.11,0,0,1-2.28,3.14A41.56,41.56,0,0,1,1010,191a26.48,26.48,0,0,1-4.29,3.36,23.35,23.35,0,0,1-5.27,2.46,18.49,18.49,0,0,1-6.23.86,13.22,13.22,0,0,1-5.27-1.12,11.44,11.44,0,0,1-3.92-2.94,13.1,13.1,0,0,1-2.49-4.44,18,18,0,0,1-.88-5.65,16.79,16.79,0,0,1,.88-5.63,14.48,14.48,0,0,1,2.52-4.57,11.87,11.87,0,0,1,3.77-3,9.5,9.5,0,0,1,4.59-1,9,9,0,0,1,3.3.66,7.62,7.62,0,0,1,2.47,1.6,7.43,7.43,0,0,1,1.54,2.15,5.12,5.12,0,0,1,.51,2.32,6.77,6.77,0,0,1-.36,2,7.05,7.05,0,0,1-.81,1.65,4,4,0,0,1-1.09,1.11,2,2,0,0,1-1.2.39,2.06,2.06,0,0,1-1.47-.59,1.83,1.83,0,0,1-.54-1.37,1.28,1.28,0,0,1,.2-.7q.2-.29.45-.61a3.48,3.48,0,0,0,.45-.79,3.33,3.33,0,0,0,.22-1.22,2.44,2.44,0,0,0-1-1.93,4.23,4.23,0,0,0-2.7-.92,5.46,5.46,0,0,0-2.94.8A8.23,8.23,0,0,0,988,176.1a11.7,11.7,0,0,0-1.67,3.34,13.15,13.15,0,0,0-.63,4.07,14.16,14.16,0,0,0,.53,3.91,10.31,10.31,0,0,0,1.58,3.29,8,8,0,0,0,2.65,2.31,8.22,8.22,0,0,0,3.81.93,14.37,14.37,0,0,0,5.29-.82,20.43,20.43,0,0,0,4.53-2.3,23.19,23.19,0,0,0,3.7-3.11,41.47,41.47,0,0,0,2.81-3.21,27.52,27.52,0,0,0,1.86-2.65q.68-1.14.81-1.43a1.56,1.56,0,0,1,.77-.73,2.3,2.3,0,0,1,1.13-.21,2,2,0,0,1,1.46.7,1.92,1.92,0,0,1,.49,1.39A2.16,2.16,0,0,1,1016.83,182.36Z"/><path class="cls-16" d="M1037.19,192.53a12.69,12.69,0,0,1-2.32-.45,14.93,14.93,0,0,1-2.17,2.57,12.5,12.5,0,0,1-2.76,2,12.92,12.92,0,0,1-3.36,1.2,13.52,13.52,0,0,1-3.92.22,12.35,12.35,0,0,1-4.45-1.17,11.34,11.34,0,0,1-3.43-2.54,10.5,10.5,0,0,1-2.18-3.69A12.07,12.07,0,0,1,1012,186a11.75,11.75,0,0,1,1.53-5.5,14.86,14.86,0,0,1,3.1-3.76,12.12,12.12,0,0,1,3.43-2.12,6.48,6.48,0,0,1,2.52-.59,2,2,0,0,1,1.37.56,1.6,1.6,0,0,1,.38,1.23,1.47,1.47,0,0,1-.67,1.23,8.28,8.28,0,0,1-1.5.71,10.3,10.3,0,0,0-1.93,1,9,9,0,0,0-1.94,1.69,9.44,9.44,0,0,0-1.54,2.5,9.8,9.8,0,0,0-.74,3.31,8.76,8.76,0,0,0,.35,3.11,7,7,0,0,0,1.39,2.55,7.36,7.36,0,0,0,2.27,1.77,8.05,8.05,0,0,0,3,.81,9,9,0,0,0,5.1-.89,9.07,9.07,0,0,0,3.35-3.08,14.22,14.22,0,0,1-4.81-4.86,10.86,10.86,0,0,1-1.56-6.56,6.91,6.91,0,0,1,1.86-4.51,4.89,4.89,0,0,1,4.13-1.44,6.26,6.26,0,0,1,2.75.92,6.44,6.44,0,0,1,2.14,2.28,11,11,0,0,1,1.26,3.75,20,20,0,0,1,.07,5.29,14.05,14.05,0,0,1-.76,3.29,4,4,0,0,0,.64.12l.69.08a12.69,12.69,0,0,0,3.3,0,8.75,8.75,0,0,0,5.11-2.66,21.37,21.37,0,0,0,2.15-2.65,1.59,1.59,0,0,1,.77-.48,2.38,2.38,0,0,1,1.12-.13,2.06,2.06,0,0,1,1.26.7,1.72,1.72,0,0,1,.45,1.45,2.11,2.11,0,0,1-.33.84c-.18.29-.36.56-.54.81a21.2,21.2,0,0,1-2.48,2.57,13.07,13.07,0,0,1-3.12,2,15.09,15.09,0,0,1-3.83,1.17A15.37,15.37,0,0,1,1037.19,192.53Zm-8-13.47a8,8,0,0,0,.11,2,9,9,0,0,0,.66,2.15,10.7,10.7,0,0,0,1.23,2.08,8.2,8.2,0,0,0,1.82,1.76,13.36,13.36,0,0,0,.35-2,17.8,17.8,0,0,0,0-2.76,14.67,14.67,0,0,0-.39-2.63,6.08,6.08,0,0,0-.84-2,1.81,1.81,0,0,0-1.36-.86,1.55,1.55,0,0,0-.91.37C1029.48,177.43,1029.25,178.07,1029.17,179.06Z"/><path class="cls-16" d="M1059.14,196.46q1-1.36,2.59-3.37t3.3-4q1.71-2,3.35-3.76a28.24,28.24,0,0,1,2.74-2.63,9.71,9.71,0,0,1,3.68-1.89,7.82,7.82,0,0,1,3.24-.17,5.15,5.15,0,0,1,2.33,1,4.93,4.93,0,0,1,1.4,1.77,6.64,6.64,0,0,1,.59,2.3,10,10,0,0,1-.16,2.65c-.1.52-.25,1.21-.47,2s-.44,1.75-.68,2.72-.48,2-.73,3-.48,2-.69,2.92q1.07-1.32,2.42-2.92c.9-1.06,1.81-2.11,2.74-3.15s1.81-2,2.66-2.9a24,24,0,0,1,2.28-2.16,13.5,13.5,0,0,1,5.16-2.94,8.54,8.54,0,0,1,3.82-.17,6.81,6.81,0,0,1,2.91,1.31,5.21,5.21,0,0,1,1.52,2,6.1,6.1,0,0,1,.46,2.35,10.21,10.21,0,0,1-.25,2.31,24.31,24.31,0,0,1-1.06,3.4,30.63,30.63,0,0,0-1.25,4.23,20.74,20.74,0,0,0-.37,2.07,6.19,6.19,0,0,0,0,1.91,3,3,0,0,0,.78,1.52,3.68,3.68,0,0,0,1.87,1,6.12,6.12,0,0,0,2.82,0,12.31,12.31,0,0,0,2.94-1.09A19.91,19.91,0,0,0,1112,204c.95-.72,1.84-1.45,2.67-2.19s1.59-1.47,2.26-2.17,1.23-1.3,1.67-1.8a2,2,0,0,1,1-.62,2.1,2.1,0,0,1,1.14,0,2,2,0,0,1,1.3,1,1.94,1.94,0,0,1,.21,1.44,1.62,1.62,0,0,1-.34.63l-1.28,1.38a30.89,30.89,0,0,1-2.44,2.34c-1,.86-2.09,1.74-3.31,2.65A27.23,27.23,0,0,1,1111,209a17,17,0,0,1-4.2,1.5,9.44,9.44,0,0,1-4.28-.06,8.31,8.31,0,0,1-3.53-1.65,6.52,6.52,0,0,1-1.83-2.56,8,8,0,0,1-.52-3.2,19.22,19.22,0,0,1,.46-3.54,34.66,34.66,0,0,1,1.25-4.36,26.3,26.3,0,0,0,1-3.09,5.57,5.57,0,0,0,.17-1.91,2.08,2.08,0,0,0-.39-1,1.34,1.34,0,0,0-.61-.45l-.48-.14a4.22,4.22,0,0,0-3,.69,20.09,20.09,0,0,0-3.65,2.81q-1.95,1.83-4.07,4.25t-4.26,4.95l-2,2.3a9.44,9.44,0,0,1-1.46,1.39,3.68,3.68,0,0,1-1.23.63,2.73,2.73,0,0,1-1.19,0,2.54,2.54,0,0,1-1.9-1.28,3.69,3.69,0,0,1-.29-2.45q.13-.74.41-2t.59-2.69q.32-1.47.71-3t.7-3q.31-1.44.57-2.56t.36-1.71a2.86,2.86,0,0,0-.16-1.94,1.51,1.51,0,0,0-1-.78,2.87,2.87,0,0,0-1.4.15,6.59,6.59,0,0,0-2,1.22,30.41,30.41,0,0,0-2.35,2.25q-1.44,1.5-3.06,3.36t-3.21,3.83q-1.59,2-2.75,3.56a8.16,8.16,0,0,1-2.64,2.5,3.82,3.82,0,0,1-2.26.44,2.85,2.85,0,0,1-2.13-1.2,3.51,3.51,0,0,1-.41-2.41q0-.15.33-1.77t.74-4q.43-2.34.94-5t.94-5a11.53,11.53,0,0,0,.21-2.3,2.15,2.15,0,0,0-.27-1.3c-.3,0-1,.55-2,1.59a35,35,0,0,0-4,5.6,1.9,1.9,0,0,1-.92.73,2.31,2.31,0,0,1-1.17.15,1.94,1.94,0,0,1-1.38-.76,1.89,1.89,0,0,1-.38-1.39,2,2,0,0,1,.25-.72,30.92,30.92,0,0,1,5.66-7.2c1.71-1.47,3.3-2.09,4.73-1.88a4,4,0,0,1,2,.83,4,4,0,0,1,1.16,1.54,6,6,0,0,1,.44,2,9.9,9.9,0,0,1-.08,2.06q-.64,4.41-1.43,8T1059.14,196.46Z"/><path class="cls-16" d="M1122.33,209.17a8.48,8.48,0,0,0,2.18,3,11.08,11.08,0,0,0,8.89,2.36,16.13,16.13,0,0,0,4.69-1.75,25.61,25.61,0,0,0,4.35-3.06q2.07-1.8,3.9-3.67a1.85,1.85,0,0,1,1-.54,2.27,2.27,0,0,1,1.14.09,2.06,2.06,0,0,1,1.26,1.06,1.86,1.86,0,0,1,.15,1.42,1.4,1.4,0,0,1-.19.39,2.09,2.09,0,0,1-.28.3c-4,4-7.78,6.76-11.35,8.31a15.47,15.47,0,0,1-10.64.82,14.06,14.06,0,0,1-5.51-3,13.12,13.12,0,0,1-3.21-4.34,14,14,0,0,1-1.21-5.08,16.89,16.89,0,0,1,.51-5.15,15.2,15.2,0,0,1,1.86-4.37,11.1,11.1,0,0,1,2.89-3.1,9.15,9.15,0,0,1,3.67-1.57,8.78,8.78,0,0,1,4.1.24,7.19,7.19,0,0,1,2.33,1.18,7.45,7.45,0,0,1,1.81,2,6.72,6.72,0,0,1,1,2.51,6.38,6.38,0,0,1-.22,2.91,9.62,9.62,0,0,1-1.84,3.47,12.88,12.88,0,0,1-3,2.6,17.7,17.7,0,0,1-3.86,1.83A24.64,24.64,0,0,1,1122.33,209.17Zm-.71-3.58a14,14,0,0,0,3.41-.74,12.64,12.64,0,0,0,2.89-1.45,10,10,0,0,0,2.18-2,6.87,6.87,0,0,0,1.27-2.41,3,3,0,0,0-.17-2.43,2.8,2.8,0,0,0-1.66-1.3,4.25,4.25,0,0,0-2.67,0,5.69,5.69,0,0,0-2.18,1.41,9.25,9.25,0,0,0-1.64,2.32,14.43,14.43,0,0,0-1.06,2.74,10.18,10.18,0,0,0-.31,1.89A18.77,18.77,0,0,0,1121.63,205.59Z"/><path d="M763.47,153.46q7.36,1.31,14.59,2.81,6.23-4.46,12.62-8.78-.41,6.59-.71,13.17,6.07,3.4,12,6.94-7.2,2.25-14.36,4.69-2.31,6.42-4.46,12.86-4.26-5-8.61-10-7.48.79-15,1.81,4.34-5.82,8.87-11.58Q766,159.44,763.47,153.46Z"/><path class="cls-17" d="M783.74,188.32q-4.95-5.84-10-11.6-8.69.94-17.43,2.18,5-6.82,10.27-13.54-2.9-7-5.82-13.91,8.61,1.48,17.06,3.23,7.29-5.2,14.78-10.2-.52,7.68-.9,15.35,7.06,4,13.93,8.15-8.38,2.56-16.7,5.39Q786.21,180.83,783.74,188.32Zm-20.89-13.21q6.28-.81,12.54-1.46,3.63,4.14,7.19,8.33,1.81-5.38,3.75-10.75,6-2.06,12-4-5-2.92-10.06-5.74.24-5.5.55-11-5.29,3.62-10.48,7.34-6-1.25-12.14-2.37l4.11,10Q766.5,170.27,762.85,175.11Z"/><path d="M1124.1,136.18q-.07,6.55-.21,13.09,6.25,4.35,12.35,8.84-7.34,1.1-14.58,2.41-2.33,6-4.63,12.09-4.17-5.68-8.52-11.29-7.49-.4-14.94-.59,4.3-5.07,8.71-10.07-2.6-6.32-5.36-12.62,7.42,2.4,14.78,5Q1117.82,139.54,1124.1,136.18Z"/><path class="cls-17" d="M1117.54,175.86q-4.8-6.62-9.87-13.15-8.7-.45-17.35-.62,5-5.93,10.08-11.78-3-7.35-6.32-14.67,8.69,2.75,17.28,5.77,7.14-4.08,14.49-8-.08,7.63-.26,15.25,7.29,5.09,14.36,10.38-8.57,1.23-17,2.72Q1120.24,168.81,1117.54,175.86Zm-8.19-15.93q3.65,4.69,7.16,9.43,1.91-5.06,3.84-10.11,6-1.1,12.16-2.07-5.11-3.71-10.33-7.33.11-5.46.16-10.92-5.21,2.82-10.32,5.74-6.12-2.17-12.3-4.21,2.27,5.27,4.42,10.55-3.7,4.17-7.32,8.38Q1103.07,159.58,1109.35,159.92Z"/><path d="M1127.56,169.74q-.15,3.24-.32,6.47,2.92,2.18,5.8,4.38-3.53.56-7,1.17l-2.4,6q-2-2.84-4-5.67-3.61-.28-7.22-.51,2.2-2.43,4.44-4.85-1.1-3.16-2.24-6.32,3.47,1.31,6.92,2.67Q1124.53,171.38,1127.56,169.74Z"/><path class="cls-17" d="M1123.82,189.35q-2.27-3.31-4.6-6.6-4.2-.32-8.39-.58,2.56-2.84,5.15-5.66-1.29-3.68-2.63-7.36,4,1.52,8.07,3.1,3.49-1.95,7-3.85-.18,3.77-.38,7.54,3.4,2.54,6.75,5.12-4.11.64-8.19,1.35Zm-3.74-8q1.67,2.36,3.31,4.73l2-5q2.92-.51,5.87-1-2.41-1.84-4.84-3.65.14-2.7.26-5.4-2.52,1.37-5,2.77-2.87-1.13-5.76-2.24.94,2.64,1.86,5.28-1.87,2-3.72,4Q1117.06,181.15,1120.08,181.39Z"/></g></g></g></g></svg>