<svg xmlns="http://www.w3.org/2000/svg" viewBox="0 0 349 349"><defs><style>.cls-1{fill:#55cec5;}.cls-2{fill:#fff;}.cls-3{fill:none;stroke:#fff;stroke-miterlimit:10;stroke-width:13px;}</style></defs><title>avt2</title><g id="Layer_2" data-name="Layer 2"><g id="Layer_4" data-name="Layer 4"><circle class="cls-1" cx="174.5" cy="174.5" r="174.5"/><circle class="cls-2" cx="136.69" cy="208.85" r="10.73"/><circle class="cls-2" cx="212.49" cy="208.85" r="10.73"/><path class="cls-2" d="M186.58,240.68l-7.85-7.85v-5c0-4.8-10-4.8-10,0v5l-7.81,7.81c-4.57,4.57,2.52,11.66,7.09,7.09l5.75-5.75,5.75,5.75C184.06,252.35,191.15,245.26,186.58,240.68Z"/><path class="cls-3" d="M269.73,87.48c-6.25-6.3-15.13-10.37-24.09-10-9.7.35-16.73,6.11-20.6,14.76-3.8,8.49-5.75,17.85-8.13,26.81s-4.93,18.25-8.56,26.93c-.73,1.46-1.48,2.92-2.22,4.38a86.13,86.13,0,0,0-68.87,1.76q-1.57-3.06-3.11-6.13C130.51,137.25,128,128,125.58,119s-4.33-18.32-8.13-26.81c-3.87-8.65-10.9-14.41-20.6-14.76-9-.32-17.84,3.75-24.08,10A36.65,36.65,0,0,0,62.5,113.06c-.09,16.49,10.38,29.47,22.13,39.85,7.75,6.85,16.44,13.17,23.78,20.62a70.29,70.29,0,0,0-17.15,35.26c-3.14,19.36,3.5,38.72,18.49,53.36,14.81,14.62,38,24.52,64,24.44s49.17-9.82,64-24.44c15-14.64,21.62-34,18.49-53.36C253.8,194,246.53,181.25,236.69,171c6.74-6.38,14.33-12,21.18-18.07,11.75-10.38,22.21-23.36,22.13-39.85A36.65,36.65,0,0,0,269.73,87.48Z"/><path class="cls-2" d="M90.23,106.95a11,11,0,0,1,5.85-10.7c5.41-2.78,11.68-.16,15,5.1a11.35,11.35,0,0,1,1.65,4,19.06,19.06,0,0,1-.73,11.27l-7.19,18.69-19.16-5.13a19.05,19.05,0,0,1-9.6-6,11.35,11.35,0,0,1-2.29-3.67c-2.35-5.77-.83-12.4,4.57-15.18A10.67,10.67,0,0,1,90.23,106.95Z"/><path class="cls-2" d="M265.08,105.37c5.41,2.78,6.92,9.41,4.57,15.18a11.35,11.35,0,0,1-2.29,3.67,19.05,19.05,0,0,1-9.6,6l-19.16,5.13-7.19-18.69a19.06,19.06,0,0,1-.73-11.27,11.35,11.35,0,0,1,1.65-4c3.33-5.26,9.6-7.88,15-5.1a11,11,0,0,1,5.85,10.7A10.67,10.67,0,0,1,265.08,105.37Z"/></g></g></svg>