<svg xmlns="http://www.w3.org/2000/svg" viewBox="0 0 349 349"><defs><style>.cls-1{fill:#f753aa;}.cls-2{fill:none;stroke:#fff;stroke-miterlimit:10;stroke-width:13px;}.cls-3{fill:#fff;}</style></defs><title>avt3</title><g id="Layer_2" data-name="Layer 2"><g id="Layer_4" data-name="Layer 4"><circle class="cls-1" cx="174.5" cy="174.5" r="174.5"/><path class="cls-2" d="M302.9,120.45a48.4,48.4,0,0,0-20.47-29.77c-5.84-3.82-12.79-6.08-19.81-5.43a38.32,38.32,0,0,0-18.24,6.7c-10,6.93-17,17.29-22.57,27.93-1.67,3.21-3.26,6.5-4.88,9.78a82.59,82.59,0,0,0-76.6-1c-1.45-3-2.89-5.91-4.39-8.79-5.56-10.65-12.57-21-22.57-27.93a38.32,38.32,0,0,0-18.24-6.7c-7-.65-14,1.6-19.81,5.43a48.4,48.4,0,0,0-20.47,29.77,47.84,47.84,0,0,0-.3,18.92c1.27,7.05,4,13.7,6.28,20.47a139.87,139.87,0,0,1,5.29,21.38c1.12,6.77,1.28,13.6,2.14,20.39.88,7,2.71,13.61,7.29,19.12,3.85,4.64,10,8.12,16.14,7.73s10.83-3.92,16.14-6.5a9.3,9.3,0,0,1,5.64-1.14,73.45,73.45,0,0,0,36.78,27.93c3.44,3.14,7.2,5.95,10.91,8.73a142.14,142.14,0,0,0,12.25,8.27c14.61,8.73,31.07,14.15,47.9,13.54a62.51,62.51,0,0,0,13.08-1.51,53.71,53.71,0,0,0,27.55-15.67c3.76-4.1,4.35-11,0-15-4.16-3.82-10.93-4.29-15,0-.71.74-1.43,1.46-2.19,2.16l-.92.81c-.25.21-1.87,1.36-.34.33l.23-.16,0,0-1.57,1.08q-1.26.85-2.58,1.61t-2.69,1.43l-1,.49q-1.46.55-2.94,1a7.81,7.81,0,0,0-1.64,0,29.21,29.21,0,0,1-3.84.22c-.62,0-1.23-.06-1.85-.09-1.18-.25-2.34-.49-3.49-.84q-.77-.23-1.52-.51l-.32-.11a41.64,41.64,0,0,1-6-3.47h0c-.39-.41-1-.8-1.4-1.17q-1.45-1.3-2.78-2.73l-.22-.25a72.89,72.89,0,0,0,31.75-25.51l2-.49a9,9,0,0,1,6.39,1c5.3,2.58,10,6.11,16.14,6.5s12.28-3.09,16.14-7.73c4.58-5.51,6.41-12.13,7.29-19.12.86-6.79,1-13.63,2.14-20.39a139.87,139.87,0,0,1,5.29-21.38c2.25-6.77,5-13.42,6.28-20.47A47.84,47.84,0,0,0,302.9,120.45Z"/><circle class="cls-3" cx="144.59" cy="185.95" r="12.06"/><circle class="cls-3" cx="212.24" cy="186.16" r="12.06"/><path class="cls-3" d="M118,263.89c-2.66,4.8-5.47,9.76-9.2,13.82a22.58,22.58,0,0,1-2.85,2.66,9.36,9.36,0,0,0,12.72,1.85c8.34-5.81,16.72-11.66,24.23-18.54a102.35,102.35,0,0,0,11.41-11.88c3.31-4.2,6-9.7,5-15.2a11.41,11.41,0,0,0-1.46-3.77,10.81,10.81,0,0,0-1.34-2.44,13.3,13.3,0,0,0-12.61-5.12,59.62,59.62,0,0,0-9.47,2.48A286,286,0,0,1,118,263.89Z"/><path class="cls-3" d="M225.45,227.77a59.63,59.63,0,0,0-9.47-2.48,13.3,13.3,0,0,0-12.61,5.12,10.81,10.81,0,0,0-1.34,2.44,11.41,11.41,0,0,0-1.46,3.77,13.31,13.31,0,0,0-.17,3.66,31.42,31.42,0,0,0,6.91,9.22,4.44,4.44,0,0,1,1.68.87c4.66,3.81,10.08,8.37,16.19,9.45,4.13-1.27,8.19-2.82,12.28-4.2h.05C233,246.55,229.07,237.19,225.45,227.77Z"/><path class="cls-3" d="M251.07,277.72a45.24,45.24,0,0,1-4.17-5.39l-.22.09a16.47,16.47,0,0,1-12.08,5.18q3.28,2.33,6.59,4.63a9.36,9.36,0,0,0,12.72-1.85A22.58,22.58,0,0,1,251.07,277.72Z"/></g></g></svg>