<svg xmlns="http://www.w3.org/2000/svg" viewBox="0 0 349 349"><defs><style>.cls-1{fill:#b5b5b5;}.cls-2{fill:#fff;}.cls-3{fill:none;stroke:#fff;stroke-miterlimit:10;stroke-width:13px;}</style></defs><title>avt5</title><g id="Layer_2" data-name="Layer 2"><g id="Layer_4" data-name="Layer 4"><circle class="cls-1" cx="174.5" cy="174.5" r="174.5"/><path class="cls-2" d="M234.54,194.51q37.06,11.24,73.37,24.76c2.82,1,4.74,3.77,3.89,6.85-.74,2.71-4,4.94-6.85,3.89q-36.29-13.51-73.37-24.76C224.74,203.18,227.66,192.42,234.54,194.51Z"/><path class="cls-2" d="M234.17,211.89q29,17.57,56.71,37.06c2.46,1.73,3.61,4.87,2,7.62-1.42,2.43-5.15,3.74-7.62,2q-27.73-19.48-56.71-37.06C222.43,217.79,228,208.16,234.17,211.89Z"/><ellipse class="cls-3" cx="173.42" cy="179.08" rx="114.29" ry="105.58"/><circle class="cls-2" cx="124.5" cy="161.64" r="12.35"/><circle class="cls-2" cx="218.45" cy="161.64" r="12.35"/><path class="cls-2" d="M237.72,206c-.43-3-3.84-4.86-6.63-4.26a5.68,5.68,0,0,0-4.26,6.63,5.84,5.84,0,0,1-.8,3.77,11.18,11.18,0,0,1-3.53,3.68,13.81,13.81,0,0,1-11.43,1.79c-10-2.42-17-10.49-25.86-15.21,2.35-3,3.09-6.46-.38-9.81-2.65-2.56-6.49-3-10-3.11A35.52,35.52,0,0,0,163,191.06c-3.22,1-5.43,5.1-3.33,8.18a19.31,19.31,0,0,0,2.94,3.42,42.8,42.8,0,0,0-6.72,4.72c-3.06,2.58-6.46,5.93-9.49,7.81a15.41,15.41,0,0,1-9.54,2.64c-7.48-.4-14.91-5.64-16.66-12.89-1.67-7-12.57-4.63-10.89,2.37,2.36,9.8,10.27,17.51,19.86,20.38a28.41,28.41,0,0,0,14.78.59c5.09-1.25,9.42-4.14,13.41-7.44,3.41-2.82,7-6.48,10.38-8.47a11.23,11.23,0,0,1,5.23-2c-.38.05.84,0,1,0a11.11,11.11,0,0,1,2,.18,15.36,15.36,0,0,1,3.31,1.2c5.51,2.62,10.11,7.13,15.24,10.39,5.53,3.51,11.58,6.25,18.15,6.95C225.78,230.46,239.74,219.92,237.72,206Z"/><path class="cls-2" d="M191.79,237.53a18.88,18.88,0,0,0-33.35-.24c-3.51,6.26,6.11,11.88,9.62,5.62,3.29-5.88,10.95-5.68,14.11.24C185.55,249.48,195.17,243.86,191.79,237.53Z"/><path class="cls-2" d="M114.63,192.09q-37.06,11.24-73.37,24.76c-2.82,1-4.74,3.77-3.89,6.85.74,2.71,4,4.94,6.85,3.89q36.29-13.51,73.37-24.76C124.43,200.76,121.51,190,114.63,192.09Z"/><path class="cls-2" d="M115,209.46Q86,227,58.28,246.53c-2.46,1.73-3.61,4.87-2,7.62,1.42,2.43,5.15,3.74,7.62,2q27.73-19.48,56.71-37.06C126.74,215.37,121.15,205.73,115,209.46Z"/><path class="cls-2" d="M134.63,222.88c-2-2-6-2.33-7.88,0L93.31,263.39c-1.91,2.32-2.27,5.61,0,7.88,2,2,6,2.33,7.88,0l33.44-40.51C136.54,228.44,136.9,225.15,134.63,222.88Z"/><path class="cls-2" d="M214.54,225.3c2-2,6-2.33,7.88,0l33.44,40.51c1.91,2.32,2.27,5.61,0,7.88-2,2-6,2.33-7.88,0l-33.44-40.51C212.63,230.86,212.27,227.57,214.54,225.3Z"/></g></g></svg>