<svg xmlns="http://www.w3.org/2000/svg" viewBox="0 0 1926.67 1080">
  <defs>
    <style>
      .cls-1,.cls-16,.cls-21{fill:#f4eacb}.cls-2{fill:#f9f5e8}.cls-3{fill:#b5b5b5}.cls-4{fill:#fff}.cls-5,.cls-9{fill:#f753aa}.cls-16,.cls-5,.cls-6{stroke:#b5b5b5}.cls-15,.cls-16,.cls-17,.cls-21,.cls-5,.cls-6{stroke-miterlimit:10}.cls-16,.cls-5,.cls-6{stroke-width:6.85px}.cls-6,.cls-8{fill:#55cec5}.cls-7{fill:#4f4e4b}.cls-10{fill:#f5dddb}.cls-15,.cls-17{fill:none}.cls-17{stroke:#f753aa}.cls-14{fill:#fdadba}.cls-15{stroke:#55cec5}.cls-15,.cls-17{stroke-width:12.06px}.cls-21{stroke:#4f4e4b;stroke-width:8px}.cls-24{letter-spacing:.28em}.cls-25{letter-spacing:.43em}.cls-26{letter-spacing:0}
    </style>
  </defs>
  <g id="Layer_2" data-name="Layer 2">
    <g id="Layer_1-2" data-name="Layer 1">
      <g id="bg">
        <path class="cls-1" d="M3.93 0v4.51L8.9 0H3.93zm0 693.38v344.57l958.5-36.73L3.93 693.38z"/>
        <path class="cls-1" d="M962.43 1001.22l961.5-36.85V608.94l-961.5 392.28z"/>
        <path class="cls-2" d="M1923.93 129.55l-961.5 871.67 961.5-392.28V129.55z"/>
        <path class="cls-1" d="M1923.93 0h-433.5l-528 1001.22 961.5-871.67V0z"/>
        <path class="cls-2" d="M1099.67 0L962.43 1001.22 1490.43 0h-390.76z"/>
        <path class="cls-1" d="M746.05 0l216.38 1001.22L1099.67 0H746.05z"/>
        <path class="cls-2" d="M332.06 0l630.37 1001.22L746.05 0H332.06z"/>
        <path class="cls-1" d="M962.43 1001.22L332.06 0H8.9L3.93 4.51v253.08l958.5 743.63z"/>
        <path class="cls-2" d="M3.93 693.38l958.5 307.84L3.93 257.59v435.79z"/>
        <path class="cls-3" d="M3.93 796h1920v284H3.93z"/>
      </g>
      <path class="cls-4" d="M851.85 171.44a55.26 55.26 0 0 0-29.89-13c-9.58-1.09-19 1.28-27.63 5.2l-.15.07a74.44 74.44 0 0 0-21.13-29 73.15 73.15 0 0 0-42.62-17.19c-14-.92-28.3 2.84-40.7 9.26-.92.47-1.82 1-2.72 1.49a123.14 123.14 0 0 0-6.8-26.72c-7.53-19.34-20.6-37.66-39.59-47.16-10.3-5.15-21.72-8.07-33.3-7.31-12.88.92-24.8 4.92-36.24 10.71A161.72 161.72 0 0 0 546.16 74 179.19 179.19 0 0 0 523 94.61a118.42 118.42 0 0 0-23.23 36.12q-1.79-.82-3.69-1.48c-8.33-2.87-17.65-2.55-26.27-1.46A104.21 104.21 0 0 0 414.6 152c-7.18 6.1-13.9 13.72-18.21 22.13a54 54 0 0 0-5.49 33.75c2.84 18.63 16.42 35.15 32.38 44.49a83.07 83.07 0 0 0 55.37 9.87 44.25 44.25 0 0 0 19.53 12.9c9.8 3.26 21 3.08 31.19 3.83q64.51 4.72 129.17 7.09 32 1.18 64 1.78c20.53.39 41.33 1.43 61.83-.08 20-1.46 40.82-5.73 57.33-17.79s28.52-28.81 30.61-49.71c1.77-17.88-6.72-37.4-20.46-48.82zM375.2 419.55a34 34 0 0 0-18.39-8c-5.89-.67-11.66.79-17 3.2h-.09a45.8 45.8 0 0 0-13-17.84 45 45 0 0 0-26.22-10.57 48.37 48.37 0 0 0-25 5.7c-.56.29-1.12.6-1.68.92a75.75 75.75 0 0 0-4.18-16.44c-4.63-11.9-12.67-23.17-24.35-29a40.08 40.08 0 0 0-20.49-4.5 57.05 57.05 0 0 0-22.29 6.56 99.49 99.49 0 0 0-15.33 9.94 110.23 110.23 0 0 0-14.28 12.7 72.85 72.85 0 0 0-14.29 22.22q-1.1-.51-2.27-.91c-5.12-1.77-10.86-1.57-16.16-.9a64.11 64.11 0 0 0-33.93 14.88A46.16 46.16 0 0 0 95 421.19 33.19 33.19 0 0 0 91.64 442c1.75 11.46 10.1 21.62 19.92 27.37a51.1 51.1 0 0 0 34.07 6.07 27.22 27.22 0 0 0 12 7.94c6 2 12.9 1.9 19.19 2.36q39.69 2.9 79.46 4.36 19.67.72 39.36 1.1c12.63.24 25.42.88 38 0 12.31-.9 25.11-3.53 35.27-10.95s17.54-17.72 18.83-30.58c1.14-11.09-4.09-23.09-12.54-30.12zm1040-250a34 34 0 0 0-18.39-8c-5.89-.67-11.66.79-17 3.2h-.09a45.8 45.8 0 0 0-13-17.84 45 45 0 0 0-26.22-10.57 48.37 48.37 0 0 0-25 5.7c-.56.29-1.12.6-1.68.92a75.75 75.75 0 0 0-4.18-16.44c-4.63-11.9-12.67-23.17-24.35-29a40.08 40.08 0 0 0-20.49-4.5 57.05 57.05 0 0 0-22.29 6.56 99.49 99.49 0 0 0-15.33 9.94 110.23 110.23 0 0 0-14.28 12.7 72.85 72.85 0 0 0-14.29 22.22q-1.1-.51-2.27-.91c-5.12-1.77-10.86-1.57-16.16-.9a64.11 64.11 0 0 0-33.93 14.88 46.16 46.16 0 0 0-11.2 13.61 33.19 33.19 0 0 0-3.38 20.76c1.75 11.46 10.1 21.62 19.92 27.37a51.1 51.1 0 0 0 34.07 6.07 27.22 27.22 0 0 0 12 7.94c6 2 12.9 1.9 19.19 2.36q39.69 2.9 79.46 4.36 19.67.72 39.36 1.1c12.63.24 25.42.88 38 0 12.31-.9 25.11-3.53 35.27-10.95s17.54-17.72 18.83-30.58c1.11-10.97-4.12-22.97-12.57-30zm459 219a34 34 0 0 0-18.39-8c-5.89-.67-11.66.79-17 3.2h-.09a45.8 45.8 0 0 0-13-17.84 45 45 0 0 0-26.22-10.57 48.37 48.37 0 0 0-25 5.7c-.56.29-1.12.6-1.68.92a75.75 75.75 0 0 0-4.18-16.44c-4.63-11.9-12.67-23.17-24.35-29a40.08 40.08 0 0 0-20.49-4.5 57.05 57.05 0 0 0-22.29 6.56 99.49 99.49 0 0 0-15.33 9.94 110.23 110.23 0 0 0-14.28 12.7 72.85 72.85 0 0 0-14.29 22.22q-1.1-.51-2.27-.91c-5.12-1.77-10.86-1.57-16.16-.9a64.11 64.11 0 0 0-33.93 14.88 46.16 46.16 0 0 0-11.2 13.61 33.19 33.19 0 0 0-3.38 20.76c1.75 11.46 10.1 21.62 19.92 27.37a51.1 51.1 0 0 0 34.07 6.07 27.22 27.22 0 0 0 12 7.94c6 2 12.9 1.9 19.19 2.36q39.69 2.9 79.46 4.36 19.67.72 39.36 1.1c12.63.24 25.42.88 38 0 12.31-.9 25.11-3.53 35.27-10.95s17.54-17.72 18.83-30.58c1.11-10.97-4.12-22.97-12.57-30z" id="cloud"/>
      <g id="tent">
        <path class="cls-4" d="M975.41 184q98 56.28 194.72 114.91 96.25 58.38 191.08 119.07t188.15 123.64q93.72 63.22 185.9 128.7c59.15 42 117.87 85.1 181.68 119.91a758 758 0 0 0 9.73 5.2c-.15 5.54-.27 11.09-.42 16.63-62.52-32.22-120.1-72.9-177.28-113.64q-91.4-65.13-184.17-128.28-93.14-63.23-187.78-124.2-95-61.23-191.54-120.14-96.08-58.66-193.56-115-12-7-24.08-13.87c-8.37-4.79-.84-17.76 7.57-12.93z"/>
        <circle class="cls-5" cx="1654.93" cy="646" r="32.5"/>
        <circle class="cls-6" cx="1557.93" cy="581" r="32.5"/>
        <circle class="cls-5" cx="1465.93" cy="516" r="32.5"/>
        <circle class="cls-6" cx="1368.93" cy="451" r="32.5"/>
        <circle class="cls-5" cx="1860.93" cy="786" r="32.5"/>
        <circle class="cls-6" cx="1763.93" cy="721" r="32.5"/>
        <circle class="cls-5" cx="1279.93" cy="401" r="32.5"/>
        <circle class="cls-6" cx="1182.93" cy="336" r="32.5"/>
        <circle class="cls-5" cx="1090.93" cy="271" r="32.5"/>
        <circle class="cls-6" cx="993.93" cy="206" r="32.5"/>
        <path class="cls-4" d="M962.44 187q-98 56.28-194.72 114.91Q671.47 360.29 576.64 421T388.49 544.62q-93.72 63.22-185.9 128.7c-59.15 42-117.87 85.1-181.68 119.91a758 758 0 0 1-9.73 5.2c.15 5.54.27 11.09.42 16.63 62.52-32.22 120.1-72.9 177.28-113.64q91.4-65.13 184.17-128.28 93.14-63.23 187.78-124.2 95-61.23 191.54-120.14 96.08-58.66 193.56-115 12-7 24.08-13.87c8.37-4.79.83-17.76-7.57-12.93z"/>
        <circle class="cls-5" cx="282.93" cy="649" r="32.5"/>
        <circle class="cls-6" cx="379.93" cy="584" r="32.5"/>
        <circle class="cls-5" cx="471.93" cy="519" r="32.5"/>
        <circle class="cls-6" cx="568.93" cy="454" r="32.5"/>
        <circle class="cls-5" cx="76.93" cy="789" r="32.5"/>
        <circle class="cls-6" cx="173.93" cy="724" r="32.5"/>
        <circle class="cls-5" cx="657.93" cy="404" r="32.5"/>
        <circle class="cls-6" cx="754.93" cy="339" r="32.5"/>
        <circle class="cls-5" cx="846.93" cy="274" r="32.5"/>
        <circle class="cls-6" cx="943.93" cy="209" r="32.5"/>
        <g id="tent-2" data-name="tent">
          <path class="cls-7" d="M1473.41 954.29a11.94 11.94 0 0 1-5.9-1.58c-8.25-4.71-30.09-7.53-58.43-7.53-4.53 0-8.4.07-11.17.15l-2.22 3.19-5.22-2.9-2.44.12-1.74-2.33c-4-1.67-12.63-3.82-31.07-3.82a371.82 371.82 0 0 0-42.14 2.81 13.56 13.56 0 0 1-1.72.43 34.27 34.27 0 0 1-3.42.4c-2.23.17-5.33.31-9.49.42-7.18.19-17.54.28-30.79.28-24.9 0-56.21-.33-79-.63-6.44 3.23-15 5-24 5h-75.37c-21.22 0-36.62-9.46-36.62-22.49v-3.1H863.09v3.1c0 13-15.4 22.49-36.62 22.49h-75.38c-8.78 0-17.18-1.75-23.56-4.85-24.9.28-45.88.42-62.37.42-13.25 0-23.61-.09-30.78-.28-4.15-.11-7.25-.24-9.48-.42-1.44-.11-2.52-.24-3.42-.4a13.53 13.53 0 0 1-1.72-.43 371.8 371.8 0 0 0-42.14-2.81c-18.44 0-27.11 2.14-31.07 3.82l-1.74 2.33-2.44-.12-5.15 2.87-2.22-3.1c-2.77-.08-6.66-.15-11.22-.15-28.34 0-50.18 2.81-58.43 7.53a11.94 11.94 0 0 1-5.9 1.58c-10.78 0-14.44-12.79-16.4-19.67-2.3-8.05-4.6-19.28-7-34.32-4-25-8.27-60.22-12.62-104.64-7.65-78-13.5-162.66-15.14-187.24a68.91 68.91 0 0 1-.53-8.4V594l5.39-2.8c45.54-23.68 118-71.68 208.17-166.76a12.53 12.53 0 0 1-2.42-3.59c-4-8.91 3-16.81 11.15-26s19.37-21.8 19.37-33.62v-10h41.1l14.89-.53c36.54-20.73 189-98.57 239.7-120.16a10.63 10.63 0 0 1 8.52-9.88V212h-1.93l-.86-9.05a109 109 0 0 1 0-15.49 91.11 91.11 0 0 0 0-12.88l-1.06-10.48 10.52-.52a221.26 221.26 0 0 0 47.83-8.21l3.47-1 3.3 1.46a23.25 23.25 0 0 1 6.88 4.82l3 2.95v8.49h45.88l-24.49 18.58c-2.78 2.1-9.11 6.9-10 9.28a28.19 28.19 0 0 0 4.15 4.65l.54.52c1.5 1.46 2.85 2.82 4.13 4.16l16.25 16.93h-58.54l-1.2-.3c-6.31-1.58-13.5-4-19.19-10l-.22-.21v4.91a10.63 10.63 0 0 1 8.53 10.4v.16c54.08 23.23 204.29 100.33 238.17 119.52l13.56.48h41.1v10c0 11.82 11.19 24.42 19.37 33.62s15.15 17.06 11.15 26a12.54 12.54 0 0 1-2.42 3.59c90.21 95.07 162.63 143.08 208.17 166.76l5.39 2.8V600a68.81 68.81 0 0 1-.53 8.4c-1.64 24.59-7.49 109.29-15.14 187.25-4.35 44.42-8.6 79.62-12.62 104.64-2.42 15-4.71 26.27-7 34.32-2 6.87-5.62 19.66-16.4 19.66z"/>
          <g id="tent-3" data-name="tent">
            <path class="cls-3" d="M793 588.65h338.31v324.1H793z"/>
            <path class="cls-8" d="M966.43 548.85s-31.27 230.28-145 352.53V614.24z"/>
            <path class="cls-8" d="M949.37 548.85s31.27 230.28 145 352.53V614.24z"/>
            <path class="cls-9" d="M417.73 600l110.88-11.37S557 912.75 540 935.5c0 0-59.7-2.84-79.6 8.53S417.73 600 417.73 600zm1097.39 0l-110.88-11.37s-28.43 324.1-11.37 346.84c0 0 59.7-2.84 79.6 8.53s42.65-344 42.65-344zm-889.85-17l179.11-14.21-17.06 363.9s-164.89 2.84-164.89 0S625.27 583 625.27 583z"/>
            <path class="cls-10" d="M625.27 585.81l-110.88 2.84s4.92 309.43 21.61 343.94a4.34 4.34 0 0 1 3.26 1.51c.34.43.64.86 1 1.29 20.13-11.19 82.23-2.73 82.23-2.73 16.99-22.75 2.78-346.85 2.78-346.85z"/>
            <path class="cls-9" d="M1307.58 583l-179.11-14.21 17.06 363.9s164.89 2.84 164.89 0-2.84-349.69-2.84-349.69z"/>
            <path class="cls-10" d="M1307.58 585.81l110.88 2.84s-4.91 309.42-21.59 343.93a4.34 4.34 0 0 0-3.26 1.51c-.34.43-.64.86-1 1.29-20.13-11.19-82.23-2.73-82.23-2.73-17.01-22.74-2.8-346.84-2.8-346.84z"/>
            <path class="cls-9" d="M984.62 239.63c-8.63-1.75-17.33-3.17-26-4.5L804.38 571.59h324.1zm-217.2 118.74l71.07-2.84s-96.66 224.6-213.22 230.28l-99.5 2.84s181.94-193.32 241.65-230.28z"/>
            <path class="cls-10" d="M687.81 364.06S559.88 526.11 417.73 600l110.88-11.37s201.85-147.81 238.81-230.26zm150.68-8.53s-71.07 156.36-213.22 230.28l179.11-14.21S881.14 438 918.09 355.53z"/>
            <path class="cls-9" d="M793 358.37l164.9-122.25-110.88 122.25H793z"/>
            <path class="cls-10" d="M703.27 363.81c.07-2.84 211.58-111.68 254.63-127.69L792.7 359.67zM957.9 236.12L847.02 358.37l70.27-2.08 57.66-125.85-17.05 5.68z"/>
            <path class="cls-9" d="M1141.09 358.37L976.2 236.12l110.87 122.25h54.02z"/>
            <path class="cls-10" d="M1230.82 363.81c-.07-2.84-211.58-111.68-254.63-127.69l165.2 123.54z"/>
            <path class="cls-10" d="M976.2 236.12l110.87 122.25-70.27-2.08-57.66-125.85 17.06 5.68z"/>
            <path class="cls-8" d="M770.26 358.37c0 32.19-24.67 62.55-56.86 62.55s-22.74-27.51-22.74-59.7z"/>
            <path class="cls-8" d="M841.33 355.53c0 32.19-24.67 62.55-56.86 62.55s-22.74-27.51-22.74-59.7z"/>
            <path class="cls-8" d="M918.09 352.68c0 32.19-24.67 62.55-56.86 62.55s-22.74-27.51-22.74-59.7zM804.38 571.59c0 32.19.91 62.55-31.27 62.55s-42.64-24.67-42.64-56.86z"/>
            <path class="cls-8" d="M736.14 577.28c0 32.19-20.41 66.81-52.6 66.81a58.28 58.28 0 0 1-58.28-58.28zm-39.8-216.07a58.28 58.28 0 0 1-58.28 58.28c-32.19 0 21.32-26.09 21.32-58.28z"/>
            <path class="cls-8" d="M625.27 585.81c0 32.19-11.88 61.12-44.07 61.12s-52.6-26.09-52.6-58.28z"/>
            <path class="cls-8" d="M531.45 588.65c0 32.19-23.25 69.65-55.44 69.65a58.28 58.28 0 0 1-58.28-58.3z"/>
            <path class="cls-9" d="M1165.43 358.37l-71.07-2.84s96.66 224.6 213.22 230.28l99.5 2.84s-181.94-193.32-241.65-230.28z"/>
            <path class="cls-10" d="M1245 364.06S1373 526.11 1515.12 600l-110.88-11.37s-201.85-147.84-238.81-230.28zm-150.64-8.53s71.07 156.36 213.22 230.28l-179.11-14.21s-76.76-133.6-113.71-216.07z"/>
            <path class="cls-8" d="M1162.59 358.37c0 32.19 24.67 62.55 56.86 62.55s22.74-27.51 22.74-59.7z"/>
            <path class="cls-8" d="M1091.52 355.53c0 32.19 24.67 62.55 56.86 62.55s22.74-27.51 22.74-59.7z"/>
            <path class="cls-8" d="M1014.76 352.68c0 32.19 24.67 62.55 56.86 62.55s22.74-27.51 22.74-59.7zm113.72 218.91c0 32.19-.91 62.55 31.27 62.55s42.64-24.67 42.64-56.86z"/>
            <path class="cls-8" d="M1196.71 577.28c0 32.19 20.41 66.81 52.6 66.81a58.28 58.28 0 0 0 58.28-58.28zm39.8-216.07a58.28 58.28 0 0 0 58.28 58.28c32.19 0-21.32-26.09-21.32-58.28z"/>
            <path class="cls-8" d="M1307.58 585.81c0 32.19 11.88 61.12 44.07 61.12s52.6-26.09 52.6-58.28z"/>
            <path class="cls-8" d="M1401.4 588.65c0 32.19 23.25 69.65 55.44 69.65a58.28 58.28 0 0 0 58.28-58.3z"/>
            <rect class="cls-8" x="955.05" y="230.44" width="25.59" height="8.53" rx=".61" ry=".61"/>
            <path class="cls-10" d="M963.58 173.58h8.53v56.86h-8.53z"/>
            <path class="cls-9" d="M1026.13 199.49c.55-6.87 8.31-12.47 14.78-17.38h-26.16v-14.26a13.84 13.84 0 0 0-4-2.85 230 230 0 0 1-50.07 8.58c.93 9.16-.87 19.27 0 28.43h28.43v6.65c.06.06.11.09.17.15 3.89 4.23 9.19 6.06 14.61 7.42h33.84c-1.27-1.32-2.57-2.62-3.91-3.93-3.27-3.3-8.1-7.66-7.69-12.81z"/>
            <path d="M739.31 890.95c-8.76 2-14.84 6.24-14.84 11.15v23.76c0 6.9 11.92 12.49 26.62 12.49h75.37c14.7 0 26.62-5.59 26.62-12.49v-23.77c0-5.78-8.42-10.6-19.79-12l.71-276.65a209.28 209.28 0 0 1 243 0l.55 277.5c-8.76 2-14.84 6.24-14.84 11.15v23.76c0 6.9 11.92 12.49 26.62 12.49h75.37c14.7 0 26.62-5.59 26.62-12.49v-23.76c0-5.78-8.42-10.6-19.79-12V613.44h.73a271.86 271.86 0 0 0-23.93-26.6C1096.86 536.68 1028.4 509 955.59 509s-141.27 27.63-192.76 77.79a271.93 271.93 0 0 0-23.93 26.6" fill="#fdc3b8"/>
            <path d="M1128.43 332.33l13.27 26.9 29.68 4.31-21.48 20.94 5.07 29.56-26.54-13.96-26.55 13.96 5.07-29.56-21.48-20.94 29.68-4.31 13.28-26.9zm142.2 196l8.4 17.01 18.77 2.73-13.59 13.24 3.21 18.69-16.79-8.83-16.79 8.83 3.21-18.69-13.58-13.24 18.77-2.73 8.39-17.01zm64.57 46l6.71 13.61 15.02 2.18-10.87 10.59 2.57 14.95-13.43-7.06-13.43 7.06 2.56-14.95-10.86-10.59 15.01-2.18 6.72-13.61zm-557.57-177l8.4 17.01 18.76 2.73-13.58 13.24 3.21 18.69-16.79-8.83-16.79 8.83 3.21-18.69-13.58-13.24 18.77-2.73 8.39-17.01zm345 49l8.4 17.01 18.77 2.73-13.59 13.24 3.21 18.69-16.79-8.83-16.79 8.83 3.21-18.69-13.58-13.24 18.77-2.73 8.39-17.01zm-105.43-131l6.71 13.61 15.02 2.18-10.87 10.59 2.57 14.95-13.43-7.06-13.43 7.06 2.56-14.95-10.86-10.59 15.01-2.18 6.72-13.61zm-403 198l6.71 13.61 15.02 2.18-10.87 10.59 2.57 14.95-13.43-7.06-13.43 7.06 2.56-14.95-10.86-10.59 15.01-2.18 6.72-13.61zm73 91.61l4.24 8.6 9.49 1.37-6.87 6.7 1.62 9.44-8.48-4.46-8.49 4.46 1.62-9.44-6.86-6.7 9.49-1.37 4.24-8.6z" stroke-width="5" stroke-miterlimit="10" stroke="#b5b5b5" fill="#f4eacb"/>
          </g>
        </g>
      </g>
      <g id="tess">
        <path class="cls-4" d="M367.6 533.34a168 168 0 0 1-56.13-9.53 162.46 162.46 0 0 1-30.72-14.66 26.2 26.2 0 0 1-14.21 4.19 23.45 23.45 0 0 1-18.31-8.4c-1.56-1.9-3.54-4.33-5.69-7a28.34 28.34 0 0 1-12.85-5.67c-14.46-11.29-25.87-26.91-33-45.23a81 81 0 0 1-21.08-42.64c-4.28-28.2 5.69-54 26-67.31q.81-.53 1.67-1a202 202 0 0 1 27.6-44.3 178.19 178.19 0 0 1 48.37-41.45A158.6 158.6 0 0 1 309.12 237c7-2.3 15.38-4.64 24.27-4.64a46.73 46.73 0 0 1 14.57 2.28 73.67 73.67 0 0 1 17.64-7 90.52 90.52 0 0 1 22.22-2.76c28.45 0 58.5 13.4 84.63 37.74 25.74 24 41.3 46.5 47.52 68.83 4.85 7.29 8.39 15.85 10.79 26.09 1 .77 1.95 1.58 2.86 2.44 11.9 10.41 17.45 26.77 15.26 44.94a79.68 79.68 0 0 1-4.37 23.45 81.26 81.26 0 0 1-17.93 29 148.07 148.07 0 0 1-8.88 20.13 134.13 134.13 0 0 1-13.55 20.37c-7.8 9.81-16.07 14.58-25.26 14.58a24.44 24.44 0 0 1-9.53-1.93 31 31 0 0 1-13.12 2.91h-1.41a26.27 26.27 0 0 1-5.39-.8 170.13 170.13 0 0 1-81.84 20.71z"/>
        <path class="cls-4" d="M367.6 528.34a163 163 0 0 1-54.47-9.25 157.17 157.17 0 0 1-32.67-16 20.69 20.69 0 0 1-13.93 5.27 18.47 18.47 0 0 1-14.44-6.57c-2-2.43-4.41-5.4-6.94-8.58a22.74 22.74 0 0 1-12.4-4.88c-14-10.94-25-26.12-31.82-44a75.81 75.81 0 0 1-20.44-40.67c-4-26.24 5.15-50.14 23.82-62.38q1.35-.88 2.82-1.67a196.48 196.48 0 0 1 27.59-44.68 173.15 173.15 0 0 1 47-40.28 153.6 153.6 0 0 1 28.93-12.92c6.64-2.17 14.52-4.39 22.71-4.39a41.37 41.37 0 0 1 15.06 2.77 68.91 68.91 0 0 1 18.38-7.61 85.53 85.53 0 0 1 21-2.6c27.18 0 56 12.93 81.23 36.4s40.51 45.63 46.33 67.29c6.19 9 9.21 19 10.92 26.9a33.1 33.1 0 0 1 4 3.23h.05c10.7 9.34 15.63 24.18 13.57 40.79a74.62 74.62 0 0 1-4.09 22.17 75.93 75.93 0 0 1-17.57 28 143.07 143.07 0 0 1-8.94 20.48 129.15 129.15 0 0 1-13 19.62c-6.79 8.54-13.78 12.69-21.35 12.69a19.54 19.54 0 0 1-8.51-2h-2.08a26.12 26.12 0 0 1-12.06 3h-1.18a20.8 20.8 0 0 1-6.19-1.21 164.55 164.55 0 0 1-81.33 21.08z"/>
        <path class="cls-7" d="M367.6 528.34a163 163 0 0 1-54.47-9.25 157.17 157.17 0 0 1-32.67-16 20.69 20.69 0 0 1-13.93 5.27 18.47 18.47 0 0 1-14.44-6.57c-2-2.43-4.41-5.4-6.94-8.58a22.74 22.74 0 0 1-12.4-4.88c-14-10.94-25-26.12-31.82-44a75.81 75.81 0 0 1-20.44-40.67c-4-26.24 5.15-50.14 23.82-62.38q1.35-.88 2.82-1.67a196.48 196.48 0 0 1 27.59-44.68 173.15 173.15 0 0 1 47-40.28 153.6 153.6 0 0 1 28.93-12.92c6.64-2.17 14.52-4.39 22.71-4.39a41.37 41.37 0 0 1 15.06 2.77 68.91 68.91 0 0 1 18.38-7.61 85.53 85.53 0 0 1 21-2.6c27.18 0 56 12.93 81.23 36.4s40.51 45.63 46.33 67.29c6.19 9 9.21 19 10.92 26.9a33.1 33.1 0 0 1 4 3.23h.05c10.7 9.34 15.63 24.18 13.57 40.79a74.62 74.62 0 0 1-4.09 22.17 75.93 75.93 0 0 1-17.57 28 143.07 143.07 0 0 1-8.94 20.48 129.15 129.15 0 0 1-13 19.62c-6.79 8.54-13.78 12.69-21.35 12.69a19.54 19.54 0 0 1-8.51-2h-2.08a26.12 26.12 0 0 1-12.06 3h-1.18a20.8 20.8 0 0 1-6.19-1.21 164.55 164.55 0 0 1-81.33 21.08z"/>
        <path class="cls-10" d="M523.72 371.26l-.16-.13c-6.15-6-14.8-8-23.59-5.66a42.07 42.07 0 0 0-4.94 1.62 126 126 0 0 0-15.88-31.44c-17.4-24.91-42.67-43.6-72.31-51.08a130.52 130.52 0 0 0-56.9-1.48 18.88 18.88 0 0 0-6.69-.11h-.08c-4.77-3.59-10.52-4.84-17.21-3.67-7 1.22-13 5.18-18.85 8.86a258 258 0 0 0-34.44 25.32 145.93 145.93 0 0 0-29.44 35.43c-10.06-5.66-23.38-5.91-33.45.68-17.32 11.35-22.35 33.11-19.41 52.51 2.7 17.82 13.32 33.66 27.89 44 7.63 5.41 17.32 9.35 26.8 8.43 16.24 25.37 42.76 45 71.39 55.11 48.74 17.23 105.36 8.52 145.93-23.57a106.06 106.06 0 0 0 20.38-21.25 67.23 67.23 0 0 0 17.12-6.07c14.37-7.34 25.08-20.39 30.45-35.46a64.88 64.88 0 0 0 3.53-19.61c1.57-11.69-1.03-24.48-10.14-32.43z"/>
        <path class="cls-9" d="M519.23 380c-1.82-14.81-4.11-30-13.12-42.13-6.12-25.16-25.66-47.25-43.92-64.25-24.61-22.92-58.6-40.12-92.94-31.42a57.6 57.6 0 0 0-20.42 9.67 7.47 7.47 0 0 0-2.38-1.74c-10.84-5-21.79-2.45-32.69 1.11a143.83 143.83 0 0 0-27 12.08 162.28 162.28 0 0 0-44.24 37.94c-27.19 33.35-45.12 77.74-37.3 121.17 4 22.34 15.73 44 33.75 58 3.16 2.47 7.15 3.56 10.7 2.24 3.33 4.3 6.76 8.54 10.22 12.77s10.59 3.55 14.14 0a9.6 9.6 0 0 0 2.36-3.76c3.45-3.55 4.77-9.42.55-14.17-17.44-19.59-25.32-47.84-26.37-73.65a131.19 131.19 0 0 1 2.8-33.15 10.48 10.48 0 0 0 2.52-.34c.37.14.74.27 1.1.36a14.2 14.2 0 0 0 7.19 0 13.9 13.9 0 0 0 4.28-2 8.51 8.51 0 0 0 6.55-6.91c7.38-33.14 31.1-61.64 62.51-74.45a13 13 0 0 0 1.45.65 106.53 106.53 0 0 0 13.4 54.75c13.63 24.51 38.61 45.5 67.75 45.66 18 .1 36.17-5.93 51.89-14.44a10.81 10.81 0 0 0 1.56-1c2.39 17.85 1.9 36.05-.42 53.93a157.33 157.33 0 0 1-6.42 29.61 75.88 75.88 0 0 1-5.5 12.7 65.09 65.09 0 0 1-4.35 6.95c-.42.58-.91 1.13-1.32 1.7-.17.24-.32.43-.45.59-12.44-.12-12.28 19.43.42 20a17 17 0 0 0 10.79-3.47 9.29 9.29 0 0 0 6 .09q.33.26.69.5c7.71 5.19 14.76-1.28 19.32-7a119.92 119.92 0 0 0 12.06-18.1 133.37 133.37 0 0 0 14-41.69 173.87 173.87 0 0 0 .84-48.8zm-105.54-11.9c-14.15-2.12-26.27-11.77-35.29-22.38a83.82 83.82 0 0 1-18.78-42.49A156.45 156.45 0 0 0 400 347.08a135.61 135.61 0 0 0 37 19.45 60.87 60.87 0 0 1-23.31 1.52z"/>
        <path d="M320.55 394.5c0-6.37-3.16-12.38-10.49-14.33a16.68 16.68 0 0 0-6.51-.39 16.15 16.15 0 0 0-4.34.82 7.54 7.54 0 0 0-.9 0 10.46 10.46 0 0 0-5.37 1.66 7.35 7.35 0 0 1-4.3-4.28c-1.42-3.54-7.22-2-5.79 1.6a14.74 14.74 0 0 0 6.33 7.39 12.52 12.52 0 0 0-.53 1.65 18.33 18.33 0 0 0-2.55 14.84 16.76 16.76 0 0 0 1.75 4.19 14.63 14.63 0 0 0 6 6.36 13 13 0 0 0 7.26 3.29c11.11 1.49 19.91-9.09 19.73-19.61a19.12 19.12 0 0 0-.29-3.19zm88.45 3c0-6.37 3.16-12.38 10.49-14.33a16.68 16.68 0 0 1 6.51-.39 16.15 16.15 0 0 1 4.34.82 7.54 7.54 0 0 1 .9 0 10.46 10.46 0 0 1 5.37 1.66 7.35 7.35 0 0 0 4.3-4.28c1.42-3.54 7.22-2 5.79 1.6a14.74 14.74 0 0 1-6.33 7.39 12.52 12.52 0 0 1 .53 1.65 18.33 18.33 0 0 1 2.55 14.84 16.76 16.76 0 0 1-1.75 4.19 14.63 14.63 0 0 1-6 6.36 13 13 0 0 1-7.26 3.29c-11.11 1.49-19.91-9.09-19.73-19.61a19.12 19.12 0 0 1 .29-3.19z"/>
        <path class="cls-14" d="M400 449.06c-.32-6.4-10.33-6.44-10 0 .56 11.06-12.07 24.09-23.45 23.06-10.93-1-22.68-13.24-22.56-24.17.07-6.44-9.93-6.44-10 0-.18 16.39 16.24 33.14 32.56 34.17 16.66 1.05 34.33-16.6 33.45-33.06z"/>
        <circle class="cls-15" cx="300.79" cy="406" r="40.86"/>
        <circle class="cls-15" cx="428.06" cy="406" r="40.86"/>
        <path class="cls-8" d="M385.64 391.21c-12.36-15.72-36.24-13-45.85 4.07-4.24 7.52 7.33 14.28 11.57 6.76 5.77-10.25 17.82-10.25 24.81-1.36 5.33 6.77 14.75-2.77 9.47-9.47z"/>
        <path class="cls-16" d="M246.99 240.58l31.25 26.69 39.71-10.61-15.73 37.97 22.36 34.48-40.97-3.23-25.88 31.93-9.6-39.97-38.36-14.75 35.05-21.47 2.17-41.04z"/>
      </g>
      <g id="yuqi">
        <path class="cls-7" d="M1693.57 625.24c-16.95 0-33.22-8.9-43.53-23.81-9.44-13.65-12.23-30.1-8.08-47.58a85.5 85.5 0 0 1 17.22-34 163.81 163.81 0 0 1-45.92 6.49c-37.06 0-72.92-12.22-101-34.41a118 118 0 0 1-15.38-14.57c-.05.19-.1.38-.16.57a15.3 15.3 0 0 1-14.49 11.19 15.12 15.12 0 0 1-8.43-2.64c-13.91-9.34-16.65-26.88-17.36-36.16a76.38 76.38 0 0 1-15.33-25.66 74.61 74.61 0 0 1-4.11-22.16c-2.06-16.61 2.87-31.44 13.56-40.78l.07-.06a33 33 0 0 1 14.46-8c3.7-18.61 11.57-36.31 23.48-52.84-13.43-1.12-27.83-3.65-40-11.76-11.74-7.83-14.48-16.62-14.71-22.62-.42-11 6.75-20.8 17.05-23.25a16.12 16.12 0 0 1 3.73-.44 15.64 15.64 0 0 1 15.33 14 15.26 15.26 0 0 1-1.24 8.15 49.17 49.17 0 0 0 12.88 3.89c9.08 1.65 19 2 28.51 2.27l5.74.2 1.58-1.34h-.06c-11.48-6.22-28-16.39-39-32.88-11.23-16.83-13.53-36.2-6.15-51.81a14.39 14.39 0 0 1 13.19-8.56 16.18 16.18 0 0 1 13.58 7.53 15.59 15.59 0 0 1 .89 15.09c-3.23 6.83 1.21 17.08 7 24.21 7.42 9.07 18.16 15.41 28.67 20.91 3.67 1.92 7.34 3.8 10.75 5.52 2.7-1.53 5.41-3 8.12-4.36 9.73-4.93 24.54-11.48 40.75-11.48h1.84a71.46 71.46 0 0 1 10.06 1.21 48.13 48.13 0 0 0 7.73.93 15.09 15.09 0 0 0 1.87-.11l1.86-.23a113.82 113.82 0 0 1 14.48-1.18c1.28 0 2.55 0 3.78.12a97.3 97.3 0 0 1 23.8 4.49 15.46 15.46 0 0 1 5.19 1.17 159.07 159.07 0 0 1 28.7 15.6l1.15-.76c6-4 9-7.72 9.61-12a14.3 14.3 0 0 1 14.34-12.53 16.62 16.62 0 0 1 12.4 5.71 15.61 15.61 0 0 1 3.65 12.65c-1.51 10.26-6.87 19.26-16.29 27.28a131.11 131.11 0 0 1 10.25 11.94 164.16 164.16 0 0 1 25.69 44.27 40.74 40.74 0 0 1 21.31 6.55c18.67 12.23 27.8 36.13 23.82 62.38a74.2 74.2 0 0 1-16.56 36.42 93.33 93.33 0 0 1 3.14 32 15.71 15.71 0 0 1-15.88 14.53h-.39a41 41 0 0 1 0 10.09c-2.57 20.28-19.39 32.83-32.9 42.91l-2.39 1.79c-3 2.24-6 4.46-9 6.61-11.5 8.35-22.37 16.23-30.67 26.3-4.67 5.66-7 10.86-6.57 14.63.31 2.68 2.13 5.09 3.34 5.1a19.85 19.85 0 0 1 18 19 15.47 15.47 0 0 1-14.79 14.27q-1.1.01-2.18.01z"/>
        <path class="cls-4" d="M1693.57 630.24c-18.59 0-36.4-9.71-47.64-26-10.27-14.85-13.32-32.68-8.83-51.58a87.07 87.07 0 0 1 10.27-24.77 170.43 170.43 0 0 1-34.1 3.42c-38.18 0-75.14-12.6-104.07-35.48a124.24 124.24 0 0 1-11-9.82 19.85 19.85 0 0 1-15.92 8.09 20.11 20.11 0 0 1-11.22-3.49c-13.74-9.22-18.18-25.54-19.41-38.23a81.89 81.89 0 0 1-15.21-26.07 79.68 79.68 0 0 1-4.37-23.45c-2.19-18.18 3.36-34.54 15.25-44.93a38.17 38.17 0 0 1 13.54-8.23 138.63 138.63 0 0 1 18.94-44.85c-10.83-1.46-23.11-4.47-33.93-11.68-13.5-9-16.66-19.43-16.93-26.58-.51-13.4 8.27-25.31 20.89-28.31a21.13 21.13 0 0 1 4.88-.58 20.86 20.86 0 0 1 20.15 24.3 55.79 55.79 0 0 0 7.7 1.89 141.6 141.6 0 0 0 18.26 1.84c-9.23-6.28-19.07-14.69-26.57-25.94-12.22-18.3-14.65-39.51-6.51-56.72a19.29 19.29 0 0 1 17.71-11.42 21.22 21.22 0 0 1 17.72 9.9 20.57 20.57 0 0 1 1.19 19.9c-1.9 4 .85 12.14 6.39 18.9 6.86 8.38 17.08 14.4 27.11 19.65 2.53 1.32 5.26 2.73 8.32 4.28 2-1.1 4-2.16 6-3.16 10.19-5.16 25.73-12 43-12h2a75.39 75.39 0 0 1 10.74 1.28 45.07 45.07 0 0 0 6.89.86 10.1 10.1 0 0 0 1.25-.07l1.85-.23a117.63 117.63 0 0 1 15.1-1.22c1.38 0 2.76 0 4.09.13a102.4 102.4 0 0 1 24.43 4.54 20.43 20.43 0 0 1 6.16 1.5 163.81 163.81 0 0 1 26.75 14.18c4.68-3.44 5.6-5.76 5.84-7.42a19.21 19.21 0 0 1 19.28-16.8 21.68 21.68 0 0 1 16.19 7.44 20.54 20.54 0 0 1 4.82 16.65c-1.46 9.9-6.21 18.9-14.15 26.83 2.47 2.75 4.85 5.63 7.09 8.58a169.49 169.49 0 0 1 25.23 42.56 45.5 45.5 0 0 1 20.58 7.16c20.33 13.32 30.3 39.11 26 67.31a79.26 79.26 0 0 1-16 36.74 98.32 98.32 0 0 1 2.65 31.23 20.57 20.57 0 0 1-16 18.6 46.57 46.57 0 0 1-.37 6.27c-2.84 22.38-20.6 35.64-34.87 46.29l-2.37 1.78c-3 2.25-6.06 4.47-9 6.62-11.28 8.19-21.9 15.89-29.8 25.47-4.35 5.27-5.66 9.15-5.46 10.87a2.92 2.92 0 0 0 .21.77 20.07 20.07 0 0 1 11.53 5 20.69 20.69 0 0 1-9.9 38.21q-1.18-.01-2.37-.01z"/>
        <path class="cls-7" d="M1693.57 625.24c-16.95 0-33.22-8.9-43.53-23.81-9.44-13.65-12.23-30.1-8.08-47.58a85.5 85.5 0 0 1 17.22-34 163.81 163.81 0 0 1-45.92 6.49c-37.06 0-72.92-12.22-101-34.41a118 118 0 0 1-15.38-14.57c-.05.19-.1.38-.16.57a15.3 15.3 0 0 1-14.49 11.19 15.12 15.12 0 0 1-8.43-2.64c-13.91-9.34-16.65-26.88-17.36-36.16a76.38 76.38 0 0 1-15.33-25.66 74.61 74.61 0 0 1-4.11-22.16c-2.06-16.61 2.87-31.44 13.56-40.78l.07-.06a33 33 0 0 1 14.46-8c3.7-18.61 11.57-36.31 23.48-52.84-13.43-1.12-27.83-3.65-40-11.76-11.74-7.83-14.48-16.62-14.71-22.62-.42-11 6.75-20.8 17.05-23.25a16.12 16.12 0 0 1 3.73-.44 15.64 15.64 0 0 1 15.33 14 15.26 15.26 0 0 1-1.24 8.15 49.17 49.17 0 0 0 12.88 3.89c9.08 1.65 19 2 28.51 2.27l5.74.2 1.58-1.34h-.06c-11.48-6.22-28-16.39-39-32.88-11.23-16.83-13.53-36.2-6.15-51.81a14.39 14.39 0 0 1 13.19-8.56 16.18 16.18 0 0 1 13.58 7.53 15.59 15.59 0 0 1 .89 15.09c-3.23 6.83 1.21 17.08 7 24.21 7.42 9.07 18.16 15.41 28.67 20.91 3.67 1.92 7.34 3.8 10.75 5.52 2.7-1.53 5.41-3 8.12-4.36 9.73-4.93 24.54-11.48 40.75-11.48h1.84a71.46 71.46 0 0 1 10.06 1.21 48.13 48.13 0 0 0 7.73.93 15.09 15.09 0 0 0 1.87-.11l1.86-.23a113.82 113.82 0 0 1 14.48-1.18c1.28 0 2.55 0 3.78.12a97.3 97.3 0 0 1 23.8 4.49 15.46 15.46 0 0 1 5.19 1.17 159.07 159.07 0 0 1 28.7 15.6l1.15-.76c6-4 9-7.72 9.61-12a14.3 14.3 0 0 1 14.34-12.53 16.62 16.62 0 0 1 12.4 5.71 15.61 15.61 0 0 1 3.65 12.65c-1.51 10.26-6.87 19.26-16.29 27.28a131.11 131.11 0 0 1 10.25 11.94 164.16 164.16 0 0 1 25.69 44.27 40.74 40.74 0 0 1 21.31 6.55c18.67 12.23 27.8 36.13 23.82 62.38a74.2 74.2 0 0 1-16.56 36.42 93.33 93.33 0 0 1 3.14 32 15.71 15.71 0 0 1-15.88 14.53h-.39a41 41 0 0 1 0 10.09c-2.57 20.28-19.39 32.83-32.9 42.91l-2.39 1.79c-3 2.24-6 4.46-9 6.61-11.5 8.35-22.37 16.23-30.67 26.3-4.67 5.66-7 10.86-6.57 14.63.31 2.68 2.13 5.09 3.34 5.1a19.85 19.85 0 0 1 18 19 15.47 15.47 0 0 1-14.79 14.27q-1.1.01-2.18.01z"/>
        <path class="cls-8" d="M1739.24 452.16a5.8 5.8 0 0 0-1.08-.76 6.77 6.77 0 0 1-2-.12q-1.36 1.65-2.69 3.33c-1.89 3.26-3.84 6.48-6.71 8.93 3.93 12.7-14.33 24.7-22.72 31.08-10.91 8.3-22.33 16.14-32 25.9-19 19.15-30.65 50.81-13.77 75.22 8.36 12.09 22.11 20.12 37 19.46 6.49-.29 7-9.63 1.55-10.86a5.05 5.05 0 0 0-4.45-2.41c-7.33-.08-12.38-7.11-13.17-13.95-.94-8.12 3.83-16.14 8.79-22.15 11.46-13.89 27.12-23.83 41.38-34.54 12.73-9.57 29.21-20.83 31.38-38 2.13-16.59-9.92-30.8-21.51-41.13z"/>
        <path class="cls-10" d="M1457.18 369.26l.16-.13c6.15-6 14.8-8 23.59-5.66a42.07 42.07 0 0 1 4.94 1.62 126 126 0 0 1 15.88-31.44c17.4-24.91 42.67-43.6 72.31-51.08a130.52 130.52 0 0 1 56.9-1.48 18.88 18.88 0 0 1 6.69-.11h.08c4.77-3.59 10.52-4.84 17.21-3.67 7 1.22 13 5.18 18.85 8.86a258 258 0 0 1 34.44 25.32 145.93 145.93 0 0 1 29.44 35.43c10.06-5.66 23.38-5.91 33.45.68 17.32 11.35 22.35 33.11 19.41 52.51-2.7 17.82-13.32 33.66-27.89 44-7.63 5.41-17.32 9.35-26.8 8.43-16.24 25.37-42.76 45-71.39 55.11-48.74 17.23-105.36 8.52-145.93-23.57a106.06 106.06 0 0 1-20.38-21.25 67.23 67.23 0 0 1-17.12-6.07c-14.37-7.34-25.08-20.39-30.45-35.46a64.88 64.88 0 0 1-3.53-19.61c-1.57-11.69 1.03-24.48 10.14-32.43z"/>
        <path d="M1660.34 392.5c0-6.37 3.16-12.38 10.49-14.33a16.68 16.68 0 0 1 6.51-.39 16.15 16.15 0 0 1 4.34.82 7.54 7.54 0 0 1 .9 0 10.46 10.46 0 0 1 5.37 1.66 7.35 7.35 0 0 0 4.3-4.28c1.42-3.54 7.22-2 5.79 1.6a14.74 14.74 0 0 1-6.33 7.39 12.52 12.52 0 0 1 .53 1.65 18.33 18.33 0 0 1 2.55 14.84 16.76 16.76 0 0 1-1.75 4.19 14.63 14.63 0 0 1-6 6.36 13 13 0 0 1-7.26 3.29c-11.11 1.49-19.91-9.09-19.73-19.61a19.12 19.12 0 0 1 .29-3.19zm-88.4 3c0-6.37-3.16-12.38-10.49-14.33a16.68 16.68 0 0 0-6.51-.39 16.15 16.15 0 0 0-4.34.82 7.54 7.54 0 0 0-.9 0 10.46 10.46 0 0 0-5.37 1.66A7.35 7.35 0 0 1 1540 379c-1.42-3.54-7.22-2-5.79 1.6a14.74 14.74 0 0 0 6.33 7.39 12.52 12.52 0 0 0-.53 1.65 18.33 18.33 0 0 0-2.55 14.84 16.77 16.77 0 0 0 1.75 4.19 14.63 14.63 0 0 0 6 6.36 13 13 0 0 0 7.26 3.29c11.11 1.49 19.91-9.09 19.73-19.61a19.12 19.12 0 0 0-.26-3.21z"/>
        <path class="cls-14" d="M1580.85 447.06c.32-6.4 10.33-6.44 10 0-.56 11.06 12.07 24.09 23.45 23.06 10.93-1 22.68-13.24 22.56-24.17-.07-6.44 9.93-6.44 10 0 .18 16.39-16.24 33.14-32.56 34.17-16.61 1.05-34.3-16.6-33.45-33.06z"/>
        <circle class="cls-17" cx="1680.11" cy="404" r="40.86"/>
        <circle class="cls-17" cx="1552.83" cy="404" r="40.86"/>
        <path class="cls-9" d="M1595.25 389.21c12.36-15.72 36.24-13 45.85 4.07 4.24 7.52-7.33 14.28-11.57 6.76-5.77-10.25-17.82-10.25-24.81-1.36-5.32 6.77-14.72-2.77-9.47-9.47z"/>
        <path class="cls-8" d="M1753.87 404.41a10.63 10.63 0 0 0 .48-4.59 10.32 10.32 0 0 0 3.65-6.33c.52-2.75 0-5.67-.19-8.44l-.69-9.46a9.45 9.45 0 0 0-1-3.55c-.44-9.49-2.13-18.6-7-26.62a154.73 154.73 0 0 0-27.45-50.83 119.33 119.33 0 0 0-15.88-17.21q-1.09-1-2.2-1.9c10.86-6.67 20.28-15.37 22.1-27.74 1-6.92-9.58-9.91-10.61-2.92-1.25 8.47-7.07 14.23-13.94 18.83-2.32 1.55-4.72 3-7.16 4.41a149.94 149.94 0 0 0-32.09-18.33 5.73 5.73 0 0 0-2.9-.38 86.63 86.63 0 0 0-22.88-4.54c-6.23-.39-12.11.48-18.27 1.25-7.22.89-14-1.74-21.18-2-13.26-.4-26.12 4.48-37.77 10.38q-6.23 3.16-12.27 6.82c-5.27-2.64-10.54-5.3-15.76-8-11.69-6.12-23.31-13.1-31.77-23.44-7.45-9.11-13.81-23.25-8.34-34.81 3-6.36-6.47-12-9.5-5.55-6.53 13.8-2.78 29.69 5.42 42 8.75 13.11 21.79 22.23 35.47 29.64 4.55 2.47 9.15 4.85 13.77 7.2a177.65 177.65 0 0 0-16.45 13.11l-1.84-.07c-12.52-.53-25.43-.46-37.79-2.71a56.32 56.32 0 0 1-17.32-5.7c-1.39-.77-11.77-8.13-6.35-9.42 6.88-1.64 4-12.25-2.92-10.61-6 1.42-9.6 7.13-9.37 13.14.25 6.46 5.24 11.33 10.27 14.68 12.41 8.28 28.07 9.79 42.56 10.61q6 .34 12 .64c-1.76 1.9-3.5 3.83-5.16 5.81-16.79 20-28 43.6-30.43 69.78a6.22 6.22 0 0 0 .62 3.28 53 53 0 0 0 3.35 28c-.14 1.31-.28 2.63-.39 3.95a6.75 6.75 0 0 0 .36 2.84c-8.73 7.56-11 20.59-11.09 32-.07 13.55.91 32.23 13.34 40.57 5.89 4 11.41-5.57 5.55-9.5-4-2.71-5.24-7.92-6.16-12.41a91 91 0 0 1-1.73-18.66c.05-10.16 1.54-22 12-26.43a4.25 4.25 0 0 0 2.87-4.35 7 7 0 0 0 .56-1.88 145.37 145.37 0 0 1 38.69-78.53 148.54 148.54 0 0 1 24-20.36q5-2.76 10.18-5.07a120 120 0 0 1 20.21-6.75l1.52-.37c1.86.88 3.73 1.73 5.61 2.52 5.78 2.42 12 3.6 17.66 1 14.78 4 29.68 3.09 44.06-.61a112.92 112.92 0 0 1 13.78 6.26 132.94 132.94 0 0 1 34 25.6 135.35 135.35 0 0 1 35.82 70.18v2.47a7.25 7.25 0 0 0 1.15 3.8 7.16 7.16 0 0 0 3.41 3.37 5.83 5.83 0 0 0 1 1.35 74.93 74.93 0 0 1 22.52 59.39c-.53 7.06 10.47 7 11 0a85.59 85.59 0 0 0-23.13-64.81z"/>
        <path class="cls-16" d="M1770.36 417.58l-31.25 26.69-39.7-10.61 15.72 37.97-22.36 34.48 40.97-3.23 25.89 31.92 9.59-39.96 38.36-14.75-35.04-21.47-2.18-41.04z"/>
      </g>
      <path d="M629.43 830.5h-14v-65h-15v65h-14v-65h-15v65h-14v-65h-15v65h-14v-65h-15v65h-14v-65h-15v65h-14v-65h-15v65h-14v-65h-15v65h-14v-65h-15v65h-14v-65h-15v65h-12v-163h-41v163h-12v-65h-15v65h-14v-65h-15v65h-14v-65h-15v65h-14v-65h-15v65h-14v-65h-15v65h-14v-65h-15v65h-14v-65h-15v65h-14v-65h-15v65h-14v-65h-15v65h-14v-163h-39v297h39v-47h14v47h15v-47h14v47h15v-47h14v47h15v-47h14v47h15v-47h14v47h15v-47h14v47h15v-47h14v47h15v-47h14v47h15v-47h14v47h15v-47h12v47h41v-47h12v47h15v-47h14v47h15v-47h14v47h15v-47h14v47h15v-47h14v47h15v-47h14v47h15v-47h14v47h15v-47h14v47h15v-47h14v47h15v-47h14v47h39v-297h-39zm-573 77h-14v-67h14zm29 0h-14v-67h14zm29 0h-14v-67h14zm29 0h-14v-67h14zm29 0h-14v-67h14zm29 0h-14v-67h14zm29 0h-14v-67h14zm29 0h-14v-67h14zm29 0h-14v-67h14zm27 0h-12v-67h12zm53 0h-12v-67h12zm29 0h-14v-67h14zm29 0h-14v-67h14zm29 0h-14v-67h14zm29 0h-14v-67h14zm29 0h-14v-67h14zm29 0h-14v-67h14zm29 0h-14v-67h14zm29 0h-14v-67h14zm29 0h-14v-67h14zm1254-240v163h-14v-65h-15v65h-14v-65h-15v65h-14v-65h-15v65h-14v-65h-15v65h-14v-65h-15v65h-14v-65h-15v65h-14v-65h-15v65h-14v-65h-15v65h-14v-65h-15v65h-12v-163h-41v163h-12v-65h-15v65h-14v-65h-15v65h-14v-65h-15v65h-14v-65h-15v65h-14v-65h-15v65h-14v-65h-15v65h-14v-65h-15v65h-14v-65h-15v65h-14v-65h-15v65h-14v-163h-39v297h39v-47h14v47h15v-47h14v47h15v-47h14v47h15v-47h14v47h15v-47h14v47h15v-47h14v47h15v-47h14v47h15v-47h14v47h15v-47h14v47h15v-47h12v47h41v-47h12v47h15v-47h14v47h15v-47h14v47h15v-47h14v47h15v-47h14v47h15v-47h14v47h15v-47h14v47h15v-47h14v47h15v-47h14v47h15v-47h14v47h39v-297zm-573 240h-14v-67h14zm29 0h-14v-67h14zm29 0h-14v-67h14zm29 0h-14v-67h14zm29 0h-14v-67h14zm29 0h-14v-67h14zm29 0h-14v-67h14zm29 0h-14v-67h14zm29 0h-14v-67h14zm27 0h-12v-67h12zm53 0h-12v-67h12zm29 0h-14v-67h14zm29 0h-14v-67h14zm29 0h-14v-67h14zm29 0h-14v-67h14zm29 0h-14v-67h14zm29 0h-14v-67h14zm29 0h-14v-67h14zm29 0h-14v-67h14zm29 0h-14v-67h14z" stroke-width="6.85" stroke-miterlimit="10" stroke="#b5b5b5" fill="#fff" id="fence"/>
      <g id="board">
        <path d="M1246.48 582.25a58.43 58.43 0 0 0-14.56-15.35 32.14 32.14 0 0 0-9.27-4.47 33.43 33.43 0 0 0-8-3.95c-7.75-2.61-16.64-1.53-24.1 1.49a67.54 67.54 0 0 0-19.12 11.79c-21.05 18.25-29 49.15-19 75.21a73.13 73.13 0 0 0 5.88 12 65.25 65.25 0 0 0 7.6 13.12 74.5 74.5 0 0 0 15.76 15.68 51.46 51.46 0 0 0 13.94 7.36l-4.71 3.86c-1.94 1.59-2.21 4.81-1.31 6.93a6.34 6.34 0 0 0 5.79 3.9c3.76 0 7.53.07 11.28.38q1.36.11 2.73.25l1.36.15.83.1.88.12 1.35.21c1 .16 2 .34 3 .52a6.48 6.48 0 0 0 6.66-2.27 6.28 6.28 0 0 0 .5-7 66 66 0 0 0-5.16-6.61 27.85 27.85 0 0 0 6.77-3.29c.87-.58 1.7-1.19 2.51-1.84a24 24 0 0 0 8.33-3.92 46.86 46.86 0 0 0 12.61-14.1 79.54 79.54 0 0 0 10.28-28.83c3.13-21.23-.68-43.55-12.83-61.44z" fill="#b8e8e3" stroke-width="5" stroke-miterlimit="10" stroke="#b5b5b5"/>
        <path class="cls-3" d="M1227.75 702.48a44.93 44.93 0 0 0-6.32-4.6c2.47-1.19 4.56-3.4 4.59-6.29 0-3.22-2.9-4.44-5.52-3a9.42 9.42 0 0 0-3.16 2.92 11.55 11.55 0 0 0-3.88-4.79 5.83 5.83 0 0 0-8 1.11 4.69 4.69 0 0 0 1.45 6.82c.28.19.58.35.88.51-4.45.32-8.91 0-13-2.06-2-1-3.81 2-1.78 3 6.86 3.44 14.45 2.84 21.79 1.64a71.9 71.9 0 0 0-1.64 7.68c-.4 1.86 2.26 3.22 3.22 1.36a5.47 5.47 0 0 0 .63-2.3 2 2 0 0 0 0-.25l.78-3.62c0-.18.06-.47.1-.76a1.94 1.94 0 0 0 .33.23 40.13 40.13 0 0 1 7 4.84c1.78 1.53 4.25-.92 2.53-2.44zM1208.29 690c1.22-1.94 3.69-.24 4.66 1a13.21 13.21 0 0 1 1.62 2.78c-3.16-.83-7.29-2.18-6.28-3.78zm13.77 1.78c.64-.4.46-.46.39.1a2.9 2.9 0 0 1-.55 1.32 5.2 5.2 0 0 1-2.38 1.7 6.32 6.32 0 0 1 2.54-3.13zM1209.61 772a89.73 89.73 0 0 1-2.67-30.78c.77-10.11 2.19-20.27-.11-30.29-.51-2.21-3.91-1.27-3.4.94 2.33 10.11.6 20.49-.11 30.69a90.9 90.9 0 0 0 2.89 30.38 1.76 1.76 0 0 0 3.4-.94z"/>
        <path d="M1312.48 542.25a58.43 58.43 0 0 0-14.56-15.35 32.14 32.14 0 0 0-9.27-4.47 33.43 33.43 0 0 0-8-3.95c-7.75-2.61-16.64-1.53-24.1 1.49a67.54 67.54 0 0 0-19.12 11.79c-21.05 18.25-29 49.15-19 75.21a73.13 73.13 0 0 0 5.88 12 65.25 65.25 0 0 0 7.6 13.12 74.5 74.5 0 0 0 15.76 15.68 51.46 51.46 0 0 0 13.94 7.36l-4.71 3.86c-1.94 1.59-2.21 4.81-1.31 6.93a6.34 6.34 0 0 0 5.79 3.9c3.76 0 7.53.07 11.28.38q1.36.11 2.73.25l1.36.15.83.1.88.12 1.35.21c1 .16 2 .34 3 .52a6.48 6.48 0 0 0 6.66-2.27 6.28 6.28 0 0 0 .5-7 66 66 0 0 0-5.16-6.61 27.85 27.85 0 0 0 6.77-3.29c.87-.58 1.7-1.19 2.51-1.84a24 24 0 0 0 8.33-3.92 46.86 46.86 0 0 0 12.61-14.1 79.54 79.54 0 0 0 10.28-28.83c3.13-21.23-.68-43.55-12.83-61.44z" stroke-width="5" fill="#fdc3b8" stroke-miterlimit="10" stroke="#b5b5b5"/>
        <path class="cls-3" d="M1293.75 662.48a44.93 44.93 0 0 0-6.32-4.6c2.47-1.19 4.56-3.4 4.59-6.29 0-3.22-2.9-4.44-5.52-3a9.42 9.42 0 0 0-3.16 2.92 11.55 11.55 0 0 0-3.88-4.79 5.83 5.83 0 0 0-8 1.11 4.69 4.69 0 0 0 1.45 6.82c.28.19.58.35.88.51-4.45.32-8.91 0-13-2.06-2-1-3.81 2-1.78 3 6.86 3.44 14.45 2.84 21.79 1.64a71.9 71.9 0 0 0-1.64 7.68c-.4 1.86 2.26 3.22 3.22 1.36a5.47 5.47 0 0 0 .63-2.3 2 2 0 0 0 0-.25l.78-3.62c0-.18.06-.47.1-.76a1.94 1.94 0 0 0 .33.23 40.13 40.13 0 0 1 7 4.84c1.78 1.53 4.25-.92 2.53-2.44zM1274.29 650c1.22-1.94 3.69-.24 4.66 1a13.21 13.21 0 0 1 1.62 2.78c-3.16-.83-7.29-2.18-6.28-3.78zm13.77 1.78c.64-.4.46-.46.39.1a2.9 2.9 0 0 1-.55 1.32 5.2 5.2 0 0 1-2.38 1.7 6.32 6.32 0 0 1 2.54-3.13zM1275.61 732a89.73 89.73 0 0 1-2.67-30.78c.77-10.11 2.19-20.27-.11-30.29-.51-2.21-3.91-1.27-3.4.94 2.33 10.11.6 20.49-.11 30.69a90.9 90.9 0 0 0 2.89 30.38 1.76 1.76 0 0 0 3.4-.94z"/>
        <path class="cls-21" d="M1351.45 754c-6.31-3.44-14.08-4.09-21.11-4.68-7.35-.62-14.81-.63-22.07-2.1a35.37 35.37 0 0 1-18-9.25c-4.79-4.49-9.42-9.45-15.71-11.81-7.23-2.72-14.45-.11-20.39 4.24-6.17 4.52-12 8.83-19.28 11.35a84.47 84.47 0 0 1-25 4.16c-8.47.25-17.17-1.3-25.58-.33-7.55.87-15 4.75-16.49 12.86-1.15 6.41 1.53 14 8.61 15.33a5.43 5.43 0 0 0 1.4.08c3 1.17 6.21 1 9.36.67h.41l-12 165.66a8.37 8.37 0 0 0 0 1.64l-9.88-.74c-4.44-.33-8.24 4-8.24 8.24 0 4.74 3.78 7.91 8.24 8.24l29 2.19-3.93 26.17c-.55 3.69.93 7.44 4.83 8.52 3.42.94 7.76-1.15 8.52-4.83l.42-2a8.16 8.16 0 0 0 .16-1.78l3.76-25 2 .15c.05.11.11.23.17.34l9.46 16.79c2.92 5.18 10.89.53 8-4.66l-6.56-11.64 60.17 4.54-2.17 22.85a8.21 8.21 0 0 0-1.13 3.6 9.77 9.77 0 0 0 1.51 5.86c3.75 6.26 12.28 3.08 12.9-3.49l2.25-23.69 9 13.87c3.27 5 10.52.67 8-4.66l-.9-1.88a4.28 4.28 0 0 0-1.48-1.77l-5.89-9 29.8 2.25c4.44.33 8.24-4 8.24-8.24 0-4.74-3.78-7.91-8.24-8.24l-7.92-.6a8.31 8.31 0 0 0 .43-2.09l12.2-169c7.59.14 15.51-2.53 19.11-9.73 3.66-7.12.78-14.76-5.98-18.39z"/>
        <path class="cls-21" d="M1351.45 754c-6.31-3.44-14.08-4.09-21.11-4.68-7.35-.62-14.81-.63-22.07-2.1a35.37 35.37 0 0 1-18-9.25c-4.79-4.49-9.42-9.45-15.71-11.81-7.23-2.72-14.45-.11-20.39 4.24-6.17 4.52-12 8.83-19.28 11.35a84.47 84.47 0 0 1-25 4.16c-8.47.25-17.17-1.3-25.58-.33-7.55.87-15 4.75-16.49 12.86-1.15 6.41 1.53 14 8.61 15.33a5.43 5.43 0 0 0 1.4.08c3 1.17 6.21 1 9.36.67h.41l-12 165.66a8.37 8.37 0 0 0 0 1.64l-9.88-.74c-4.44-.33-8.24 4-8.24 8.24 0 4.74 3.78 7.91 8.24 8.24l29 2.19-3.93 26.17c-.55 3.69.93 7.44 4.83 8.52 3.42.94 7.76-1.15 8.52-4.83l.42-2a8.16 8.16 0 0 0 .16-1.78l3.76-25 2 .15c.05.11.11.23.17.34l9.46 16.79c2.92 5.18 10.89.53 8-4.66l-6.56-11.64 60.17 4.54-2.17 22.85a8.21 8.21 0 0 0-1.13 3.6 9.77 9.77 0 0 0 1.51 5.86c3.75 6.26 12.28 3.08 12.9-3.49l2.25-23.69 9 13.87c3.27 5 10.52.67 8-4.66l-.9-1.88a4.28 4.28 0 0 0-1.48-1.77l-5.89-9 29.8 2.25c4.44.33 8.24-4 8.24-8.24 0-4.74-3.78-7.91-8.24-8.24l-7.92-.6a8.31 8.31 0 0 0 .43-2.09l12.2-169c7.59.14 15.51-2.53 19.11-9.73 3.66-7.12.78-14.76-5.98-18.39z"/>
      </g>
      <path id="arrow" d="M771.67 846.87a611.25 611.25 0 0 1-73.78-58.55 6.5 6.5 0 0 0-6.9-.94 6.87 6.87 0 0 0-4 .21c-3.6 1.39-5 5.25-3.86 8.74a160.47 160.47 0 0 1 5 21.24q-89.57 12.23-179.52 21.53-26.16 2.7-52.35 5.14a6.61 6.61 0 0 0-.79 0 6.83 6.83 0 0 0-6 7.4q6.78 50.34 12.2 100.84c.49 4.59 6.81 8.46 10.7 4.79 4.57-4.32 9.89-5.8 15.91-6.67 7.63-1.11 15.36-1.59 23-2.31l8.14-.77q2.65 18.89 4.2 37.91a6.55 6.55 0 0 0 0 5.82 5.77 5.77 0 0 0 .31 1c.09.22.19.43.3.63a6.78 6.78 0 0 0 6.37 5.2h.4a15.3 15.3 0 0 0 9-1.05 6.91 6.91 0 0 0 4.28-7l-5.05-44.35 21.71-2 91.52-8.68q4.67 22.43 7.93 45.12c.79 5.52 6.41 7 10.14 5 4.18.51 8.24-3 7.69-7.35l-5.55-44.69c12.84-1.24 25.69-2.44 38.57-3.15l2.14 13.84a7 7 0 0 0 5.59 6 6.85 6.85 0 0 0 7.28-3.85 546.08 546.08 0 0 1 46.39-89.5c1.82-2.89 2.36-7.33-.97-9.55z" stroke-width="9" stroke="#4f4e4b" fill="#f5dddb" stroke-miterlimit="10"/>
      <g id="logo">
        <text transform="translate(740.64 395.09)" stroke="#000" stroke-width="1.98" font-size="142.44" font-family="Sacramento-Regular,Sacramento" stroke-miterlimit="10">
          Sparkle<tspan class="cls-24"><tspan x="-98.32" y="124.64"> </tspan><tspan class="cls-25" x="44.12" y="124.64"> </tspan><tspan class="cls-26" x="136.57" y="124.64">Circus</tspan></tspan>
        </text>
        <text transform="translate(740.64 395.09)" stroke-width="15.83" stroke="#fff" font-size="142.44" font-family="Sacramento-Regular,Sacramento" fill="none">
          Sparkle<tspan class="cls-24"><tspan x="-98.32" y="124.64"> </tspan><tspan class="cls-25" x="44.12" y="124.64"> </tspan><tspan class="cls-26" x="136.57" y="124.64">Circus</tspan></tspan>
        </text>
        <text transform="translate(740.64 395.09)" stroke="#231f20" stroke-width="7.91" font-size="142.44" font-family="Sacramento-Regular,Sacramento" fill="none">
          Sparkle<tspan class="cls-24"><tspan x="-98.32" y="124.64"> </tspan><tspan class="cls-25" x="44.12" y="124.64"> </tspan><tspan class="cls-26" x="136.57" y="124.64">Circus</tspan></tspan>
        </text>
        <path d="M794.01 420.89l14.23 11.01 17.14-5.48-6.08 16.94 10.51 14.61-17.99-.55-10.64 14.51-5.04-17.28-17.09-5.64 14.88-10.13.08-17.99zm332.05-132.11l3.22 17.71 16.4 7.38-15.84 8.53-1.95 17.89-13.01-12.43-17.62 3.67 7.81-16.22-8.94-15.62 17.83 2.41 12.1-13.32z" stroke="#fff" stroke-width="3.96"/>
        <path stroke-width="1.96" stroke="#fff" d="M1139.3 332.69l1.6 8.79 8.15 3.67-7.87 4.23-.97 8.88-6.46-6.17-8.74 1.83 3.87-8.05-4.43-7.76 8.85 1.2 6-6.62z"/>
      </g>
      <g id="btn" opacity=".25">
        <path class="cls-4" d="M773.13 662h371.59v140H773.13z"/>
        <path d="M1149.3 806.58H768.55V657.42h380.75zm-371.59-9.16h362.43V666.58H777.71z"/>
        <path d="M810.17 713.21h18.7v6.35h-6.17V747h-6.53v-27.44h-6zm33.43 0h6.53l13 33.83h-6.69l-2.65-7H840l-2.75 7h-6.69zm3.31 9l-4.54 11.61h9.05zm21.26-9h6.51v11.66l9.18-11.66h7.73l-11.81 15.1 13 18.73h-7.64l-10.43-15v15h-6.51zm29.19 0h18.47v6.3h-12.08v6.12h12.07v6.19h-12.07v8.9h12.07V747h-18.46zm47.97 0h6.53l13 33.83h-6.69l-2.65-7h-13.79L939 747h-6.69zm3.31 9l-4.54 11.61h9.05zm34.36-9h6.44v27.69h9.38v6.1H983zm36.72-.85a16.8 16.8 0 0 1 12.35 5.2 17.3 17.3 0 0 1 5.17 12.67 17.1 17.1 0 0 1-5.1 12.53 17.66 17.66 0 0 1-25-.14 17.78 17.78 0 0 1 12.61-30.27zm-.07 6.3a10.62 10.62 0 0 0-7.9 3.27 11.37 11.37 0 0 0-3.2 8.3 10.82 10.82 0 0 0 4 8.88 11 11 0 0 0 7.18 2.55 10.49 10.49 0 0 0 7.8-3.31 11.94 11.94 0 0 0 0-16.34 10.59 10.59 0 0 0-7.87-3.35zm39.63-6.3a16.8 16.8 0 0 1 12.35 5.2 17.3 17.3 0 0 1 5.17 12.67 17.1 17.1 0 0 1-5.1 12.53 17.66 17.66 0 0 1-25-.14 17.78 17.78 0 0 1 12.61-30.27zm-.07 6.3a10.62 10.62 0 0 0-7.9 3.27 11.37 11.37 0 0 0-3.2 8.3 10.82 10.82 0 0 0 4 8.88 11 11 0 0 0 7.18 2.55 10.49 10.49 0 0 0 7.8-3.31 11.94 11.94 0 0 0 0-16.34 10.59 10.59 0 0 0-7.88-3.35zm23.71-5.45h6.51v11.66l9.18-11.66h7.73l-11.81 15.1 13 18.73h-7.64l-10.43-15v15h-6.51z"/>
      </g>
    </g>
  </g>
</svg>
